<svg width="901" height="600" viewBox="0 0 901 600" fill="none" xmlns="http://www.w3.org/2000/svg">
<path d="M739.768 138.912H207.531C192.067 138.912 179.531 151.448 179.531 166.912V480.599C179.531 496.063 192.067 508.599 207.531 508.599H739.768C755.232 508.599 767.768 496.063 767.768 480.599V166.912C767.768 151.448 755.232 138.912 739.768 138.912Z" fill="white" stroke="#E5E7EB" stroke-width="4"/>
<path d="M683.706 166.092H642.941C636.54 166.092 631.352 171.28 631.352 177.68C631.352 184.08 636.54 189.269 642.941 189.269H683.706C690.106 189.269 695.295 184.08 695.295 177.68C695.295 171.28 690.106 166.092 683.706 166.092Z" fill="white" stroke="#E5E7EB" stroke-width="4"/>
<path d="M597.643 166.092H556.878C550.478 166.092 545.289 171.28 545.289 177.68C545.289 184.08 550.478 189.269 556.878 189.269H597.643C604.043 189.269 609.232 184.08 609.232 177.68C609.232 171.28 604.043 166.092 597.643 166.092Z" fill="white" stroke="#E5E7EB" stroke-width="4"/>
<path d="M523.171 177.68C523.171 171.28 517.983 166.092 511.583 166.092C505.182 166.092 499.994 171.28 499.994 177.68C499.994 184.08 505.182 189.269 511.583 189.269C517.983 189.269 523.171 184.08 523.171 177.68Z" fill="white" stroke="#E5E7EB" stroke-width="4"/>
<path d="M253.053 381.315H332.111V410.268H365.407V381.315H385.835V353.407H365.407V245.557H321.816L253.053 353.89V381.315ZM332.754 353.407H288.118V352.12L331.467 283.518H332.754V353.407V353.407ZM473.618 413.887C515.037 413.887 540.049 382.36 540.13 328.073C540.21 274.189 514.876 243.305 473.618 243.305C432.28 243.305 407.187 274.108 407.107 328.073C406.946 382.199 432.119 413.806 473.618 413.887V413.887ZM473.618 385.014C454.719 385.014 442.494 366.034 442.574 328.073C442.655 290.676 454.799 271.856 473.618 271.856C492.357 271.856 504.582 290.676 504.582 328.073C504.662 366.034 492.438 385.014 473.618 385.014ZM562.468 381.315H641.526V410.268H674.822V381.315H695.25V353.407H674.822V245.557H631.231L562.468 353.89V381.315V381.315ZM642.169 353.407H597.533V352.12L640.882 283.518H642.169V353.407V353.407Z" fill="#E5E7EB"/>
<path d="M235.546 175.416C235.546 170.266 231.372 166.092 226.222 166.092C221.073 166.092 216.898 170.266 216.898 175.416C216.898 180.565 221.073 184.74 226.222 184.74C231.372 184.74 235.546 180.565 235.546 175.416Z" fill="white" stroke="#E5E7EB" stroke-width="4"/>
<path d="M187.198 387.713C193.733 387.713 199.031 393.011 199.031 399.546C199.031 406.081 193.733 411.379 187.198 411.379C180.663 411.379 175.365 406.081 175.365 399.546C175.365 393.011 180.663 387.713 187.198 387.713Z" fill="#FF7833"/>
<path d="M776.903 259.957C768.979 264.533 758.845 261.818 754.27 253.893C749.694 245.968 752.41 235.835 760.334 231.259C768.259 226.684 778.393 229.399 782.968 237.324C787.543 245.249 784.828 255.382 776.903 259.957Z" fill="#FF7833"/>
<path d="M467.313 189.921C460.493 189.921 454.964 184.392 454.964 177.572C454.964 170.751 460.493 165.223 467.313 165.223C474.133 165.223 479.662 170.751 479.662 177.572C479.662 184.392 474.133 189.921 467.313 189.921Z" fill="#E5E7EB"/>
<path d="M319.66 148.268C328.736 148.268 336.095 140.91 336.095 131.833C336.095 122.757 328.736 115.398 319.66 115.398C310.583 115.398 303.225 122.757 303.225 131.833C303.225 140.91 310.583 148.268 319.66 148.268Z" fill="#FF7833"/>
<path d="M554.614 430.201C547.109 430.201 541.025 436.285 541.025 443.79C541.025 451.295 547.109 457.379 554.614 457.379C562.119 457.379 568.203 451.295 568.203 443.79C568.203 436.285 562.119 430.201 554.614 430.201Z" fill="#FF7833"/>
<path d="M303.26 482.359C296.362 482.359 290.77 476.767 290.77 469.869C290.77 462.971 296.362 457.379 303.26 457.379C310.158 457.379 315.75 462.971 315.75 469.869C315.75 476.767 310.158 482.359 303.26 482.359Z" fill="#E5E7EB"/>
<path d="M428.267 423.556C432.744 426.141 434.277 431.865 431.693 436.342C429.108 440.819 423.384 442.353 418.907 439.768C414.43 437.183 412.896 431.459 415.481 426.982C418.065 422.505 423.79 420.971 428.267 423.556Z" fill="#E5E7EB"/>
<path d="M736.958 163.478L719.933 180.502C719.313 181.122 719.313 182.128 719.933 182.748C720.553 183.367 721.558 183.367 722.179 182.747L739.203 165.723C739.823 165.103 739.823 164.097 739.203 163.477C738.583 162.857 737.578 162.858 736.958 163.478Z" fill="#E5E7EB"/>
<path d="M735.292 175.667L730.383 180.576C729.763 181.196 729.762 182.202 730.382 182.822C731.002 183.442 732.008 183.442 732.628 182.821L737.537 177.912C738.157 177.292 738.157 176.286 737.538 175.667C736.918 175.047 735.912 175.047 735.292 175.667Z" fill="#E5E7EB"/>
<path d="M211.886 464.043L196.653 479.277C196.098 479.832 196.098 480.731 196.653 481.285L196.653 481.286C197.208 481.841 198.107 481.841 198.661 481.286L213.895 466.052C214.45 465.498 214.45 464.598 213.895 464.044L213.895 464.043C213.34 463.489 212.441 463.489 211.886 464.043Z" fill="#E5E7EB"/>
<path d="M210.394 474.95L206 479.344C205.446 479.898 205.446 480.797 206 481.352L206.001 481.352C206.555 481.907 207.455 481.907 208.009 481.352L212.403 476.958C212.958 476.404 212.958 475.505 212.403 474.95L212.402 474.95C211.848 474.395 210.949 474.395 210.394 474.95Z" fill="#E5E7EB"/>
<path d="M138.059 167.787L167.508 138.338C168.58 137.266 168.58 135.527 167.508 134.455C166.435 133.382 164.696 133.382 163.624 134.455L134.175 163.904C133.103 164.976 133.103 166.715 134.175 167.787C135.248 168.859 136.986 168.859 138.059 167.787Z" fill="#E5E7EB"/>
<path d="M140.944 146.702L149.437 138.209C150.51 137.137 150.51 135.398 149.437 134.326C148.365 133.253 146.626 133.253 145.554 134.326L137.061 142.819C135.988 143.891 135.988 145.63 137.061 146.702C138.133 147.775 139.872 147.775 140.944 146.702Z" fill="#E5E7EB"/>
<path d="M722.911 484.565L743.643 463.834C744.398 463.079 744.398 461.855 743.643 461.1C742.888 460.345 741.664 460.345 740.909 461.1L720.178 481.832C719.423 482.587 719.423 483.81 720.178 484.565C720.932 485.32 722.156 485.32 722.911 484.565Z" fill="#E5E7EB"/>
<path d="M724.939 469.723L730.918 463.744C731.673 462.989 731.673 461.765 730.918 461.01C730.163 460.255 728.94 460.255 728.185 461.01L722.205 466.989C721.45 467.744 721.451 468.968 722.205 469.723C722.96 470.478 724.184 470.478 724.939 469.723Z" fill="#E5E7EB"/>
<path fill-rule="evenodd" clip-rule="evenodd" d="M708.929 102.774H712.233C713.032 102.774 713.675 103.424 713.675 104.216V107.52C713.675 108.319 713.025 108.962 712.233 108.962H708.929C708.137 108.962 707.487 108.312 707.487 107.52V104.216C707.486 104.026 707.523 103.838 707.596 103.663C707.668 103.488 707.774 103.329 707.908 103.195C708.042 103.061 708.201 102.955 708.376 102.882C708.552 102.81 708.739 102.773 708.929 102.774V102.774ZM720.384 102.774H723.688C724.48 102.774 725.13 103.424 725.13 104.216V107.52C725.13 108.319 724.48 108.962 723.688 108.962H720.384C719.592 108.962 718.942 108.312 718.942 107.52V104.216C718.942 103.424 719.592 102.774 720.384 102.774ZM731.847 102.774H735.151C735.944 102.774 736.594 103.424 736.594 104.216V107.52C736.594 108.319 735.944 108.962 735.151 108.962H731.847C731.055 108.962 730.405 108.312 730.405 107.52V104.216C730.404 104.026 730.441 103.838 730.514 103.663C730.586 103.488 730.692 103.329 730.826 103.195C730.96 103.061 731.119 102.955 731.294 102.882C731.47 102.81 731.657 102.773 731.847 102.774V102.774ZM743.303 102.774H746.607C747.399 102.774 748.049 103.424 748.049 104.216V107.52C748.049 108.319 747.399 108.962 746.607 108.962H743.303C742.92 108.961 742.552 108.809 742.281 108.539C742.009 108.269 741.856 107.903 741.854 107.52V104.216C741.858 103.833 742.012 103.468 742.283 103.198C742.554 102.928 742.92 102.776 743.303 102.774V102.774ZM754.759 102.774H758.063C758.862 102.774 759.512 103.424 759.512 104.216V107.52C759.512 108.319 758.862 108.962 758.063 108.962H754.759C753.967 108.962 753.317 108.312 753.317 107.52V104.216C753.317 103.424 753.967 102.774 754.759 102.774ZM720.804 115.266H724.108C724.901 115.266 725.551 115.916 725.551 116.708V120.019C725.551 120.811 724.901 121.461 724.108 121.461H720.804C720.005 121.461 719.362 120.811 719.362 120.019V116.715C719.361 116.524 719.397 116.336 719.469 116.16C719.541 115.984 719.647 115.824 719.781 115.69C719.915 115.555 720.074 115.448 720.25 115.375C720.425 115.303 720.614 115.265 720.804 115.266V115.266ZM732.26 115.266H735.564C736.356 115.266 737.006 115.916 737.006 116.708V120.019C737.006 120.811 736.356 121.461 735.564 121.461H732.26C731.468 121.461 730.818 120.811 730.818 120.019V116.715C730.817 116.524 730.853 116.336 730.925 116.16C730.997 115.984 731.103 115.824 731.237 115.69C731.371 115.555 731.53 115.448 731.706 115.375C731.881 115.303 732.07 115.265 732.26 115.266V115.266ZM743.716 115.266H747.02C747.819 115.266 748.469 115.916 748.469 116.708V120.019C748.467 120.402 748.313 120.768 748.042 121.038C747.77 121.308 747.403 121.46 747.02 121.461H743.716C742.924 121.461 742.274 120.811 742.274 120.019V116.715C742.274 115.916 742.924 115.266 743.716 115.266ZM731.847 89.3535H735.151C735.944 89.3535 736.594 90.0035 736.594 90.7955V94.1005C736.594 94.8985 735.944 95.5425 735.151 95.5425H731.847C731.055 95.5425 730.405 94.8925 730.405 94.1005V90.7955C730.404 90.606 730.441 90.4184 730.514 90.2432C730.586 90.0681 730.692 89.909 730.826 89.775C730.96 89.641 731.119 89.5348 731.294 89.4625C731.47 89.3902 731.657 89.3531 731.847 89.3535V89.3535ZM743.303 89.3535H746.607C747.399 89.3535 748.049 90.0035 748.049 90.7955V94.1005C748.049 94.8985 747.399 95.5425 746.607 95.5425H743.303C742.92 95.5423 742.552 95.3905 742.281 95.1203C742.009 94.8501 741.856 94.4835 741.854 94.1005V90.7955C741.858 90.4132 742.012 90.0478 742.283 89.778C742.554 89.5083 742.92 89.3559 743.303 89.3535V89.3535ZM112.163 492.314H115.467C116.266 492.314 116.909 492.964 116.909 493.756V497.06C116.909 497.859 116.259 498.502 115.467 498.502H112.163C111.371 498.502 110.721 497.852 110.721 497.06V493.756C110.72 493.566 110.757 493.378 110.83 493.203C110.902 493.028 111.008 492.869 111.142 492.735C111.276 492.601 111.435 492.495 111.61 492.422C111.786 492.35 111.973 492.313 112.163 492.314V492.314ZM123.618 492.314H126.922C127.715 492.314 128.365 492.964 128.365 493.756V497.06C128.365 497.859 127.715 498.502 126.922 498.502H123.618C122.826 498.502 122.176 497.852 122.176 497.06V493.756C122.176 492.964 122.826 492.314 123.618 492.314ZM135.081 492.314H138.386C139.178 492.314 139.828 492.964 139.828 493.756V497.06C139.828 497.859 139.178 498.502 138.386 498.502H135.081C134.289 498.502 133.639 497.852 133.639 497.06V493.756C133.638 493.566 133.676 493.378 133.748 493.203C133.82 493.028 133.927 492.869 134.06 492.735C134.194 492.601 134.353 492.495 134.529 492.423C134.704 492.35 134.891 492.313 135.081 492.314V492.314ZM146.537 492.314H149.841C150.633 492.314 151.283 492.964 151.283 493.756V497.06C151.283 497.859 150.633 498.502 149.841 498.502H146.537C146.154 498.501 145.786 498.349 145.515 498.079C145.243 497.809 145.09 497.443 145.088 497.06V493.756C145.092 493.373 145.246 493.008 145.517 492.738C145.788 492.468 146.154 492.316 146.537 492.314V492.314ZM157.993 492.314H161.297C162.096 492.314 162.746 492.964 162.746 493.756V497.06C162.746 497.859 162.096 498.502 161.297 498.502H157.993C157.201 498.502 156.551 497.852 156.551 497.06V493.756C156.551 492.964 157.201 492.314 157.993 492.314ZM124.039 504.806H127.343C128.135 504.806 128.785 505.456 128.785 506.248V509.559C128.785 510.351 128.135 511.001 127.343 511.001H124.039C123.24 511.001 122.596 510.351 122.596 509.559V506.255C122.595 506.064 122.631 505.876 122.704 505.7C122.776 505.524 122.882 505.365 123.016 505.23C123.15 505.095 123.309 504.988 123.485 504.916C123.66 504.843 123.849 504.805 124.039 504.806V504.806ZM135.494 504.806H138.798C139.59 504.806 140.24 505.456 140.24 506.248V509.559C140.24 510.351 139.59 511.001 138.798 511.001H135.494C134.702 511.001 134.052 510.351 134.052 509.559V506.255C134.051 506.064 134.087 505.876 134.159 505.7C134.231 505.524 134.337 505.364 134.471 505.23C134.605 505.095 134.764 504.988 134.94 504.915C135.115 504.843 135.304 504.805 135.494 504.806ZM146.95 504.806H150.254C151.053 504.806 151.703 505.456 151.703 506.248V509.559C151.701 509.942 151.547 510.308 151.276 510.578C151.004 510.848 150.637 511 150.254 511.001H146.95C146.158 511.001 145.508 510.351 145.508 509.559V506.255C145.508 505.456 146.158 504.806 146.95 504.806ZM135.082 478.894H138.386C139.178 478.894 139.828 479.544 139.828 480.337V483.641C139.828 484.44 139.178 485.083 138.386 485.083H135.082C134.289 485.083 133.639 484.433 133.639 483.641V480.337C133.638 480.147 133.675 479.959 133.748 479.784C133.82 479.609 133.926 479.449 134.06 479.315C134.195 479.181 134.354 479.075 134.529 479.003C134.704 478.93 134.892 478.893 135.082 478.894V478.894ZM146.537 478.894H149.841C150.633 478.894 151.283 479.544 151.283 480.337V483.641C151.283 484.44 150.633 485.083 149.841 485.083H146.537C146.154 485.082 145.786 484.93 145.515 484.66C145.243 484.39 145.09 484.024 145.088 483.641V480.337C145.092 479.954 145.246 479.588 145.517 479.318C145.788 479.048 146.154 478.896 146.537 478.894Z" fill="#E5E7EB"/>
<path fill-rule="evenodd" clip-rule="evenodd" d="M181.383 325.923C156.743 325.923 136.766 305.664 136.766 280.677C136.766 255.69 156.743 235.432 181.383 235.432C206.023 235.432 226 255.69 226 280.677C226 305.664 206.023 325.923 181.383 325.923Z" fill="#FF7833"/>
<path d="M199.357 261.477L180.509 281.586L169.193 269.522" stroke="white" stroke-width="7.405" stroke-linecap="round" stroke-linejoin="round"/>
<path d="M161.678 300.836L180.526 280.727L191.842 292.791" stroke="white" stroke-width="7.405" stroke-linecap="round" stroke-linejoin="round"/>
</svg>
