<svg width="44" height="44" viewBox="0 0 44 44" fill="none" xmlns="http://www.w3.org/2000/svg">
<path d="M44 22C44 34.1503 34.1503 44 22 44C9.84974 44 0 34.1503 0 22C0 9.84974 9.84974 0 22 0C34.1503 0 44 9.84974 44 22Z" fill="#E16146"/>
<g clip-path="url(#clip0_1963_7748)">
<path fill-rule="evenodd" clip-rule="evenodd" d="M22.6177 12.5897C27.0096 12.8926 30.5192 16.4022 30.8221 20.7941C30.8453 21.1294 30.5629 21.4117 30.2269 21.4117H22.0001V13.1853C22.0001 12.8493 22.2824 12.5665 22.6177 12.5897ZM20.2354 14.4526V23.1765L25.9655 28.907C26.2174 29.1588 26.1982 29.5864 25.9078 29.7922C24.5001 30.7908 22.7879 31.3878 20.935 31.411C16.2218 31.4702 12.1655 27.607 12.0052 22.8959C11.8493 18.3088 15.1982 14.4812 19.5795 13.8621C19.9269 13.8129 20.2354 14.1015 20.2354 14.4526Z" fill="white"/>
<path d="M31.4041 23.1765H22.6802L28.4902 28.9864C28.7122 29.2084 29.0777 29.2264 29.306 29.0114C30.7288 27.6709 31.7074 25.8639 31.9946 23.8327C32.0438 23.4849 31.7552 23.1765 31.4041 23.1765Z" fill="white"/>
</g>
<defs>
<clipPath id="clip0_1963_7748">
<rect width="20" height="20" fill="white" transform="translate(12 12)"/>
</clipPath>
</defs>
</svg>
