<svg width="44" height="44" viewBox="0 0 44 44" fill="none" xmlns="http://www.w3.org/2000/svg">
<path d="M44 22C44 34.1503 34.1503 44 22 44C9.84974 44 0 34.1503 0 22C0 9.84974 9.84974 0 22 0C34.1503 0 44 9.84974 44 22Z" fill="#E16146"/>
<path fill-rule="evenodd" clip-rule="evenodd" d="M23 24.0002H22.5C22.1022 24.0002 21.7206 24.1582 21.4393 24.4395C21.158 24.7208 21 25.1023 21 25.5001V27.0001H23.5V26.7501C23.5 26.5512 23.579 26.3604 23.7197 26.2198C23.8603 26.0791 24.0511 26.0001 24.25 26.0001C24.4489 26.0001 24.6397 26.0791 24.7803 26.2198C24.921 26.3604 25 26.5512 25 26.7501V27.0001H28V26.7501C28 26.5512 28.079 26.3604 28.2197 26.2198C28.3603 26.0791 28.5511 26.0001 28.75 26.0001C28.9489 26.0001 29.1397 26.0791 29.2803 26.2198C29.421 26.3604 29.5 26.5512 29.5 26.7501V27.0001H32V25.5001C32 25.1023 31.842 24.7208 31.5607 24.4395C31.2794 24.1582 30.8978 24.0002 30.5 24.0002H30V23.0002C30 22.5361 29.8156 22.091 29.4874 21.7628C29.1592 21.4346 28.7141 21.2502 28.25 21.2502H24.75C24.2859 21.2502 23.8408 21.4346 23.5126 21.7628C23.1844 22.091 23 22.5361 23 23.0002V24.0002ZM24.5732 22.8234C24.5263 22.8703 24.5 22.9339 24.5 23.0002V24.0002H28.5V23.0002C28.5 22.9339 28.4737 22.8703 28.4268 22.8234C28.3799 22.7765 28.3163 22.7502 28.25 22.7502H24.75C24.6837 22.7502 24.6201 22.7765 24.5732 22.8234Z" fill="white"/>
<path fill-rule="evenodd" clip-rule="evenodd" d="M22.032 11.3364C21.7323 11.1178 21.371 11 21 11C20.629 11 20.2677 11.1178 19.968 11.3364L12.547 16.7503C11.57 17.4623 12.073 19.0063 13.281 19.0083H25V19.0003H28V19.0073H28.719C29.927 19.0053 30.429 17.4613 29.453 16.7493L22.032 11.3364ZM21 14.2604C21.2652 14.2604 21.5196 14.3657 21.7071 14.5533C21.8946 14.7408 22 14.9951 22 15.2604C22 15.5256 21.8946 15.7799 21.7071 15.9674C21.5196 16.155 21.2652 16.2603 21 16.2603C20.7348 16.2603 20.4804 16.155 20.2929 15.9674C20.1054 15.7799 20 15.5256 20 15.2604C20 14.9951 20.1054 14.7408 20.2929 14.5533C20.4804 14.3657 20.7348 14.2604 21 14.2604ZM20.25 24.4092C20.16 24.5952 20.091 24.7942 20.05 25.0031H18.25V20.0063H20.25V24.4092ZM23.75 20.4372C23.2343 20.6387 22.7913 20.9911 22.4791 21.4484C22.1669 21.9057 21.9999 22.4465 22 23.0002V23.0502C21.9156 23.0672 21.8322 23.0885 21.75 23.1142V20.0063H23.75V20.4372ZM20 26.0031V29.5001H12.75C12.5511 29.5001 12.3603 29.421 12.2197 29.2804C12.079 29.1397 12 28.949 12 28.7501V28.2501C12.0005 27.6537 12.2378 27.0819 12.6597 26.6604C13.0816 26.2389 13.6536 26.0021 14.25 26.0021L20 26.0031ZM14.5 25.0031H16.75V20.0073H14.5V25.0031Z" fill="white"/>
<path d="M22.5 32C22.1022 32 21.7206 31.842 21.4393 31.5607C21.158 31.2794 21 30.8978 21 30.5V28.5001H23.5V29.2501C23.5 29.449 23.579 29.6397 23.7197 29.7804C23.8603 29.921 24.0511 30 24.25 30C24.4489 30 24.6397 29.921 24.7803 29.7804C24.921 29.6397 25 29.449 25 29.2501V28.5001H28V29.2501C28 29.449 28.079 29.6397 28.2197 29.7804C28.3603 29.921 28.5511 30 28.75 30C28.9489 30 29.1397 29.921 29.2803 29.7804C29.421 29.6397 29.5 29.449 29.5 29.2501V28.5001H32V30.5C32 30.8978 31.842 31.2794 31.5607 31.5607C31.2794 31.842 30.8978 32 30.5 32H22.5Z" fill="white"/>
</svg>
