<svg width="44" height="44" viewBox="0 0 44 44" fill="none" xmlns="http://www.w3.org/2000/svg">
<path d="M44 22C44 34.1503 34.1503 44 22 44C9.84974 44 0 34.1503 0 22C0 9.84974 9.84974 0 22 0C34.1503 0 44 9.84974 44 22Z" fill="#E16146"/>
<path d="M29.5274 15.4375H28.5039L28.5011 15.4386L28.5 15.4414V28.5C28.5 28.8647 28.6449 29.2144 28.9027 29.4723C29.1606 29.7301 29.5103 29.875 29.875 29.875C30.2397 29.875 30.5894 29.7301 30.8473 29.4723C31.1051 29.2144 31.25 28.8647 31.25 28.5V17.1601C31.25 16.7033 31.0685 16.2651 30.7455 15.942C30.4224 15.619 29.9842 15.4375 29.5274 15.4375Z" fill="white"/>
<path d="M27.125 28.5V13.7188C27.125 13.493 27.0805 13.2695 26.9942 13.061C26.9078 12.8525 26.7812 12.663 26.6216 12.5034C26.462 12.3438 26.2725 12.2172 26.064 12.1308C25.8555 12.0445 25.632 12 25.4062 12H13.7188C13.2629 12 12.8257 12.1811 12.5034 12.5034C12.1811 12.8257 12 13.2629 12 13.7188V28.8438C12 29.4819 12.2535 30.094 12.7048 30.5452C13.156 30.9965 13.7681 31.25 14.4062 31.25H29.1381C29.1446 31.2501 29.151 31.2488 29.1571 31.2464C29.1631 31.2439 29.1686 31.2403 29.1732 31.2357C29.1778 31.2311 29.1814 31.2256 29.1839 31.2196C29.1863 31.2135 29.1876 31.2071 29.1875 31.2006C29.1875 31.1898 29.1839 31.1793 29.1773 31.1707C29.1707 31.1622 29.1614 31.1561 29.151 31.1533C28.5694 30.9938 28.0563 30.6478 27.6903 30.1685C27.3243 29.6892 27.1257 29.1031 27.125 28.5ZM14.75 16.125C14.75 15.9427 14.8224 15.7678 14.9514 15.6389C15.0803 15.5099 15.2552 15.4375 15.4375 15.4375H18.1875C18.3698 15.4375 18.5447 15.5099 18.6736 15.6389C18.8026 15.7678 18.875 15.9427 18.875 16.125V18.875C18.875 19.0573 18.8026 19.2322 18.6736 19.3611C18.5447 19.4901 18.3698 19.5625 18.1875 19.5625H15.4375C15.2552 19.5625 15.0803 19.4901 14.9514 19.3611C14.8224 19.2322 14.75 19.0573 14.75 18.875V16.125ZM23.6875 27.8125H15.4568C15.0869 27.8125 14.7693 27.528 14.7509 27.1581C14.7464 27.0651 14.7608 26.9722 14.7933 26.885C14.8258 26.7978 14.8756 26.7181 14.9398 26.6507C15.004 26.5834 15.0813 26.5297 15.1668 26.4931C15.2523 26.4564 15.3444 26.4375 15.4375 26.4375H23.6682C24.0381 26.4375 24.3557 26.722 24.3741 27.0919C24.3786 27.1849 24.3642 27.2778 24.3317 27.365C24.2992 27.4522 24.2494 27.5319 24.1852 27.5993C24.121 27.6666 24.0437 27.7203 23.9582 27.7569C23.8727 27.7936 23.7806 27.8125 23.6875 27.8125ZM23.6875 25.0625H15.4568C15.0869 25.0625 14.7693 24.778 14.7509 24.4081C14.7464 24.3151 14.7608 24.2222 14.7933 24.135C14.8258 24.0478 14.8756 23.9681 14.9398 23.9007C15.004 23.8334 15.0813 23.7797 15.1668 23.7431C15.2523 23.7064 15.3444 23.6875 15.4375 23.6875H23.6682C24.0381 23.6875 24.3557 23.972 24.3741 24.3419C24.3786 24.4349 24.3642 24.5278 24.3317 24.615C24.2992 24.7022 24.2494 24.7819 24.1852 24.8493C24.121 24.9166 24.0437 24.9703 23.9582 25.0069C23.8727 25.0436 23.7806 25.0625 23.6875 25.0625ZM23.6875 22.3125H15.4568C15.0869 22.3125 14.7693 22.028 14.7509 21.6581C14.7464 21.5651 14.7608 21.4722 14.7933 21.385C14.8258 21.2978 14.8756 21.2181 14.9398 21.1507C15.004 21.0834 15.0813 21.0297 15.1668 20.9931C15.2523 20.9564 15.3444 20.9375 15.4375 20.9375H23.6682C24.0381 20.9375 24.3557 21.222 24.3741 21.5919C24.3786 21.6849 24.3642 21.7778 24.3317 21.865C24.2992 21.9522 24.2494 22.0319 24.1852 22.0993C24.121 22.1666 24.0437 22.2203 23.9582 22.2569C23.8727 22.2936 23.7806 22.3125 23.6875 22.3125ZM23.6875 19.5625H20.9568C20.5869 19.5625 20.2693 19.278 20.2509 18.9081C20.2464 18.8151 20.2608 18.7222 20.2933 18.635C20.3258 18.5478 20.3756 18.4681 20.4398 18.4007C20.504 18.3334 20.5813 18.2797 20.6668 18.2431C20.7523 18.2064 20.8444 18.1875 20.9375 18.1875H23.6682C24.0381 18.1875 24.3557 18.472 24.3741 18.8419C24.3786 18.9349 24.3642 19.0278 24.3317 19.115C24.2992 19.2022 24.2494 19.2819 24.1852 19.3493C24.121 19.4166 24.0437 19.4703 23.9582 19.5069C23.8727 19.5436 23.7806 19.5625 23.6875 19.5625ZM23.6875 16.8125H20.9568C20.5869 16.8125 20.2693 16.528 20.2509 16.1581C20.2464 16.0651 20.2608 15.9722 20.2933 15.885C20.3258 15.7978 20.3756 15.7181 20.4398 15.6507C20.504 15.5834 20.5813 15.5297 20.6668 15.4931C20.7523 15.4564 20.8444 15.4375 20.9375 15.4375H23.6682C24.0381 15.4375 24.3557 15.722 24.3741 16.0919C24.3786 16.1849 24.3642 16.2778 24.3317 16.365C24.2992 16.4522 24.2494 16.5319 24.1852 16.5993C24.121 16.6666 24.0437 16.7203 23.9582 16.7569C23.8727 16.7936 23.7806 16.8125 23.6875 16.8125Z" fill="white"/>
</svg>
