<svg width="80" height="80" viewBox="0 0 80 80" fill="none" xmlns="http://www.w3.org/2000/svg">
<rect width="80" height="80" rx="40" fill="#DFDFE6"/>
<path d="M40 22.5C36.6058 22.5064 33.2868 23.4998 30.4471 25.359C27.6075 27.2183 25.3698 29.8632 24.0066 32.9716C22.6434 36.08 22.2136 39.5177 22.7695 42.8661C23.3254 46.2144 24.843 49.3288 27.1375 51.83C28.7762 53.6063 30.7651 55.024 32.9789 55.9936C35.1926 56.9632 37.5832 57.4638 40 57.4638C42.4167 57.4638 44.8073 56.9632 47.0211 55.9936C49.2348 55.024 51.2237 53.6063 52.8625 51.83C55.1569 49.3288 56.6745 46.2144 57.2304 42.8661C57.7863 39.5177 57.3565 36.08 55.9933 32.9716C54.6301 29.8632 52.3925 27.2183 49.5528 25.359C46.7132 23.4998 43.3941 22.5064 40 22.5ZM40 54C36.3748 53.9945 32.8931 52.583 30.2875 50.0625C31.0785 48.1367 32.4243 46.4895 34.1537 45.3303C35.883 44.1711 37.918 43.5522 40 43.5522C42.0819 43.5522 44.1169 44.1711 45.8463 45.3303C47.5757 46.4895 48.9214 48.1367 49.7125 50.0625C47.1069 52.583 43.6251 53.9945 40 54ZM36.5 36.5C36.5 35.8078 36.7052 35.1311 37.0898 34.5555C37.4744 33.9799 38.021 33.5313 38.6606 33.2664C39.3001 33.0015 40.0038 32.9322 40.6828 33.0673C41.3617 33.2023 41.9854 33.5356 42.4748 34.0251C42.9643 34.5146 43.2977 35.1383 43.4327 35.8172C43.5678 36.4961 43.4984 37.1999 43.2335 37.8394C42.9686 38.4789 42.52 39.0256 41.9445 39.4101C41.3689 39.7947 40.6922 40 40 40C39.0717 40 38.1815 39.6313 37.5251 38.9749C36.8687 38.3185 36.5 37.4283 36.5 36.5ZM52.0925 47C50.5289 44.3256 48.1224 42.2453 45.25 41.085C46.141 40.0746 46.7216 38.8287 46.922 37.4965C47.1225 36.1644 46.9343 34.8027 46.38 33.5749C45.8258 32.347 44.929 31.3052 43.7973 30.5744C42.6656 29.8437 41.3471 29.4549 40 29.4549C38.6528 29.4549 37.3343 29.8437 36.2026 30.5744C35.0709 31.3052 34.1742 32.347 33.6199 33.5749C33.0656 34.8027 32.8774 36.1644 33.0779 37.4965C33.2783 38.8287 33.8589 40.0746 34.75 41.085C31.8775 42.2453 29.471 44.3256 27.9075 47C26.6614 44.8774 26.003 42.4613 26 40C26 36.287 27.475 32.726 30.1005 30.1005C32.726 27.475 36.2869 26 40 26C43.713 26 47.2739 27.475 49.8995 30.1005C52.525 32.726 54 36.287 54 40C53.997 42.4613 53.3386 44.8774 52.0925 47Z" fill="#263238" fill-opacity="0.8"/>
</svg>
