<svg width="47" height="38" viewBox="0 0 47 38" fill="none" xmlns="http://www.w3.org/2000/svg">
<path d="M16.45 19C21.642 19 25.85 14.7465 25.85 9.5C25.85 4.25348 21.642 0 16.45 0C11.258 0 7.05 4.25348 7.05 9.5C7.05 14.7465 11.258 19 16.45 19ZM20.1733 22.5625H12.7267C5.69655 22.5625 0 28.3219 0 35.4246C0 36.8496 1.13975 38 2.54534 38H30.3517C31.7617 38 32.9 36.8496 32.9 35.4246C32.9 28.3219 27.2012 22.5625 20.1733 22.5625ZM35.1839 23.75H29.7605C33.135 26.548 35.25 30.734 35.25 35.4246C35.25 36.3746 34.9709 37.2504 34.5156 38H44.65C45.9498 38 47 36.9313 47 35.5582C47 29.0641 41.7419 23.75 35.1839 23.75ZM31.725 19C36.2708 19 39.95 15.2816 39.95 10.6875C39.95 6.09336 36.2708 2.375 31.725 2.375C29.881 2.375 28.1971 3.00994 26.8252 4.04566C27.6712 5.68738 28.2 7.52578 28.2 9.5C28.2 12.1363 27.3239 14.5573 25.8801 16.5293C27.3702 18.05 29.4337 19 31.725 19Z" fill="#007312"/>
</svg>
