<svg width="55" height="55" viewBox="0 0 55 55" fill="none" xmlns="http://www.w3.org/2000/svg">
<path d="M43.2154 11.2947V40.2679C43.215 40.5133 43.3064 40.75 43.4718 40.9314C43.6371 41.1128 43.8644 41.2256 44.1088 41.2478C44.3532 41.27 44.5971 41.1999 44.7924 41.0512C44.9877 40.9026 45.1203 40.6862 45.164 40.4447L45.1797 40.2679V13.75H47.635C48.4977 13.7501 49.3289 14.0745 49.9635 14.6589C50.5981 15.2433 50.9898 16.0449 51.0608 16.9047L51.0725 17.1875V40.759C51.0727 42.3896 50.4488 43.9584 49.3289 45.1437C48.209 46.329 46.6781 47.0407 45.05 47.1331L44.6886 47.1429H10.3136C8.68299 47.143 7.11413 46.5191 5.92888 45.3992C4.74362 44.2794 4.03183 42.7484 3.93951 41.1204L3.92969 40.759V11.2947C3.92972 10.432 4.25413 9.60084 4.83852 8.96623C5.42292 8.33162 6.22456 7.93995 7.08433 7.86896L7.36719 7.85718H39.7779C40.6406 7.85721 41.4717 8.18162 42.1064 8.76601C42.741 9.35041 43.1326 10.1521 43.2036 11.0118L43.2154 11.2947V40.2679V11.2947ZM19.147 25.5436H14.2422C13.3795 25.5436 12.5483 25.868 11.9137 26.4524C11.2791 27.0368 10.8875 27.8385 10.8165 28.6982L10.8047 28.9811V33.884C10.8047 34.7467 11.1291 35.5778 11.7135 36.2124C12.2979 36.847 13.0996 37.2387 13.9593 37.3097L14.2422 37.3215H19.147C20.01 37.3214 20.8414 36.9967 21.4761 36.4119C22.1107 35.8271 22.5022 35.025 22.5727 34.1649L22.5825 33.884V28.9811C22.583 28.1181 22.2588 27.2864 21.6744 26.6514C21.0899 26.0164 20.288 25.6244 19.4279 25.5534L19.147 25.5436ZM34.8672 34.375H27.9922L27.7918 34.3888C27.4392 34.4373 27.1161 34.6118 26.8822 34.8801C26.6483 35.1484 26.5194 35.4923 26.5194 35.8482C26.5194 36.2042 26.6483 36.5481 26.8822 36.8164C27.1161 37.0847 27.4392 37.2592 27.7918 37.3077L27.9922 37.3215H34.8672L35.0675 37.3077C35.4202 37.2592 35.7433 37.0847 35.9772 36.8164C36.2111 36.5481 36.34 36.2042 36.34 35.8482C36.34 35.4923 36.2111 35.1484 35.9772 34.8801C35.7433 34.6118 35.4202 34.4373 35.0675 34.3888L34.8672 34.375ZM14.2422 28.49H19.147C19.2574 28.4901 19.3645 28.5274 19.4511 28.5958C19.5377 28.6642 19.5987 28.7598 19.6243 28.8672L19.6381 28.9811V33.884C19.6379 33.9946 19.6004 34.1019 19.5316 34.1886C19.4627 34.2752 19.3667 34.3361 19.259 34.3613L19.147 34.375H14.2422C14.1316 34.3748 14.0242 34.3373 13.9376 34.2685C13.851 34.1997 13.7901 34.1036 13.7649 33.9959L13.7511 33.884V28.9811C13.7509 28.8701 13.7882 28.7623 13.857 28.6753C13.9259 28.5883 14.0222 28.5271 14.1302 28.5018L14.2422 28.49H19.147H14.2422ZM34.8672 25.5436H27.9922L27.7918 25.5554C27.4377 25.6023 27.1127 25.7763 26.8773 26.045C26.6419 26.3136 26.5122 26.6586 26.5122 27.0158C26.5122 27.373 26.6419 27.7181 26.8773 27.9867C27.1127 28.2554 27.4377 28.4294 27.7918 28.4763L27.9922 28.49H34.8672L35.0675 28.4763C35.4216 28.4294 35.7466 28.2554 35.982 27.9867C36.2174 27.7181 36.3472 27.373 36.3472 27.0158C36.3472 26.6586 36.2174 26.3136 35.982 26.045C35.7466 25.7763 35.4216 25.6023 35.0675 25.5554L34.8672 25.5436ZM34.8672 16.6906H12.2779L12.0775 16.7043C11.7249 16.7528 11.4018 16.9274 11.1679 17.1957C10.934 17.4639 10.8051 17.8078 10.8051 18.1638C10.8051 18.5197 10.934 18.8636 11.1679 19.1319C11.4018 19.4002 11.7249 19.5747 12.0775 19.6232L12.2779 19.637H34.8672L35.0675 19.6232C35.4202 19.5747 35.7433 19.4002 35.9772 19.1319C36.2111 18.8636 36.34 18.5197 36.34 18.1638C36.34 17.8078 36.2111 17.4639 35.9772 17.1957C35.7433 16.9274 35.4202 16.7528 35.0675 16.7043L34.8672 16.6906Z" fill="#CC0000"/>
</svg>
