<svg width="140" height="140" viewBox="0 0 140 140" fill="none" xmlns="http://www.w3.org/2000/svg">
<g clip-path="url(#clip0_5579_40674)">
<path d="M137.603 129.856L125.341 117.6C127.924 113.657 129.508 109.145 129.957 104.452C130.406 99.76 129.705 95.0289 127.916 90.6678C126.127 86.3067 123.304 82.4467 119.689 79.4211C116.075 76.3955 111.778 74.2953 107.17 73.3019L106.978 73.2669V49.531C106.979 48.1547 106.498 46.8215 105.618 45.7627L105.624 45.7744V45.7452C105.514 45.6114 105.397 45.4829 105.274 45.3602L105.228 45.3077L105.07 45.1502L61.67 1.75021C61.5492 1.62945 61.4227 1.5146 61.2908 1.40604L61.1392 1.30104C61.0444 1.22392 60.9472 1.14999 60.8475 1.07938L60.7017 0.974375L60.3867 0.776042L60.2525 0.706042C60.1203 0.628264 59.9744 0.556319 59.815 0.490208L59.6283 0.414375L59.3308 0.309375L59.1208 0.245208L58.7825 0.157708L58.6192 0.122708C58.4534 0.0884642 58.286 0.06315 58.1175 0.046875H5.92083C4.35544 0.052983 2.85564 0.676348 1.74709 1.78162C0.638544 2.88689 0.0107416 4.38484 0 5.95021L0 124.816C0.00152228 126.388 0.625071 127.896 1.73445 129.009C2.84382 130.123 4.34886 130.753 5.92083 130.76H101.063C106.75 130.77 112.313 129.091 117.046 125.936L116.941 126L129.202 138.262C130.333 139.29 131.816 139.844 133.344 139.807C134.872 139.771 136.327 139.148 137.407 138.067C138.487 136.986 139.11 135.53 139.145 134.002C139.18 132.474 138.626 130.992 137.597 129.862L137.603 129.868V129.856ZM118.207 101.699C118.207 103.953 117.763 106.186 116.901 108.27C116.038 110.353 114.774 112.246 113.18 113.841C111.585 115.435 109.693 116.7 107.61 117.564C105.527 118.427 103.294 118.871 101.039 118.872C98.7843 118.872 96.5515 118.429 94.4681 117.566C92.3848 116.703 90.4917 115.439 88.897 113.845C87.3023 112.251 86.0372 110.358 85.174 108.275C84.3107 106.192 83.8662 103.959 83.8658 101.704C83.8643 97.1505 85.6718 92.7825 88.8908 89.5613C92.1098 86.3402 96.4765 84.5297 101.03 84.5281C105.584 84.5266 109.952 86.3341 113.173 89.5531C116.395 92.7721 118.205 97.1388 118.207 101.693V101.699ZM63.3967 20.2885L86.6892 43.5869H63.3967V20.2885ZM11.8883 11.8885H51.5142V49.531C51.5142 52.8152 54.1742 55.4752 57.4583 55.4752H95.1008V73.2669C81.8125 76.1077 71.9892 87.7511 71.9892 101.693C71.9892 108.162 74.1008 114.135 77.6767 118.959L77.6183 118.884H11.8825L11.8883 11.8885Z" fill="#FF7833"/>
</g>
<defs>
<clipPath id="clip0_5579_40674">
<rect width="140" height="140" fill="white"/>
</clipPath>
</defs>
</svg>
