<svg width="38" height="50" viewBox="0 0 38 50" fill="none" xmlns="http://www.w3.org/2000/svg">
<path d="M23.5 29C23.5 30.1935 23.0259 31.3381 22.182 32.182C21.3381 33.0259 20.1935 33.5 19 33.5C17.8065 33.5 16.6619 33.0259 15.818 32.182C14.9741 31.3381 14.5 30.1935 14.5 29C14.5 27.8065 14.9741 26.6619 15.818 25.818C16.6619 24.9741 17.8065 24.5 19 24.5C20.1935 24.5 21.3381 24.9741 22.182 25.818C23.0259 26.6619 23.5 27.8065 23.5 29V29ZM31 32C31 32.7957 30.6839 33.5587 30.1213 34.1213C29.5587 34.6839 28.7957 35 28 35C27.2044 35 26.4413 34.6839 25.8787 34.1213C25.3161 33.5587 25 32.7957 25 32C25 31.2044 25.3161 30.4413 25.8787 29.8787C26.4413 29.3161 27.2044 29 28 29C28.7957 29 29.5587 29.3161 30.1213 29.8787C30.6839 30.4413 31 31.2044 31 32V32ZM25 42.5C25 40.9087 24.3679 39.3826 23.2426 38.2574C22.1174 37.1321 20.5913 36.5 19 36.5C17.4087 36.5 15.8826 37.1321 14.7574 38.2574C13.6321 39.3826 13 40.9087 13 42.5V47H25V42.5ZM13 32C13 32.7957 12.6839 33.5587 12.1213 34.1213C11.5587 34.6839 10.7957 35 10 35C9.20435 35 8.44129 34.6839 7.87868 34.1213C7.31607 33.5587 7 32.7957 7 32C7 31.2044 7.31607 30.4413 7.87868 29.8787C8.44129 29.3161 9.20435 29 10 29C10.7957 29 11.5587 29.3161 12.1213 29.8787C12.6839 30.4413 13 31.2044 13 32V32ZM28 47V42.5C28.0022 40.9749 27.6149 39.4745 26.875 38.141C27.54 37.9708 28.2351 37.9548 28.9073 38.0941C29.5795 38.2334 30.2109 38.5244 30.7535 38.9449C31.2961 39.3653 31.7355 39.9042 32.0382 40.5203C32.3409 41.1364 32.4988 41.8136 32.5 42.5V47H28ZM11.125 38.141C10.3851 39.4746 9.9979 40.9749 10 42.5V47H5.5V42.5C5.49971 41.8131 5.6567 41.1352 5.95892 40.5183C6.26115 39.9014 6.70059 39.3619 7.24358 38.9411C7.78656 38.5203 8.41867 38.2295 9.09147 38.0908C9.76426 37.9521 10.4599 37.9693 11.125 38.141V38.141Z" fill="#F2994A"/>
<path d="M12.3731 4.33301V5.14701H9.04006V7.73201H11.7461V8.54601H9.04006V12H8.03906V4.33301H12.3731Z" fill="white"/>
<path d="M14.693 6.95101C14.869 6.60634 15.1184 6.33867 15.441 6.14801C15.771 5.95734 16.1707 5.86201 16.64 5.86201V6.89601H16.376C15.254 6.89601 14.693 7.50467 14.693 8.72201V12H13.692V5.97201H14.693V6.95101Z" fill="white"/>
<path d="M23.4055 8.75501C23.4055 8.94567 23.3945 9.14734 23.3725 9.36001H18.5545C18.5912 9.95401 18.7929 10.4197 19.1595 10.757C19.5335 11.087 19.9845 11.252 20.5125 11.252C20.9452 11.252 21.3045 11.153 21.5905 10.955C21.8839 10.7497 22.0892 10.4783 22.2065 10.141H23.2845C23.1232 10.7203 22.8005 11.1933 22.3165 11.56C21.8325 11.9193 21.2312 12.099 20.5125 12.099C19.9405 12.099 19.4272 11.9707 18.9725 11.714C18.5252 11.4573 18.1732 11.0943 17.9165 10.625C17.6599 10.1483 17.5315 9.59834 17.5315 8.97501C17.5315 8.35168 17.6562 7.80534 17.9055 7.33601C18.1549 6.86667 18.5032 6.50734 18.9505 6.25801C19.4052 6.00134 19.9259 5.87301 20.5125 5.87301C21.0845 5.87301 21.5905 5.99767 22.0305 6.24701C22.4705 6.49634 22.8079 6.84101 23.0425 7.28101C23.2845 7.71367 23.4055 8.20501 23.4055 8.75501ZM22.3715 8.54601C22.3715 8.16467 22.2872 7.83834 22.1185 7.56701C21.9499 7.28834 21.7189 7.07934 21.4255 6.94001C21.1395 6.79334 20.8205 6.72001 20.4685 6.72001C19.9625 6.72001 19.5299 6.88134 19.1705 7.20401C18.8185 7.52667 18.6169 7.97401 18.5655 8.54601H22.3715Z" fill="white"/>
<path d="M30.3368 8.75501C30.3368 8.94567 30.3258 9.14734 30.3038 9.36001H25.4858C25.5225 9.95401 25.7242 10.4197 26.0908 10.757C26.4648 11.087 26.9158 11.252 27.4438 11.252C27.8765 11.252 28.2358 11.153 28.5218 10.955C28.8152 10.7497 29.0205 10.4783 29.1378 10.141H30.2158C30.0545 10.7203 29.7318 11.1933 29.2478 11.56C28.7638 11.9193 28.1625 12.099 27.4438 12.099C26.8718 12.099 26.3585 11.9707 25.9038 11.714C25.4565 11.4573 25.1045 11.0943 24.8478 10.625C24.5912 10.1483 24.4628 9.59834 24.4628 8.97501C24.4628 8.35168 24.5875 7.80534 24.8368 7.33601C25.0862 6.86667 25.4345 6.50734 25.8818 6.25801C26.3365 6.00134 26.8572 5.87301 27.4438 5.87301C28.0158 5.87301 28.5218 5.99767 28.9618 6.24701C29.4018 6.49634 29.7392 6.84101 29.9738 7.28101C30.2158 7.71367 30.3368 8.20501 30.3368 8.75501ZM29.3028 8.54601C29.3028 8.16467 29.2185 7.83834 29.0498 7.56701C28.8812 7.28834 28.6502 7.07934 28.3568 6.94001C28.0708 6.79334 27.7518 6.72001 27.3998 6.72001C26.8938 6.72001 26.4612 6.88134 26.1018 7.20401C25.7498 7.52667 25.5482 7.97401 25.4968 8.54601H29.3028Z" fill="white"/>
<path fill-rule="evenodd" clip-rule="evenodd" d="M13.334 8V9.639H15.654V9.64352C15.9583 9.56459 16.2762 9.529 16.601 9.529H17.601V10.6811C17.8399 10.4355 18.114 10.225 18.4223 10.0528C19.0441 9.70235 19.7372 9.54 20.4735 9.54C21.1953 9.54 21.8753 9.69877 22.4845 10.044C23.0842 10.3838 23.556 10.8629 23.8812 11.4687C23.8929 11.4897 23.9043 11.5109 23.9156 11.5321C24.2513 10.901 24.7331 10.3993 25.3535 10.0528C25.9754 9.70235 26.6685 9.54 27.4048 9.54C28.1265 9.54 28.8066 9.69877 29.4158 10.044C30.0155 10.3838 30.4873 10.8629 30.8124 11.4687C31.1434 12.064 31.2978 12.7236 31.2978 13.422C31.2978 13.5485 31.2937 13.6772 31.2859 13.808H31.4933L31.1742 14.9538L31.1667 15.027H31.1538L31.1401 15.0763C30.9195 15.8687 30.4693 16.5266 29.8126 17.0241L29.8049 17.0299C29.1173 17.5405 28.2957 17.766 27.4048 17.766C26.6774 17.766 25.9919 17.6011 25.3732 17.2518L25.3671 17.2484C24.7561 16.8978 24.2768 16.4004 23.9354 15.7791C23.6866 16.2643 23.3328 16.6821 22.8813 17.0241L22.8736 17.0299C22.186 17.5405 21.3644 17.766 20.4735 17.766C19.7461 17.766 19.0606 17.6011 18.4419 17.2518L18.4358 17.2484C17.8225 16.8965 17.3418 16.3965 17.0001 15.7718L16.997 15.7661C16.6507 15.123 16.4925 14.4056 16.4925 13.642C16.4925 13.2701 16.5291 12.9093 16.6064 12.563H16.337C15.952 12.563 15.841 12.6636 15.81 12.6972C15.7649 12.7462 15.654 12.9152 15.654 13.389V17.667H12.653V14.213H10.001V17.667H7V8H13.334ZM9.001 13.213H11.707V12.399H9.001V9.814H12.334V9H8V16.667H9L9.001 13.213ZM10.001 10.814V11.399H12.653V10.814H10.001ZM30.1768 14.808C30.156 14.8828 30.1324 14.9558 30.1062 15.027C30.0593 15.1547 30.0037 15.2767 29.9395 15.393C29.858 15.5405 29.7626 15.6788 29.6534 15.808C29.5245 15.9604 29.3763 16.1001 29.2088 16.227C29.1423 16.2763 29.0737 16.3223 29.0028 16.3649L28.9987 16.3673C28.5542 16.6331 28.0229 16.766 27.4048 16.766C26.8328 16.766 26.3194 16.6377 25.8648 16.381C25.7192 16.2975 25.5837 16.2027 25.4583 16.0966C25.4536 16.0926 25.4488 16.0886 25.4441 16.0845C25.1905 15.867 24.9787 15.6028 24.8088 15.292C24.6335 14.9665 24.5181 14.6069 24.4625 14.213C24.461 14.2024 24.4596 14.1917 24.4581 14.181C24.4556 14.1621 24.4532 14.143 24.451 14.1239C24.439 14.0209 24.4309 13.9156 24.4269 13.808C24.4254 13.7687 24.4244 13.7291 24.424 13.6892C24.4239 13.6735 24.4238 13.6578 24.4238 13.642C24.4238 13.6053 24.4242 13.5688 24.4251 13.5326C24.4293 13.3578 24.4435 13.1893 24.4679 13.027C24.473 12.9926 24.4787 12.9586 24.4847 12.9248C24.5448 12.5901 24.6491 12.2829 24.7978 12.003C24.9676 11.6833 25.1833 11.4147 25.445 11.1971C25.4474 11.1951 25.4498 11.1931 25.4523 11.1911C25.5728 11.0916 25.7029 11.0029 25.8428 10.925C26.286 10.6748 26.792 10.5465 27.3608 10.5402C27.3754 10.5401 27.3901 10.54 27.4048 10.54C27.8828 10.54 28.3147 10.6271 28.7005 10.8012C28.7088 10.8049 28.717 10.8087 28.7252 10.8125C28.7925 10.8436 28.8583 10.8775 28.9228 10.914C29.2899 11.1221 29.5856 11.3965 29.8098 11.7373C29.8118 11.7404 29.8139 11.7436 29.8159 11.7467C29.8581 11.8114 29.8977 11.8785 29.9348 11.948C30.074 12.1969 30.1732 12.4653 30.2323 12.753C30.276 12.9654 30.2978 13.1884 30.2978 13.422C30.2978 13.546 30.2931 13.6747 30.2838 13.808C30.2788 13.8797 30.2725 13.9527 30.2648 14.027H25.4468L25.447 14.0307C25.4497 14.0739 25.4533 14.1164 25.4578 14.1582C25.4597 14.1766 25.4619 14.1949 25.4642 14.213C25.4934 14.4435 25.55 14.6528 25.6339 14.8408C25.6347 14.8426 25.6356 14.8445 25.6364 14.8464C25.6646 14.9089 25.6957 14.9692 25.73 15.027C25.8174 15.1747 25.9247 15.3071 26.0518 15.424C26.1309 15.4938 26.2134 15.5562 26.2993 15.6112C26.3011 15.6123 26.3028 15.6134 26.3046 15.6145C26.6239 15.8175 26.9907 15.919 27.4048 15.919C27.8374 15.919 28.1968 15.82 28.4828 15.622C28.5421 15.5805 28.5978 15.5363 28.6499 15.4893C28.6522 15.4873 28.6544 15.4853 28.6566 15.4833C28.8008 15.3521 28.9171 15.2 29.0055 15.027C29.0202 14.9984 29.034 14.9692 29.0472 14.9394C29.0659 14.8968 29.0831 14.853 29.0988 14.808H30.1768ZM25.4578 13.213C25.4617 13.1691 25.4665 13.126 25.4722 13.0836C25.4748 13.0646 25.4775 13.0457 25.4804 13.027C25.5131 12.8172 25.5681 12.626 25.6454 12.4533C25.6832 12.3688 25.7264 12.2887 25.7749 12.213C25.8559 12.0866 25.9519 11.9726 26.0628 11.871C26.1314 11.8093 26.2028 11.7536 26.2768 11.7037L26.2808 11.701C26.5932 11.4917 26.9532 11.387 27.3608 11.387C27.3755 11.387 27.3902 11.3871 27.4048 11.3874C27.7394 11.3933 28.0437 11.4665 28.3178 11.607C28.3742 11.6338 28.4283 11.6632 28.4801 11.6951C28.6909 11.8251 28.8634 11.9977 28.9979 12.213C29.0022 12.22 29.0065 12.227 29.0108 12.234C29.0428 12.2855 29.0718 12.339 29.0977 12.3944C29.1004 12.4002 29.103 12.406 29.1057 12.4117C29.1761 12.5672 29.223 12.7381 29.2464 12.9243C29.2506 12.958 29.2541 12.9922 29.2568 13.027C29.2614 13.0875 29.2638 13.1495 29.2638 13.213H25.4578ZM23.3525 13.808C23.3618 13.6747 23.3665 13.546 23.3665 13.422C23.3665 13.1884 23.3447 12.9654 23.301 12.753C23.2419 12.4653 23.1427 12.1969 23.0035 11.948C22.9664 11.8785 22.9268 11.8114 22.8846 11.7467C22.8826 11.7436 22.8805 11.7404 22.8785 11.7373C22.6543 11.3965 22.3586 11.1221 21.9915 10.914C21.927 10.8775 21.8612 10.8436 21.7939 10.8125C21.7857 10.8087 21.7775 10.8049 21.7692 10.8012C21.3834 10.6271 20.9515 10.54 20.4735 10.54C20.4588 10.54 20.4441 10.5401 20.4295 10.5402C19.8608 10.5465 19.3548 10.6748 18.9115 10.925C18.7716 11.0029 18.6415 11.0916 18.521 11.1911C18.5185 11.1931 18.5161 11.1951 18.5137 11.1971C18.2521 11.4147 18.0363 11.6833 17.8665 12.003C17.7178 12.2828 17.6135 12.5899 17.5535 12.9244C17.5474 12.9584 17.5418 12.9925 17.5366 13.027C17.5122 13.1893 17.498 13.3578 17.4938 13.5326C17.4929 13.5688 17.4925 13.6053 17.4925 13.642C17.4925 13.6578 17.4926 13.6735 17.4927 13.6892C17.4943 13.8382 17.5033 13.983 17.5197 14.1235C17.5232 14.1536 17.527 14.1834 17.5312 14.213C17.5868 14.6069 17.7022 14.9665 17.8775 15.292C18.0475 15.6028 18.2592 15.867 18.5128 16.0845C18.5175 16.0886 18.5223 16.0926 18.527 16.0966C18.6524 16.2027 18.7879 16.2975 18.9335 16.381C19.3882 16.6377 19.9015 16.766 20.4735 16.766C21.0916 16.766 21.6229 16.6331 22.0674 16.3673L22.0715 16.3649C22.1424 16.3223 22.211 16.2763 22.2775 16.227C22.445 16.1001 22.5932 15.9604 22.7221 15.808C22.8314 15.6788 22.9267 15.5405 23.0082 15.393C23.0724 15.2767 23.128 15.1547 23.175 15.027C23.2012 14.9558 23.2247 14.8828 23.2455 14.808H22.1675C22.1518 14.853 22.1346 14.8968 22.1159 14.9394C22.1028 14.9692 22.0889 14.9984 22.0742 15.027C21.9858 15.2 21.8695 15.3521 21.7253 15.4833C21.7231 15.4853 21.7209 15.4873 21.7186 15.4893C21.6665 15.5363 21.6108 15.5805 21.5515 15.622C21.2655 15.82 20.9062 15.919 20.4735 15.919C20.0594 15.919 19.6926 15.8175 19.3733 15.6145C19.3715 15.6134 19.3698 15.6123 19.3681 15.6112C19.2821 15.5562 19.1996 15.4938 19.1205 15.424C18.9934 15.3071 18.8861 15.1747 18.7987 15.027C18.7645 14.9692 18.7333 14.9089 18.7051 14.8464C18.7043 14.8445 18.7034 14.8426 18.7026 14.8408C18.6187 14.6528 18.5621 14.4435 18.5329 14.213C18.5306 14.1949 18.5285 14.1766 18.5265 14.1582C18.522 14.1164 18.5184 14.0739 18.5157 14.0307L18.5155 14.027H23.3325C23.3402 13.9527 23.3475 13.8797 23.3525 13.808ZM22.0666 12.213C21.9321 11.9977 21.7596 11.8251 21.5488 11.6951C21.497 11.6632 21.4429 11.6338 21.3865 11.607C21.1124 11.4665 20.8081 11.3933 20.4735 11.3874C20.4589 11.3871 20.4442 11.387 20.4295 11.387C20.0219 11.387 19.6619 11.4917 19.3495 11.701L19.3455 11.7037C19.2715 11.7536 19.2001 11.8093 19.1315 11.871C19.0206 11.9726 18.9247 12.0866 18.8436 12.213C18.7951 12.2887 18.7519 12.3688 18.7141 12.4533C18.6368 12.626 18.5818 12.8172 18.5492 13.027C18.5462 13.0457 18.5435 13.0646 18.5409 13.0836C18.5352 13.126 18.5304 13.1691 18.5265 13.213H22.3325C22.3325 13.1495 22.3301 13.0875 22.3255 13.027C22.3228 12.9922 22.3193 12.958 22.3151 12.9243C22.2917 12.7381 22.2448 12.5672 22.1744 12.4117C22.1718 12.406 22.1691 12.4002 22.1664 12.3944C22.1405 12.339 22.1115 12.2855 22.0795 12.234C22.0752 12.227 22.0709 12.22 22.0666 12.213ZM14.654 10.639H13.654L13.653 16.667H14.653L14.654 13.389C14.654 12.7472 14.8099 12.2745 15.1218 11.9711C15.1479 11.9457 15.1751 11.9215 15.2033 11.8985C15.3795 11.7551 15.5981 11.6577 15.8591 11.6062C15.8622 11.6056 15.8653 11.605 15.8684 11.6044C15.9769 11.5835 16.0926 11.5705 16.2156 11.5655C16.2553 11.5638 16.2958 11.563 16.337 11.563H16.601V10.529C16.4219 10.529 16.2531 10.5429 16.0943 10.5706C15.9377 10.598 15.7909 10.6389 15.654 10.6933C15.6361 10.7003 15.6185 10.7077 15.601 10.7152C15.532 10.7449 15.4657 10.7782 15.402 10.815C15.0793 11.0057 14.83 11.2733 14.654 11.618V10.639Z" fill="#F2994A"/>
</svg>
