<svg width="38" height="38" viewBox="0 0 38 38" fill="none" xmlns="http://www.w3.org/2000/svg">
<path d="M24.6984 11.4002C24.6984 12.9119 24.0979 14.3617 23.0289 15.4307C21.96 16.4997 20.5102 17.1002 18.9984 17.1002C17.4867 17.1002 16.0369 16.4997 14.9679 15.4307C13.899 14.3617 13.2984 12.9119 13.2984 11.4002C13.2984 9.88846 13.899 8.43864 14.9679 7.36969C16.0369 6.30073 17.4867 5.7002 18.9984 5.7002C20.5102 5.7002 21.96 6.30073 23.0289 7.36969C24.0979 8.43864 24.6984 9.88846 24.6984 11.4002V11.4002ZM34.1984 15.2002C34.1984 16.208 33.7981 17.1746 33.0854 17.8872C32.3728 18.5998 31.4063 19.0002 30.3984 19.0002C29.3906 19.0002 28.4241 18.5998 27.7114 17.8872C26.9988 17.1746 26.5984 16.208 26.5984 15.2002C26.5984 14.1924 26.9988 13.2258 27.7114 12.5132C28.4241 11.8006 29.3906 11.4002 30.3984 11.4002C31.4063 11.4002 32.3728 11.8006 33.0854 12.5132C33.7981 13.2258 34.1984 14.1924 34.1984 15.2002V15.2002ZM26.5984 28.5002C26.5984 26.4845 25.7977 24.5515 24.3725 23.1262C22.9472 21.7009 21.0141 20.9002 18.9984 20.9002C16.9828 20.9002 15.0497 21.7009 13.6244 23.1262C12.1992 24.5515 11.3984 26.4845 11.3984 28.5002V34.2002H26.5984V28.5002ZM11.3984 15.2002C11.3984 16.208 10.9981 17.1746 10.2854 17.8872C9.57281 18.5998 8.60626 19.0002 7.59844 19.0002C6.59062 19.0002 5.62407 18.5998 4.91143 17.8872C4.19879 17.1746 3.79844 16.208 3.79844 15.2002C3.79844 14.1924 4.19879 13.2258 4.91143 12.5132C5.62407 11.8006 6.59062 11.4002 7.59844 11.4002C8.60626 11.4002 9.57281 11.8006 10.2854 12.5132C10.9981 13.2258 11.3984 14.1924 11.3984 15.2002V15.2002ZM30.3984 34.2002V28.5002C30.4012 26.5684 29.9107 24.668 28.9734 22.9788C29.8158 22.7632 30.6963 22.7429 31.5477 22.9194C32.3991 23.0958 33.1989 23.4644 33.8862 23.997C34.5735 24.5296 35.1301 25.2122 35.5135 25.9926C35.8969 26.773 36.0969 27.6307 36.0984 28.5002V34.2002H30.3984ZM9.02344 22.9788C8.08626 24.668 7.59578 26.5684 7.59844 28.5002V34.2002H1.89844V28.5002C1.89807 27.6301 2.09692 26.7714 2.47974 25.99C2.86256 25.2086 3.41919 24.5253 4.10697 23.9923C4.79475 23.4593 5.59542 23.0909 6.44763 22.9152C7.29983 22.7395 8.18095 22.7613 9.02344 22.9788V22.9788Z" fill="#F2994A"/>
</svg>
