<svg width="50" height="48" viewBox="0 0 50 48" fill="none" xmlns="http://www.w3.org/2000/svg">
<path fill-rule="evenodd" clip-rule="evenodd" d="M37.2034 40.834C41.1055 40.834 44.2701 37.798 44.2721 34.052V34.048V28.648C41.6951 28.648 39.6076 26.644 39.6055 24.17C39.6055 21.698 41.693 19.692 44.2701 19.692H44.2721V14.292C44.2763 10.544 41.1159 7.504 37.2138 7.5H37.2013H12.8013C8.89714 7.5 5.73255 10.536 5.73047 14.284V14.286V19.866C8.21797 19.782 10.3034 21.65 10.3909 24.038C10.393 24.082 10.3951 24.126 10.3951 24.17C10.3971 26.64 8.31589 28.644 5.74297 28.648H5.73047V34.048C5.72839 37.794 8.89297 40.834 12.7951 40.834H12.7971H37.2034Z" stroke="white" stroke-width="3" stroke-linecap="round" stroke-linejoin="round"/>
<path fill-rule="evenodd" clip-rule="evenodd" d="M25.7748 18.1261L27.0581 20.6201C27.1831 20.8641 27.4248 21.0341 27.706 21.0741L30.5748 21.4761C31.2852 21.5761 31.5664 22.4121 31.0539 22.8901L28.9789 24.8301C28.7748 25.0201 28.6831 25.2941 28.7289 25.5641L29.2185 28.3041C29.3394 28.9821 28.5998 29.4981 27.9664 29.1781L25.4019 27.8841C25.1498 27.7561 24.8498 27.7561 24.5977 27.8841L22.0352 29.1781C21.3998 29.4981 20.6602 28.9821 20.781 28.3041L21.2706 25.5641C21.3185 25.2941 21.2248 25.0201 21.0206 24.8301L18.9477 22.8901C18.4352 22.4121 18.7164 21.5761 19.4248 21.4761L22.2935 21.0741C22.5748 21.0341 22.8185 20.8641 22.9435 20.6201L24.2248 18.1261C24.5414 17.5101 25.4581 17.5101 25.7748 18.1261Z" fill="white" stroke="white" stroke-width="1.5" stroke-linecap="round" stroke-linejoin="round"/>
</svg>
