<svg width="38" height="38" viewBox="0 0 38 38" fill="none" xmlns="http://www.w3.org/2000/svg">
<path d="M30.5 21.8333V9.16667C30.5 7.425 29.075 6 27.3333 6H5.16667C3.425 6 2 7.425 2 9.16667V21.8333C2 23.575 3.425 25 5.16667 25H27.3333C29.075 25 30.5 23.575 30.5 21.8333ZM16.25 20.25C13.6217 20.25 11.5 18.1283 11.5 15.5C11.5 12.8717 13.6217 10.75 16.25 10.75C18.8783 10.75 21 12.8717 21 15.5C21 18.1283 18.8783 20.25 16.25 20.25ZM36.8333 10.75V28.1667C36.8333 29.9083 35.4083 31.3333 33.6667 31.3333H6.75V28.1667H33.6667V10.75H36.8333Z" fill="#F2994A"/>
</svg>
