<svg width="38" height="40" viewBox="0 0 38 40" fill="none" xmlns="http://www.w3.org/2000/svg">
<path d="M15.5182 26.6667V25H4.45073L4.4349 31.6667C4.4349 33.5167 5.84406 35 7.60156 35H29.7682C31.5257 35 32.9349 33.5167 32.9349 31.6667V25H21.8516V26.6667H15.5182ZM31.3516 11.6667H25.0024V8.33333L21.8357 5H15.5024L12.3357 8.33333V11.6667H6.01823C4.27656 11.6667 2.85156 13.1667 2.85156 15V20C2.85156 21.85 4.26073 23.3333 6.01823 23.3333H15.5182V20H21.8516V23.3333H31.3516C33.0932 23.3333 34.5182 21.8333 34.5182 20V15C34.5182 13.1667 33.0932 11.6667 31.3516 11.6667ZM21.8516 11.6667H15.5182V8.33333H21.8516V11.6667Z" fill="#F2994A"/>
</svg>
