<svg width="97" height="95" viewBox="0 0 97 95" fill="none" xmlns="http://www.w3.org/2000/svg">
<g clip-path="url(#clip0_1971:29737)">
<path d="M61.5796 21.3657H35.4423C34.8467 21.3664 34.2757 21.6041 33.8545 22.0267C33.4333 22.4493 33.1964 23.0222 33.1957 23.6198V81.904L32.8961 81.9957L26.4842 83.9658C26.1804 84.0587 25.8521 84.0269 25.5716 83.8773C25.2911 83.7277 25.0812 83.4725 24.988 83.1678L5.91556 20.6609C5.82275 20.356 5.85438 20.0266 6.00352 19.7451C6.15265 19.4636 6.40707 19.253 6.71088 19.1596L16.5916 16.1241L45.2361 7.32696L55.1168 4.2914C55.2672 4.24496 55.4252 4.22874 55.5818 4.24365C55.7384 4.25856 55.8906 4.30431 56.0296 4.37829C56.1685 4.45227 56.2916 4.55302 56.3918 4.67477C56.4919 4.79653 56.5671 4.9369 56.6131 5.08786L61.4883 21.0651L61.5796 21.3657Z" fill="#F2F2F2"/>
<path d="M67.2832 21.0654L61.4075 1.80912C61.3097 1.48827 61.1499 1.1899 60.9372 0.931044C60.7244 0.672191 60.463 0.457934 60.1677 0.300514C59.8724 0.143095 59.5491 0.0455971 59.2162 0.0135962C58.8833 -0.0184047 58.5474 0.0157183 58.2277 0.114012L44.3361 4.38032L15.693 13.1789L1.80137 17.4467C1.15604 17.6456 0.615692 18.0932 0.298937 18.6913C-0.0178167 19.2894 -0.0850997 19.9892 0.11186 20.6371L20.1938 86.4471C20.3538 86.97 20.6766 87.4278 21.1149 87.7532C21.5532 88.0785 22.0839 88.2544 22.6292 88.2549C22.8815 88.255 23.1324 88.217 23.3735 88.1422L32.8962 85.2178L33.1958 85.1247V84.8106L32.8962 84.9023L23.2852 87.8552C22.7155 88.0294 22.1003 87.9698 21.5744 87.6895C21.0485 87.4092 20.6549 86.931 20.4799 86.3599L0.39949 20.5484C0.312784 20.2654 0.282564 19.9681 0.310561 19.6734C0.338558 19.3787 0.424219 19.0924 0.562644 18.8309C0.70107 18.5695 0.88954 18.338 1.11726 18.1497C1.34498 17.9615 1.60747 17.8201 1.88971 17.7338L15.7814 13.466L44.4245 4.66885L58.3161 0.40104C58.5302 0.33549 58.7528 0.302067 58.9766 0.301858C59.457 0.30294 59.9243 0.458318 60.3103 0.745234C60.6963 1.03215 60.9805 1.43552 61.1214 1.89628L66.9701 21.0654L67.063 21.3659H67.3746L67.2832 21.0654Z" fill="#3F3D56"/>
<path d="M18.3747 19.2075C18.086 19.2073 17.805 19.1143 17.5729 18.9421C17.3408 18.7699 17.1697 18.5276 17.0849 18.2507L15.1558 11.9284C15.1039 11.7586 15.0859 11.5802 15.1028 11.4034C15.1197 11.2265 15.1712 11.0548 15.2542 10.898C15.3373 10.7411 15.4503 10.6022 15.5869 10.4892C15.7234 10.3762 15.8808 10.2912 16.0501 10.2393L42.4014 2.14488C42.7433 2.04022 43.1126 2.07592 43.4282 2.24413C43.7438 2.41235 43.9801 2.69935 44.085 3.04213L46.0142 9.36455C46.1184 9.70753 46.0828 10.078 45.9152 10.3947C45.7475 10.7114 45.4615 10.9484 45.1199 11.0537L18.7685 19.1481C18.6409 19.1874 18.5082 19.2074 18.3747 19.2075Z" fill="black" fill-opacity="0.4"/>
<path d="M28.4809 6.75515C30.1352 6.75515 31.4764 5.40954 31.4764 3.74964C31.4764 2.08975 30.1352 0.744141 28.4809 0.744141C26.8265 0.744141 25.4854 2.08975 25.4854 3.74964C25.4854 5.40954 26.8265 6.75515 28.4809 6.75515Z" fill="black" fill-opacity="0.4"/>
<path d="M28.4799 5.65206C29.5275 5.65206 30.3767 4.79998 30.3767 3.74888C30.3767 2.69779 29.5275 1.8457 28.4799 1.8457C27.4323 1.8457 26.583 2.69779 26.583 3.74888C26.583 4.79998 27.4323 5.65206 28.4799 5.65206Z" fill="white"/>
<path d="M90.2605 87.4864H39.6364C39.2988 87.486 38.9753 87.3513 38.7366 87.1119C38.4979 86.8724 38.3637 86.5477 38.3633 86.2091V25.3477C38.3637 25.009 38.4979 24.6843 38.7366 24.4449C38.9752 24.2054 39.2988 24.0707 39.6364 24.0703H90.2605C90.598 24.0707 90.9216 24.2054 91.1602 24.4449C91.3989 24.6843 91.5332 25.009 91.5336 25.3477V86.2091C91.5332 86.5477 91.3989 86.8724 91.1602 87.1119C90.9216 87.3513 90.598 87.486 90.2605 87.4864Z" fill="#E6E6E6"/>
<path d="M66.9704 21.0645H35.4427C34.7677 21.0654 34.1206 21.3349 33.6433 21.8138C33.166 22.2926 32.8974 22.9419 32.8965 23.6191V84.9013L33.196 84.8096V23.6191C33.1968 23.0215 33.4337 22.4486 33.8549 22.026C34.276 21.6035 34.847 21.3657 35.4427 21.365H67.0633L66.9704 21.0645ZM94.4542 21.0645H35.4427C34.7677 21.0654 34.1206 21.3349 33.6433 21.8138C33.166 22.2926 32.8974 22.9419 32.8965 23.6191V92.4451C32.8974 93.1224 33.166 93.7716 33.6433 94.2505C34.1206 94.7294 34.7677 94.9988 35.4427 94.9998H94.4542C95.1292 94.9988 95.7763 94.7294 96.2536 94.2505C96.7309 93.7716 96.9994 93.1224 97.0004 92.4451V23.6191C96.9994 22.9419 96.7309 22.2926 96.2536 21.8138C95.7763 21.3349 95.1292 21.0654 94.4542 21.0645ZM96.7008 92.4451C96.7001 93.0427 96.4632 93.6157 96.042 94.0382C95.6208 94.4608 95.0498 94.6985 94.4542 94.6992H35.4427C34.847 94.6985 34.276 94.4608 33.8549 94.0382C33.4337 93.6157 33.1968 93.0427 33.196 92.4451V23.6191C33.1968 23.0215 33.4337 22.4486 33.8549 22.026C34.276 21.6035 34.847 21.3657 35.4427 21.365H94.4542C95.0498 21.3657 95.6208 21.6035 96.042 22.026C96.4632 22.4486 96.7001 23.0215 96.7008 23.6191V92.4451Z" fill="#3F3D56"/>
<path d="M78.727 27.6764H51.1683C50.8109 27.676 50.4683 27.5334 50.2156 27.2799C49.9629 27.0263 49.8207 26.6825 49.8203 26.324V19.7119C49.8207 19.3533 49.9629 19.0095 50.2156 18.756C50.4683 18.5024 50.8109 18.3598 51.1683 18.3594H78.727C79.0844 18.3598 79.427 18.5024 79.6797 18.756C79.9324 19.0095 80.0746 19.3533 80.075 19.7119V26.324C80.0746 26.6825 79.9324 27.0263 79.6797 27.2799C79.427 27.5334 79.0844 27.676 78.727 27.6764Z" fill="black" fill-opacity="0.4"/>
<path d="M64.9477 18.8118C66.602 18.8118 67.9432 17.4662 67.9432 15.8063C67.9432 14.1464 66.602 12.8008 64.9477 12.8008C63.2933 12.8008 61.9521 14.1464 61.9521 15.8063C61.9521 17.4662 63.2933 18.8118 64.9477 18.8118Z" fill="black" fill-opacity="0.4"/>
<path d="M64.9476 17.6359C65.9553 17.6359 66.7722 16.8163 66.7722 15.8052C66.7722 14.7942 65.9553 13.9746 64.9476 13.9746C63.9399 13.9746 63.123 14.7942 63.123 15.8052C63.123 16.8163 63.9399 17.6359 64.9476 17.6359Z" fill="white"/>
</g>
<defs>
<clipPath id="clip0_1971:29737">
<rect width="97" height="95" fill="white"/>
</clipPath>
</defs>
</svg>
