<svg width="30" height="30" viewBox="0 0 30 30" fill="none" xmlns="http://www.w3.org/2000/svg">
<g id="Iconly/Light/Edit Square">
<g id="Edit Square">
<path id="Stroke 1" d="M14.3654 3.48633H9.69162C5.84787 3.48633 3.43787 6.20758 3.43787 10.0601V20.4526C3.43787 24.3051 5.83662 27.0263 9.69162 27.0263H20.7216C24.5779 27.0263 26.9766 24.3051 26.9766 20.4526V15.4176" stroke="black" stroke-opacity="0.6" stroke-width="2" stroke-linecap="round" stroke-linejoin="round"/>
<path id="Stroke 3" fill-rule="evenodd" clip-rule="evenodd" d="M11.0348 13.6516L20.376 4.31035C21.5398 3.14785 23.426 3.14785 24.5898 4.31035L26.111 5.8316C27.2748 6.99535 27.2748 8.88285 26.111 10.0454L16.7248 19.4316C16.216 19.9404 15.526 20.2266 14.806 20.2266H10.1235L10.241 15.5016C10.2585 14.8066 10.5423 14.1441 11.0348 13.6516Z" stroke="black" stroke-opacity="0.6" stroke-width="2" stroke-linecap="round" stroke-linejoin="round"/>
<path id="Stroke 5" d="M18.9565 5.75391L24.664 11.4614" stroke="black" stroke-opacity="0.6" stroke-width="2" stroke-linecap="round" stroke-linejoin="round"/>
</g>
</g>
</svg>
