<svg width="60" height="60" viewBox="0 0 60 60" fill="none" xmlns="http://www.w3.org/2000/svg">
<mask id="mask0_3732_36702" style="mask-type:alpha" maskUnits="userSpaceOnUse" x="7" y="5" width="44" height="50">
<path fill-rule="evenodd" clip-rule="evenodd" d="M7.5 5.0293H50.1318V54.663H7.5V5.0293Z" fill="white"/>
</mask>
<g mask="url(#mask0_3732_36702)">
<path fill-rule="evenodd" clip-rule="evenodd" d="M18.9328 8.7793C14.7903 8.7793 11.3503 12.1343 11.2528 16.2718V43.0093C11.1603 47.2918 14.5353 50.8193 18.7753 50.9143H38.9353C43.1078 50.7418 46.4128 47.2743 46.3828 43.0243V20.8493L34.7953 8.7793H18.9628H18.9328ZM18.9628 54.6643H18.6903C12.3853 54.5218 7.36526 49.2768 7.50276 42.9693V16.2268C7.64776 10.0243 12.7703 5.0293 18.9278 5.0293H18.9703H35.5953C36.1053 5.0293 36.5928 5.2368 36.9478 5.6043L49.6103 18.7968C49.9453 19.1443 50.1328 19.6118 50.1328 20.0943V43.0093C50.1778 49.2818 45.2928 54.4068 39.0103 54.6618L18.9628 54.6643Z" fill="#414643"/>
</g>
<path fill-rule="evenodd" clip-rule="evenodd" d="M48.245 22.461H41.3575C36.7825 22.4485 33.0625 18.7185 33.0625 14.1485V6.87598C33.0625 5.84098 33.9025 5.00098 34.9375 5.00098C35.9725 5.00098 36.8125 5.84098 36.8125 6.87598V14.1485C36.8125 16.6585 38.855 18.7035 41.3625 18.711H48.245C49.28 18.711 50.12 19.551 50.12 20.586C50.12 21.621 49.28 22.461 48.245 22.461Z" fill="#414643"/>
<path fill-rule="evenodd" clip-rule="evenodd" d="M34.4707 40.2715H20.9707C19.9357 40.2715 19.0957 39.4315 19.0957 38.3965C19.0957 37.3615 19.9357 36.5215 20.9707 36.5215H34.4707C35.5057 36.5215 36.3457 37.3615 36.3457 38.3965C36.3457 39.4315 35.5057 40.2715 34.4707 40.2715Z" fill="#FFB536"/>
<path fill-rule="evenodd" clip-rule="evenodd" d="M29.3587 30.8916H20.9688C19.9337 30.8916 19.0938 30.0516 19.0938 29.0166C19.0938 27.9816 19.9337 27.1416 20.9688 27.1416H29.3587C30.3938 27.1416 31.2337 27.9816 31.2337 29.0166C31.2337 30.0516 30.3938 30.8916 29.3587 30.8916Z" fill="#FFB536"/>
</svg>
