<svg width="30" height="30" viewBox="0 0 30 30" fill="none" xmlns="http://www.w3.org/2000/svg">
<path d="M7.5 16.25H2.5C2.16848 16.25 1.85054 16.3817 1.61612 16.6161C1.3817 16.8505 1.25 17.1685 1.25 17.5V27.5C1.25 27.8315 1.3817 28.1495 1.61612 28.3839C1.85054 28.6183 2.16848 28.75 2.5 28.75H7.5C7.83152 28.75 8.14946 28.6183 8.38388 28.3839C8.6183 28.1495 8.75 27.8315 8.75 27.5V17.5C8.75 17.1685 8.6183 16.8505 8.38388 16.6161C8.14946 16.3817 7.83152 16.25 7.5 16.25ZM6.25 26.25H3.75V18.75H6.25V26.25ZM27.5 11.25H22.5C22.1685 11.25 21.8505 11.3817 21.6161 11.6161C21.3817 11.8505 21.25 12.1685 21.25 12.5V27.5C21.25 27.8315 21.3817 28.1495 21.6161 28.3839C21.8505 28.6183 22.1685 28.75 22.5 28.75H27.5C27.8315 28.75 28.1495 28.6183 28.3839 28.3839C28.6183 28.1495 28.75 27.8315 28.75 27.5V12.5C28.75 12.1685 28.6183 11.8505 28.3839 11.6161C28.1495 11.3817 27.8315 11.25 27.5 11.25ZM26.25 26.25H23.75V13.75H26.25V26.25ZM17.5 1.25H12.5C12.1685 1.25 11.8505 1.3817 11.6161 1.61612C11.3817 1.85054 11.25 2.16848 11.25 2.5V27.5C11.25 27.8315 11.3817 28.1495 11.6161 28.3839C11.8505 28.6183 12.1685 28.75 12.5 28.75H17.5C17.8315 28.75 18.1495 28.6183 18.3839 28.3839C18.6183 28.1495 18.75 27.8315 18.75 27.5V2.5C18.75 2.16848 18.6183 1.85054 18.3839 1.61612C18.1495 1.3817 17.8315 1.25 17.5 1.25ZM16.25 26.25H13.75V3.75H16.25V26.25Z" fill="black" fill-opacity="0.7"/>
</svg>
