<svg width="30" height="30" viewBox="0 0 30 30" fill="none" xmlns="http://www.w3.org/2000/svg">
<path d="M6.45 19.5758C5.54515 19.5758 4.66062 19.3075 3.90827 18.8048C3.15591 18.302 2.56952 17.5875 2.22325 16.7516C1.87698 15.9156 1.78638 14.9957 1.96291 14.1082C2.13944 13.2208 2.57516 12.4056 3.21499 11.7658C3.85481 11.1259 4.67 10.6902 5.55746 10.5137C6.44493 10.3372 7.36481 10.4278 8.20078 10.774C9.03675 11.1203 9.75127 11.7067 10.254 12.459C10.7567 13.2114 11.025 14.0959 11.025 15.0008C11.025 16.2141 10.543 17.3778 9.68502 18.2358C8.82704 19.0938 7.66337 19.5758 6.45 19.5758ZM6.45 11.6758C5.79238 11.6758 5.14952 11.8708 4.60273 12.2361C4.05594 12.6015 3.62976 13.1208 3.3781 13.7284C3.12644 14.3359 3.0606 15.0045 3.18889 15.6495C3.31719 16.2944 3.63386 16.8869 4.09887 17.3519C4.56388 17.8169 5.15634 18.1336 5.80133 18.2619C6.44631 18.3902 7.11486 18.3243 7.72242 18.0727C8.32999 17.821 8.84928 17.3948 9.21464 16.8481C9.57999 16.3013 9.775 15.6584 9.775 15.0008C9.775 14.1189 9.42469 13.2732 8.80113 12.6497C8.17757 12.0261 7.33185 11.6758 6.45 11.6758Z" fill="black" fill-opacity="0.7"/>
<path d="M3.79715 18.9711C4.5824 19.4957 5.5056 19.7758 6.45 19.7758C7.71641 19.7758 8.93095 19.2727 9.82644 18.3772C10.7219 17.4817 11.225 16.2672 11.225 15.0008C11.225 14.0564 10.945 13.1332 10.4203 12.3479C9.89559 11.5627 9.14983 10.9507 8.27732 10.5893C7.4048 10.2278 6.44471 10.1333 5.51845 10.3175C4.59219 10.5018 3.74136 10.9566 3.07357 11.6243C2.40577 12.2921 1.951 13.143 1.76675 14.0692C1.58251 14.9955 1.67707 15.9556 2.03848 16.8281C2.39989 17.7006 3.01191 18.4464 3.79715 18.9711ZM4.71385 12.4024C5.22775 12.0591 5.83194 11.8758 6.45 11.8758C7.2788 11.8758 8.07366 12.205 8.65971 12.7911C9.24576 13.3771 9.575 14.172 9.575 15.0008C9.575 15.6188 9.39172 16.223 9.04835 16.7369C8.70497 17.2508 8.21691 17.6514 7.64589 17.8879C7.07487 18.1244 6.44654 18.1863 5.84035 18.0657C5.23415 17.9452 4.67733 17.6475 4.24029 17.2105C3.80325 16.7735 3.50563 16.2166 3.38505 15.6104C3.26447 15.0042 3.32635 14.3759 3.56288 13.8049C3.7994 13.2339 4.19994 12.7458 4.71385 12.4024Z" stroke="black" stroke-opacity="0.7" stroke-width="0.4"/>
<path d="M23.55 11.6754C22.6451 11.6754 21.7606 11.4071 21.0082 10.9044C20.2559 10.4017 19.6695 9.68714 19.3232 8.85117C18.977 8.0152 18.8864 7.09532 19.0629 6.20785C19.2394 5.32039 19.6751 4.5052 20.315 3.86538C20.9548 3.22555 21.77 2.78983 22.6574 2.6133C23.5449 2.43677 24.4648 2.52737 25.3008 2.87364C26.1367 3.21991 26.8512 3.8063 27.354 4.55866C27.8567 5.31101 28.125 6.19554 28.125 7.10039C28.125 8.31376 27.643 9.47743 26.785 10.3354C25.927 11.1934 24.7633 11.6754 23.55 11.6754ZM23.55 3.78789C22.8918 3.7879 22.2485 3.98322 21.7014 4.34914C21.1544 4.71505 20.7282 5.23508 20.4769 5.84337C20.2256 6.45167 20.1605 7.12085 20.2898 7.76618C20.4191 8.4115 20.737 9.00394 21.2033 9.46845C21.6696 9.93295 22.2632 10.2486 22.909 10.3755C23.5548 10.5024 24.2237 10.4348 24.8311 10.1812C25.4384 9.92761 25.9569 9.49949 26.3207 8.95106C26.6845 8.40262 26.8775 7.75854 26.875 7.10039C26.8783 6.66165 26.7947 6.22659 26.6291 5.82029C26.4635 5.41399 26.2191 5.04449 25.91 4.73308C25.6009 4.42168 25.2332 4.17452 24.8282 4.00586C24.4232 3.83721 23.9887 3.75038 23.55 3.75039V3.78789Z" fill="black" fill-opacity="0.7"/>
<path d="M23.55 3.98789L23.75 3.98789V3.95679C24.0939 3.97884 24.4323 4.05766 24.7513 4.1905C25.132 4.34901 25.4775 4.5813 25.768 4.87398C26.0585 5.16665 26.2882 5.51393 26.4439 5.89579C26.5995 6.27764 26.6781 6.68653 26.675 7.09889L26.675 7.10114C26.6773 7.71971 26.496 8.32504 26.154 8.84049C25.8121 9.35594 25.3248 9.7583 24.754 9.99663C24.1832 10.235 23.5545 10.2985 22.9476 10.1793C22.3406 10.06 21.7827 9.76333 21.3445 9.32676C20.9062 8.89019 20.6074 8.33339 20.4859 7.72688C20.3644 7.12037 20.4256 6.49144 20.6617 5.91974C20.8979 5.34803 21.2985 4.85928 21.8126 4.51538C22.3268 4.17148 22.9314 3.9879 23.55 3.98789ZM20.8971 11.0707C21.6824 11.5953 22.6056 11.8754 23.55 11.8754C24.8164 11.8754 26.0309 11.3723 26.9264 10.4768C27.8219 9.58134 28.325 8.3668 28.325 7.10039C28.325 6.15599 28.0449 5.23279 27.5202 4.44754C26.9956 3.6623 26.2498 3.05028 25.3773 2.68887C24.5048 2.32746 23.5447 2.2329 22.6184 2.41714C21.6922 2.60139 20.8413 3.05616 20.1735 3.72396C19.5057 4.39175 19.051 5.24258 18.8667 6.16884C18.6825 7.0951 18.777 8.05519 19.1385 8.9277C19.4999 9.80022 20.1119 10.546 20.8971 11.0707Z" stroke="black" stroke-opacity="0.7" stroke-width="0.4"/>
<path d="M23.55 27.5006C22.6446 27.5006 21.7596 27.2319 21.0069 26.7287C20.2543 26.2254 19.6679 25.5102 19.322 24.6735C18.9761 23.8368 18.8863 22.9162 19.0638 22.0284C19.2413 21.1406 19.6783 20.3255 20.3194 19.6862C20.9605 19.0468 21.7768 18.6121 22.6651 18.437C23.5534 18.2619 24.4737 18.3542 25.3094 18.7024C26.1452 19.0506 26.8588 19.639 27.36 20.393C27.8612 21.147 28.1274 22.0327 28.125 22.9381C28.1216 24.1493 27.6382 25.3097 26.7806 26.165C25.9229 27.0203 24.7612 27.5006 23.55 27.5006ZM23.55 19.6131C22.8923 19.6131 22.2495 19.8081 21.7027 20.1735C21.1559 20.5388 20.7297 21.0581 20.4781 21.6657C20.2264 22.2732 20.1606 22.9418 20.2888 23.5868C20.4171 24.2317 20.7338 24.8242 21.1988 25.2892C21.6638 25.7542 22.2563 26.0709 22.9013 26.1992C23.5463 26.3275 24.2148 26.2616 24.8224 26.01C25.4299 25.7583 25.9492 25.3322 26.3146 24.7854C26.68 24.2386 26.875 23.5957 26.875 22.9381C26.8783 22.4988 26.7948 22.0631 26.6293 21.6561C26.4638 21.2491 26.2196 20.8788 25.9107 20.5664C25.6018 20.254 25.2342 20.0056 24.8291 19.8356C24.424 19.6656 23.9893 19.5772 23.55 19.5756V19.6131Z" fill="black" fill-opacity="0.7"/>
<path d="M23.55 19.8131H23.75V19.7828C24.0942 19.8061 24.4327 19.8861 24.7517 20.02C25.1326 20.1799 25.4781 20.4133 25.7685 20.707C26.0589 21.0007 26.2885 21.3488 26.444 21.7314C26.5996 22.114 26.6781 22.5236 26.675 22.9366H26.675V22.9381C26.675 23.5562 26.4917 24.1603 26.1483 24.6742C25.8049 25.1881 25.3169 25.5887 24.7458 25.8252C24.1748 26.0617 23.5465 26.1236 22.9403 26.003C22.3341 25.8825 21.7773 25.5848 21.3403 25.1478C20.9032 24.7108 20.6056 24.1539 20.485 23.5477C20.3644 22.9416 20.4263 22.3132 20.6628 21.7422C20.8994 21.1712 21.2999 20.6831 21.8138 20.3397C22.3277 19.9964 22.9319 19.8131 23.55 19.8131ZM20.8958 26.8949C21.6813 27.4202 22.605 27.7006 23.55 27.7006C24.8141 27.7006 26.0267 27.1993 26.9218 26.3066C27.8169 25.414 28.3215 24.2028 28.325 22.9386C28.3275 21.9937 28.0497 21.0692 27.5266 20.2822C27.0035 19.4953 26.2586 18.8812 25.3863 18.5178C24.514 18.1544 23.5535 18.058 22.6264 18.2408C21.6993 18.4235 20.8473 18.8773 20.1782 19.5445C19.5091 20.2118 19.053 21.0626 18.8677 21.9892C18.6824 22.9158 18.7762 23.8766 19.1372 24.7499C19.4982 25.6232 20.1102 26.3697 20.8958 26.8949Z" stroke="black" stroke-opacity="0.7" stroke-width="0.4"/>
<path d="M20.2875 21.2506C20.193 21.2729 20.0945 21.2729 20 21.2506L10.0875 15.5381C9.99128 15.4855 9.91129 15.4077 9.8562 15.3129C9.80111 15.2182 9.77302 15.1101 9.775 15.0006C9.77388 14.888 9.80509 14.7776 9.86492 14.6823C9.92475 14.587 10.0107 14.5109 10.1125 14.4631L20.3375 9.20055C20.4097 9.16362 20.4885 9.14127 20.5694 9.13479C20.6502 9.12831 20.7316 9.13781 20.8088 9.16277C20.886 9.18772 20.9575 9.22764 21.0193 9.28023C21.081 9.33283 21.1318 9.39707 21.1687 9.4693C21.2057 9.54153 21.228 9.62032 21.2345 9.70119C21.241 9.78205 21.2315 9.8634 21.2065 9.94059C21.1816 10.0178 21.1417 10.0893 21.0891 10.1511C21.0365 10.2128 20.9722 10.2636 20.9 10.3006L11.7 15.0006L20.6 20.1006C20.7173 20.1701 20.8086 20.2762 20.86 20.4026C20.9114 20.5289 20.9201 20.6686 20.8847 20.8003C20.8493 20.9321 20.7717 21.0486 20.6639 21.1321C20.5561 21.2157 20.4239 21.2617 20.2875 21.2631V21.2506Z" fill="black" fill-opacity="0.7"/>
<path d="M20.6994 19.927L12.1199 15.0106L20.991 10.4787L20.9911 10.4786C21.0867 10.4297 21.1717 10.3625 21.2413 10.2807C21.311 10.199 21.3638 10.1043 21.3968 10.0021C21.4299 9.89993 21.4425 9.79225 21.4339 9.6852C21.4253 9.57816 21.3957 9.47386 21.3468 9.37824C21.2979 9.28263 21.2307 9.19759 21.1489 9.12796C21.0672 9.05834 20.9725 9.0055 20.8703 8.97247C20.7681 8.93943 20.6604 8.92685 20.5534 8.93543C20.4464 8.94401 20.3421 8.97359 20.2464 9.02248L20.246 9.02272L10.0239 14.2837C9.88897 14.348 9.77506 14.4493 9.69555 14.576L9.86492 14.6823L9.69554 14.576C9.61584 14.7029 9.57403 14.8499 9.57499 14.9997C9.57288 15.1449 9.61031 15.2879 9.6833 15.4135C9.75633 15.5391 9.86219 15.6424 9.9895 15.7124L19.9001 21.4238L19.9255 21.4385L19.954 21.4452C20.0414 21.4658 20.1314 21.472 20.2203 21.4637L20.2895 21.463C20.4696 21.4612 20.6441 21.4005 20.7864 21.2902C20.9287 21.18 21.0311 21.0261 21.0778 20.8523C21.1246 20.6784 21.1132 20.494 21.0453 20.3272C20.9774 20.1604 20.8569 20.0204 20.702 19.9285L20.7021 19.9285L20.6994 19.927Z" stroke="black" stroke-opacity="0.7" stroke-width="0.4"/>
</svg>
