<svg width="187" height="187" viewBox="0 0 187 187" fill="none" xmlns="http://www.w3.org/2000/svg">
<path d="M93.5 187C145.139 187 187 145.139 187 93.5C187 41.8614 145.139 0 93.5 0C41.8614 0 0 41.8614 0 93.5C0 145.139 41.8614 187 93.5 187Z" fill="#E4E4E4"/>
<path d="M93.9167 171.833C136.949 171.833 171.833 136.949 171.833 93.9167C171.833 50.8845 136.949 16 93.9167 16C50.8845 16 16 50.8845 16 93.9167C16 136.949 50.8845 171.833 93.9167 171.833Z" fill="#34EAB9"/>
<path d="M76.3576 132C76.1719 132 75.9859 131.995 75.7996 131.986C74.1561 131.906 72.5493 131.469 71.0892 130.704C69.6291 129.939 68.3504 128.864 67.3408 127.554L51.4005 106.886C49.5444 104.474 48.7129 101.418 49.0883 98.3883C49.4637 95.3587 51.0154 92.6029 53.4031 90.7255L53.9765 90.2754C56.3687 88.4037 59.3993 87.5652 62.4037 87.9438C65.408 88.3224 68.1409 89.8872 70.0028 92.2949C70.9012 93.4599 72.0386 94.4153 73.3371 95.0958C74.6356 95.7763 76.0646 96.1658 77.5263 96.2377C78.9879 96.3095 80.4477 96.062 81.8057 95.5121C83.1637 94.9622 84.3879 94.1229 85.3944 93.0516L117.761 58.5962C118.793 57.4982 120.028 56.6159 121.398 55.9996C122.768 55.3832 124.244 55.045 125.743 55.0042C127.243 54.9634 128.735 55.2207 130.136 55.7616C131.536 56.3025 132.817 57.1164 133.906 58.1566L134.435 58.6615C136.633 60.7621 137.914 63.6574 137.996 66.7106C138.078 69.7637 136.953 72.7245 134.87 74.9416L84.6454 128.404C83.5791 129.54 82.2941 130.445 80.8691 131.063C79.4441 131.682 77.909 132 76.3576 132Z" fill="white"/>
</svg>
