<svg width="50" height="50" viewBox="0 0 50 50" fill="none" xmlns="http://www.w3.org/2000/svg">
<rect width="50" height="50" rx="10" fill="#F1F1FA"/>
<path fill-rule="evenodd" clip-rule="evenodd" d="M32.3213 32.417C34.6625 32.417 36.5612 30.899 36.5625 29.026V29.024V26.324C35.0163 26.324 33.7638 25.322 33.7625 24.085C33.7625 22.849 35.015 21.846 36.5613 21.846H36.5625V19.146C36.565 17.272 34.6688 15.752 32.3275 15.75H32.32H17.68C15.3375 15.75 13.4388 17.268 13.4375 19.142V19.143V21.933C14.93 21.891 16.1813 22.825 16.2338 24.019C16.235 24.041 16.2363 24.063 16.2363 24.085C16.2375 25.32 14.9888 26.322 13.445 26.324H13.4375V29.024C13.4363 30.897 15.335 32.417 17.6763 32.417H17.6775H32.3213Z" stroke="#263238" stroke-width="1.5" stroke-linecap="round" stroke-linejoin="round"/>
<path fill-rule="evenodd" clip-rule="evenodd" d="M25.4645 21.063L26.2345 22.31C26.3095 22.432 26.4545 22.517 26.6232 22.537L28.3445 22.738C28.7707 22.788 28.9395 23.206 28.632 23.445L27.387 24.415C27.2645 24.51 27.2095 24.647 27.237 24.782L27.5307 26.152C27.6032 26.491 27.1595 26.749 26.7795 26.589L25.2407 25.942C25.0895 25.878 24.9095 25.878 24.7582 25.942L23.2207 26.589C22.8395 26.749 22.3957 26.491 22.4682 26.152L22.762 24.782C22.7907 24.647 22.7345 24.51 22.612 24.415L21.3682 23.445C21.0607 23.206 21.2295 22.788 21.6545 22.738L23.3757 22.537C23.5445 22.517 23.6907 22.432 23.7657 22.31L24.5345 21.063C24.7245 20.755 25.2745 20.755 25.4645 21.063Z" stroke="#263238" stroke-width="1.5" stroke-linecap="round" stroke-linejoin="round"/>
</svg>
