<svg width="125" height="125" viewBox="0 0 125 125" fill="none" xmlns="http://www.w3.org/2000/svg">
<path d="M0.5 6C0.5 2.96243 2.96243 0.5 6 0.5H119C122.038 0.5 124.5 2.96243 124.5 6V119C124.5 122.038 122.038 124.5 119 124.5H6C2.96243 124.5 0.5 122.038 0.5 119V6Z" fill="white" stroke="#B0B0B0"/>
<path d="M95.75 50.75C91.115 50.75 87.2 53.54 85.445 57.5H72.305C70.55 53.54 66.635 50.75 62 50.75C57.365 50.75 53.45 53.54 51.695 57.5H38.555C36.8 53.54 32.885 50.75 28.25 50.75C25.2663 50.75 22.4048 51.9353 20.295 54.045C18.1853 56.1548 17 59.0163 17 62C17 64.9837 18.1853 67.8452 20.295 69.955C22.4048 72.0647 25.2663 73.25 28.25 73.25C32.885 73.25 36.8 70.46 38.555 66.5H51.695C53.45 70.46 57.365 73.25 62 73.25C66.635 73.25 70.55 70.46 72.305 66.5H85.445C87.2 70.46 91.115 73.25 95.75 73.25C98.7337 73.25 101.595 72.0647 103.705 69.955C105.815 67.8452 107 64.9837 107 62C107 59.0163 105.815 56.1548 103.705 54.045C101.595 51.9353 98.7337 50.75 95.75 50.75Z" fill="#2D2D2D"/>
<circle cx="28" cy="62" r="5" fill="white"/>
</svg>
