<svg width="125" height="125" viewBox="0 0 125 125" fill="none" xmlns="http://www.w3.org/2000/svg">
<path d="M0.5 6C0.5 2.96243 2.96243 0.5 6 0.5H119C122.038 0.5 124.5 2.96243 124.5 6V119C124.5 122.038 122.038 124.5 119 124.5H6C2.96243 124.5 0.5 122.038 0.5 119V6Z" fill="white" stroke="#B0B0B0"/>
<path d="M26.75 40.4792C26.75 37.1032 28.0911 33.8655 30.4783 31.4783C32.8655 29.0911 36.1032 27.75 39.4792 27.75H84.5208C87.8968 27.75 91.1345 29.0911 93.5217 31.4783C95.9089 33.8655 97.25 37.1032 97.25 40.4792V85.5208C97.25 88.8968 95.9089 92.1345 93.5217 94.5217C91.1345 96.9089 87.8968 98.25 84.5208 98.25H39.4792C36.1032 98.25 32.8655 96.9089 30.4783 94.5217C28.0911 92.1345 26.75 88.8968 26.75 85.5208V40.4792ZM63.9583 52.2292C63.9583 53.8507 65.2743 55.1667 66.8958 55.1667H80.6042C81.3832 55.1667 82.1304 54.8572 82.6813 54.3063C83.2322 53.7554 83.5417 53.0082 83.5417 52.2292C83.5417 51.4501 83.2322 50.7029 82.6813 50.152C82.1304 49.6012 81.3832 49.2917 80.6042 49.2917H66.8958C66.1168 49.2917 65.3696 49.6012 64.8187 50.152C64.2678 50.7029 63.9583 51.4501 63.9583 52.2292ZM66.8958 70.8333C66.1168 70.8333 65.3696 71.1428 64.8187 71.6937C64.2678 72.2446 63.9583 72.9918 63.9583 73.7708C63.9583 74.5499 64.2678 75.2971 64.8187 75.848C65.3696 76.3988 66.1168 76.7083 66.8958 76.7083H80.6042C81.3832 76.7083 82.1304 76.3988 82.6813 75.848C83.2322 75.2971 83.5417 74.5499 83.5417 73.7708C83.5417 72.9918 83.2322 72.2446 82.6813 71.6937C82.1304 71.1428 81.3832 70.8333 80.6042 70.8333H66.8958ZM57.2217 50.3883C57.5103 50.1194 57.7418 49.7951 57.9023 49.4348C58.0629 49.0744 58.1492 48.6855 58.1562 48.291C58.1631 47.8966 58.0906 47.5048 57.9428 47.1391C57.7951 46.7733 57.5752 46.441 57.2962 46.1621C57.0173 45.8832 56.685 45.6633 56.3193 45.5155C55.9535 45.3678 55.5617 45.2952 55.1673 45.3022C54.7729 45.3091 54.3839 45.3955 54.0236 45.556C53.6632 45.7166 53.3389 45.9481 53.07 46.2367L47.3125 51.9942L45.4717 50.1533C44.9148 49.6345 44.1783 49.352 43.4173 49.3654C42.6563 49.3788 41.9302 49.6871 41.392 50.2253C40.8538 50.7635 40.5455 51.4896 40.5321 52.2506C40.5186 53.0116 40.8011 53.7481 41.32 54.305L45.2367 58.2217C45.7874 58.7718 46.5341 59.0807 47.3125 59.0807C48.0909 59.0807 48.8375 58.7718 49.3883 58.2217L57.2217 50.3883ZM57.2217 67.7783C56.6709 67.2282 55.9243 66.9193 55.1458 66.9193C54.3674 66.9193 53.6208 67.2282 53.07 67.7783L47.3125 73.5358L45.4717 71.695C44.9148 71.1761 44.1783 70.8936 43.4173 70.9071C42.6563 70.9205 41.9302 71.2288 41.392 71.767C40.8538 72.3052 40.5455 73.0313 40.5321 73.7923C40.5186 74.5533 40.8011 75.2898 41.32 75.8467L45.2367 79.7633C45.7874 80.3134 46.5341 80.6224 47.3125 80.6224C48.0909 80.6224 48.8375 80.3134 49.3883 79.7633L57.2217 71.93C57.7718 71.3792 58.0807 70.6326 58.0807 69.8542C58.0807 69.0757 57.7718 68.3291 57.2217 67.7783Z" fill="#2D2D2D"/>
</svg>
