<svg width="125" height="125" viewBox="0 0 125 125" fill="none" xmlns="http://www.w3.org/2000/svg">
<path d="M0.5 6C0.5 2.96243 2.96243 0.5 6 0.5H119C122.038 0.5 124.5 2.96243 124.5 6V119C124.5 122.038 122.038 124.5 119 124.5H6C2.96243 124.5 0.5 122.038 0.5 119V6Z" fill="white" stroke="#B0B0B0"/>
<path d="M91.4362 48.831C87.9262 35.849 76.9722 26.748 64.3022 26.748C55.4672 26.748 47.2372 31.202 41.8882 38.766C40.4119 38.4262 38.9021 38.2538 37.3872 38.252C25.4992 38.251 15.8242 48.79 15.8242 61.749C15.8242 66.396 17.0752 70.897 19.4362 74.767C19.9912 75.673 20.9262 76.216 21.9262 76.216H41.8492C41.9922 66.951 49.5372 59.482 58.8362 59.482C68.1352 59.482 75.6792 66.951 75.8232 76.216H102.768C103.715 76.216 104.604 75.731 105.171 74.901C107.136 72.0232 108.183 68.6177 108.175 65.133C108.174 55.477 100.359 47.662 91.4362 48.831Z" fill="#2D2D2D"/>
<path d="M69.3458 82.3301L59.4278 68.4691C59.3389 68.3456 59.2219 68.245 59.0864 68.1754C58.951 68.1059 58.8011 68.0695 58.6488 68.0691H58.6468C58.3368 68.0691 58.0488 68.2191 57.8678 68.4731L48.0138 82.3301C47.9124 82.474 47.8524 82.6429 47.8402 82.8185C47.828 82.994 47.8642 83.1696 47.9448 83.3261C48.1088 83.6461 48.4388 83.8441 48.7978 83.8441H53.4318V96.2931C53.4318 96.8251 53.8618 97.2531 54.3898 97.2531H62.9698C63.4998 97.2531 63.9278 96.8251 63.9278 96.2931V83.8441H68.5658C68.7416 83.8437 68.9139 83.795 69.0639 83.7034C69.2139 83.6117 69.3358 83.4806 69.4163 83.3243C69.4968 83.168 69.5328 82.9927 69.5204 82.8173C69.5079 82.642 69.4476 82.4734 69.3458 82.3301Z" fill="#2D2D2D"/>
</svg>
