<svg width="125" height="125" viewBox="0 0 125 125" fill="none" xmlns="http://www.w3.org/2000/svg">
<path d="M0.5 6C0.5 2.96243 2.96243 0.5 6 0.5H119C122.038 0.5 124.5 2.96243 124.5 6V119C124.5 122.038 122.038 124.5 119 124.5H6C2.96243 124.5 0.5 122.038 0.5 119V6Z" fill="white" stroke="#B0B0B0"/>
<path d="M40.3327 32.6667C38.0341 32.6667 35.8297 33.5798 34.2044 35.2052C32.5791 36.8305 31.666 39.0349 31.666 41.3334V84.6667C31.666 86.9653 32.5791 89.1697 34.2044 90.795C35.8297 92.4203 38.0341 93.3334 40.3327 93.3334H83.666C85.9646 93.3334 88.169 92.4203 89.7943 90.795C91.4196 89.1697 92.3327 86.9653 92.3327 84.6667V41.3334C92.3327 39.0349 91.4196 36.8305 89.7943 35.2052C88.169 33.5798 85.9646 32.6667 83.666 32.6667H40.3327ZM57.666 77.7941L45.9357 66.0637L52.063 59.9364L57.666 65.5394L74.1024 49.1031L80.2297 55.2304L57.666 77.7941Z" fill="#2D2D2D"/>
</svg>
