<svg width="125" height="125" viewBox="0 0 125 125" fill="none" xmlns="http://www.w3.org/2000/svg">
<path d="M0.5 6C0.5 2.96243 2.96243 0.5 6 0.5H119C122.038 0.5 124.5 2.96243 124.5 6V119C124.5 122.038 122.038 124.5 119 124.5H6C2.96243 124.5 0.5 122.038 0.5 119V6Z" fill="white" stroke="#B0B0B0"/>
<path d="M100 36.4583C100 33.4194 98.7928 30.5049 96.6439 28.3561C94.4951 26.2072 91.5806 25 88.5417 25H36.4583C33.4194 25 30.5049 26.2072 28.3561 28.3561C26.2072 30.5049 25 33.4194 25 36.4583V88.5417C25 91.5806 26.2072 94.4951 28.3561 96.6439C30.5049 98.7928 33.4194 100 36.4583 100H88.5417C91.5806 100 94.4951 98.7928 96.6439 96.6439C98.7928 94.4951 100 91.5806 100 88.5417V36.4583ZM71.875 60.4167C72.6668 60.4169 73.4289 60.7177 74.0075 61.2582C74.586 61.7988 74.9378 62.5387 74.9918 63.3287C75.0457 64.1186 74.7979 64.8995 74.2982 65.5137C73.7985 66.1279 73.0844 66.5296 72.3 66.6375L71.875 66.6667H40.625C39.8332 66.6664 39.0711 66.3656 38.4925 65.8251C37.914 65.2846 37.5622 64.5446 37.5082 63.7547C37.4543 62.9647 37.7021 62.1838 38.2018 61.5696C38.7015 60.9554 39.4156 60.5538 40.2 60.4458L40.625 60.4167H71.875ZM40.625 77.0833H84.375C85.1668 77.0836 85.9289 77.3843 86.5075 77.9249C87.086 78.4654 87.4378 79.2054 87.4918 79.9953C87.5457 80.7853 87.2979 81.5662 86.7982 82.1804C86.2985 82.7946 85.5844 83.1962 84.8 83.3042L84.375 83.3333H40.625C39.8332 83.3331 39.0711 83.0323 38.4925 82.4918C37.914 81.9512 37.5622 81.2113 37.5082 80.4213C37.4543 79.6314 37.7021 78.8504 38.2018 78.2363C38.7015 77.6221 39.4156 77.2204 40.2 77.1125L40.625 77.0833ZM84.375 43.75C85.1668 43.7502 85.9289 44.051 86.5075 44.5916C87.086 45.1321 87.4378 45.8721 87.4918 46.662C87.5457 47.4519 87.2979 48.2329 86.7982 48.8471C86.2985 49.4613 85.5844 49.8629 84.8 49.9708L84.375 50H40.625C39.8332 49.9998 39.0711 49.699 38.4925 49.1584C37.914 48.6179 37.5622 47.8779 37.5082 47.088C37.4543 46.2981 37.7021 45.5171 38.2018 44.9029C38.7015 44.2887 39.4156 43.8871 40.2 43.7792L40.625 43.75H84.375Z" fill="#2D2D2D"/>
</svg>
