<svg width="125" height="125" viewBox="0 0 125 125" fill="none" xmlns="http://www.w3.org/2000/svg">
<path d="M6 0.5H119C122.038 0.5 124.5 2.96243 124.5 6V119C124.5 122.038 122.038 124.5 119 124.5H6C2.96243 124.5 0.5 122.038 0.5 119V6C0.5 2.96243 2.96243 0.5 6 0.5Z" fill="white" stroke="#B0B0B0"/>
<path fill-rule="evenodd" clip-rule="evenodd" d="M63 27C43.1182 27 27 43.1182 27 63C27 82.8818 43.1182 99 63 99C82.8818 99 99 82.8818 99 63C99 43.1182 82.8818 27 63 27ZM52.5273 56.4545C52.0628 56.4492 51.6051 56.5661 51.2001 56.7936C50.7951 57.0211 50.4571 57.3511 50.22 57.7505C49.9968 58.1386 49.8904 58.5828 49.9136 59.0299C49.9368 59.4769 50.0887 59.9077 50.3509 60.2705L60.8236 74.9978C61.0736 75.3397 61.4013 75.6172 61.7798 75.8073C62.1582 75.9973 62.5765 76.0946 63 76.0909C63.424 76.0951 63.843 75.9981 64.222 75.808C64.6011 75.6179 64.9294 75.3402 65.1796 74.9978L75.6524 60.2705C75.9146 59.9077 76.0665 59.4769 76.0897 59.0299C76.1129 58.5828 76.0065 58.1386 75.7833 57.7505C75.5459 57.3506 75.2074 57.0203 74.8017 56.7928C74.3961 56.5653 73.9377 56.4486 73.4727 56.4545H52.5273Z" fill="#2D2D2D"/>
</svg>
