<svg width="102" height="102" viewBox="0 0 102 102" fill="none" xmlns="http://www.w3.org/2000/svg">
<rect width="102" height="102" rx="7" fill="#FDD4B2"/>
<g clip-path="url(#clip0_519_2289)">
<path d="M32.0359 55.506C31.1329 55.506 30.3733 55.2864 29.7566 54.848C29.4326 54.6171 29.1591 54.3434 28.9353 54.0253C28.6073 53.5581 28.7276 52.8836 29.1944 52.5873L29.2128 52.5751C29.5994 52.3293 30.087 52.4374 30.3717 52.813C30.7663 53.3341 31.3382 53.5956 32.0865 53.5956C32.5902 53.5956 32.9591 53.4963 33.1933 53.2984C33.4275 53.1006 33.5446 52.8504 33.5446 52.548C33.5446 52.1994 33.401 51.9275 33.1147 51.734C32.8283 51.5405 32.3159 51.3305 31.578 51.1039C31.1698 50.9723 30.8249 50.8398 30.5426 50.7073C30.2603 50.5757 29.978 50.3988 29.6956 50.1766C29.4133 49.9552 29.1984 49.6745 29.0508 49.3346C28.9032 48.9947 28.8295 48.5991 28.8295 48.1459C28.8295 47.2499 29.1222 46.5352 29.7085 46.0018C30.2947 45.4693 30.9997 45.2026 31.825 45.2026C32.5629 45.2026 33.2117 45.3987 33.7723 45.7901C34.0434 45.9791 34.2856 46.2049 34.4982 46.4663C34.8671 46.9187 34.7645 47.6229 34.2832 47.9254C33.9272 48.1484 33.4708 48.0778 33.1989 47.7423C32.8508 47.3135 32.3921 47.0991 31.825 47.0991C31.4513 47.0991 31.1586 47.1915 30.946 47.3754C30.7334 47.5593 30.6268 47.7981 30.6268 48.09C30.6268 48.4012 30.7463 48.654 30.9853 48.8474C31.2243 49.0409 31.6823 49.2509 32.3592 49.4776C32.6367 49.5717 32.8476 49.6449 32.9903 49.6972C33.1339 49.7495 33.3288 49.8297 33.5766 49.9377C33.8245 50.0467 34.0146 50.1478 34.1493 50.2419C34.284 50.336 34.438 50.4642 34.6113 50.6236C34.7845 50.784 34.9177 50.9487 35.0083 51.1187C35.0997 51.2887 35.1775 51.4934 35.2425 51.734C35.3074 51.9746 35.3403 52.236 35.3403 52.5193C35.3403 53.4344 35.0339 54.1613 34.422 54.699C33.8133 55.2367 33.0168 55.506 32.0359 55.506Z" fill="#263238"/>
<path d="M41.5749 48.231C42.0385 48.231 42.4146 48.6397 42.4146 49.1435V54.6891C42.4146 55.0299 42.1604 55.3071 41.846 55.3071H41.2845C40.9806 55.3071 40.7344 55.0395 40.7344 54.7091C40.7344 54.649 40.6646 54.622 40.6301 54.6691C40.2195 55.2269 39.6075 55.5058 38.7934 55.5058C38.0813 55.5058 37.4934 55.246 37.029 54.7275C36.5646 54.2089 36.332 53.4916 36.332 52.5765V49.1443C36.332 48.6406 36.7082 48.2318 37.1718 48.2318C37.6353 48.2318 38.0115 48.6406 38.0115 49.1443V52.3499C38.0115 52.8214 38.1286 53.1822 38.3628 53.4323C38.5969 53.6825 38.9098 53.8071 39.3003 53.8071C39.7342 53.8071 40.0815 53.6607 40.3422 53.3687C40.6028 53.0768 40.7328 52.6375 40.7328 52.0527V49.1443C40.7352 48.6397 41.1113 48.231 41.5749 48.231Z" fill="#263238"/>
<path d="M45.6326 48.6642C45.6326 48.8647 45.8595 48.9553 45.9823 48.8054C46.1034 48.6573 46.2453 48.5317 46.4081 48.4298C46.4113 48.4272 46.4154 48.4254 46.4186 48.4228C46.9503 48.0925 47.6128 48.5222 47.6128 49.1881V49.2787C47.6128 49.6988 47.3425 50.0701 46.9616 50.1467C46.7041 50.1982 46.4627 50.3054 46.2381 50.4683C45.8347 50.7612 45.6326 51.2466 45.6326 51.9256V54.3955C45.6326 54.8993 45.2564 55.308 44.7929 55.308C44.3293 55.308 43.9531 54.8993 43.9531 54.3955V48.6642C43.9531 48.4254 44.1312 48.2319 44.3509 48.2319H45.2348C45.4545 48.2311 45.6326 48.4254 45.6326 48.6642Z" fill="#263238"/>
<path d="M53.48 48.231C54.0791 48.231 54.4927 48.8829 54.2801 49.4921L52.5865 54.3353C52.3818 54.9209 51.8653 55.3079 51.2895 55.3079C50.7136 55.3079 50.1971 54.9209 49.9926 54.3353L48.2987 49.4912C48.0862 48.8829 48.4992 48.2318 49.0984 48.2318C49.4633 48.2318 49.7873 48.4828 49.9068 48.8576L51.0962 52.5957C51.1579 52.79 51.4106 52.79 51.4724 52.5965L52.6721 48.8559C52.7917 48.4819 53.1157 48.231 53.48 48.231Z" fill="#263238"/>
<path d="M56.9691 52.5195C56.8264 52.5195 56.7277 52.6789 56.7853 52.821C57.0661 53.5069 57.645 53.8494 58.5233 53.8494C58.978 53.8494 59.3551 53.7309 59.6536 53.4947C59.8958 53.3021 60.2231 53.2934 60.4829 53.4555C60.9751 53.764 61.0026 54.5231 60.5364 54.8761C59.9829 55.2954 59.3037 55.5054 58.4978 55.5054C57.4214 55.5054 56.5575 55.1515 55.9066 54.4438C55.2553 53.7361 54.9297 52.8446 54.9297 51.7691C54.9297 50.7032 55.2504 49.8142 55.8935 49.1013C56.5361 48.3892 57.3605 48.0327 58.3679 48.0327C59.323 48.0327 60.1108 48.3918 60.7313 49.1082C61.3521 49.8255 61.6626 50.7119 61.6626 51.7691V51.776C61.6626 52.1865 61.3562 52.5186 60.9784 52.5186H56.9691V52.5195ZM56.9276 51.1049H59.7194C59.8555 51.1049 59.9525 50.9585 59.9077 50.8191C59.7987 50.4792 59.6256 50.216 59.3888 50.0295C59.0899 49.7941 58.7486 49.6756 58.3662 49.6756C57.9148 49.6756 57.541 49.8011 57.2466 50.0504C57.018 50.2438 56.8494 50.4983 56.7405 50.813C56.6924 50.9542 56.7894 51.1049 56.9276 51.1049Z" fill="#263238"/>
<path d="M67.4261 48.231C68.0058 48.231 68.4092 48.8576 68.2114 49.4494L66.2493 55.3071C65.9109 56.3259 65.4619 57.0641 64.9011 57.5217C64.5676 57.7936 64.1861 57.9766 63.756 58.0707C63.2667 58.177 62.8111 57.7657 62.8111 57.2236V57.2088C62.8111 56.8105 63.064 56.4714 63.4184 56.3686C63.5973 56.3163 63.7527 56.237 63.8859 56.128C64.1355 55.9232 64.3374 55.6008 64.4907 55.1615C64.5084 55.1101 64.5068 55.0526 64.4866 55.002L62.3403 49.4947C62.1072 48.895 62.5122 48.231 63.1104 48.231C63.4558 48.231 63.7654 48.4619 63.8908 48.8123L65.1766 52.4231C65.2436 52.6122 65.4923 52.6061 65.5507 52.4126L66.6329 48.8541C66.746 48.4828 67.0659 48.231 67.4261 48.231Z" fill="#263238"/>
<path d="M17.73 56.584C16.6136 57.7187 15.0312 58.063 13.5996 57.4817L13.5603 57.4651C12.5786 57.0546 11.799 56.2571 11.3619 55.2156C10.9192 54.1611 10.8815 52.981 11.2552 51.895C11.4333 51.3791 11.6947 50.9111 12.0324 50.504L12.0348 50.5014L19.2153 41.4556L19.221 41.4495C19.2322 41.4356 19.2442 41.4216 19.2555 41.4077C19.2923 41.365 19.3284 41.3231 19.3653 41.2831C19.3846 41.2621 19.4046 41.2403 19.4247 41.2186L19.561 41.0817C19.5698 41.073 19.5795 41.0643 19.5891 41.0556L19.6557 40.9911L19.6701 40.9824C19.6773 40.9763 19.6821 40.971 19.6869 40.9684C19.6893 40.9658 19.6918 40.9641 19.6942 40.9623C19.7158 40.9432 19.735 40.9266 19.7535 40.9109C19.7575 40.9074 19.7656 40.9004 19.7728 40.8952L19.8738 40.8133C19.881 40.8081 19.8858 40.8046 19.8899 40.8011C19.9067 40.788 19.9227 40.7758 19.938 40.7645L19.9436 40.7601C19.9492 40.7558 19.9556 40.7514 19.9612 40.7471L20.0447 40.6869C20.0511 40.6826 20.0567 40.6782 20.0631 40.6738L20.0952 40.6477L20.1152 40.639C20.1216 40.6346 20.128 40.6303 20.1353 40.6259C20.1401 40.6224 20.1457 40.6198 20.1505 40.6163L20.1618 40.6085C20.1786 40.5971 20.1962 40.5867 20.2131 40.5762C20.2171 40.5736 20.2211 40.571 20.2251 40.5684L20.2548 40.5501C20.2644 40.544 20.2756 40.537 20.2877 40.53L20.3222 40.51C20.3294 40.5065 20.3358 40.5021 20.343 40.4978L20.3687 40.4838H20.3695L20.3783 40.4786C20.3815 40.4769 20.3839 40.4751 20.3879 40.4734C20.4096 40.4612 20.428 40.4507 20.4473 40.4411L20.4986 40.4132C20.5042 40.4106 20.5098 40.408 20.5154 40.4045L20.5932 40.3662C20.6068 40.3601 20.6165 40.3549 20.6261 40.3505L20.7015 40.3165C20.7135 40.3113 20.7248 40.306 20.736 40.3008C20.7833 40.2799 20.8298 40.2616 20.8771 40.2442C20.8892 40.2389 20.9052 40.2328 20.922 40.2276C20.9373 40.2215 20.9533 40.2163 20.9694 40.2102C20.9846 40.2041 21.0039 40.198 21.0247 40.1919L21.0688 40.1779C21.0977 40.1683 21.1306 40.1579 21.1643 40.1483L21.1683 40.1474C21.1699 40.1466 21.1723 40.1466 21.1747 40.1466C21.1915 40.1405 21.2092 40.1352 21.2276 40.1309L21.2846 40.1161C21.3287 40.1047 21.368 40.0951 21.4073 40.0864L21.461 40.0751C21.4779 40.0716 21.4979 40.0672 21.5188 40.0638C21.5252 40.062 21.5324 40.0603 21.5396 40.0603L21.5797 40.0533C21.5966 40.0498 21.6118 40.0472 21.627 40.0455C21.6415 40.0428 21.6527 40.0411 21.6639 40.0394L21.6984 40.0341C21.7048 40.0333 21.7105 40.0324 21.7169 40.0315L21.7201 40.0306L21.7409 40.0289C21.7522 40.028 21.7642 40.0263 21.7746 40.0245C21.7963 40.0219 21.8147 40.0202 21.8332 40.0184C21.8436 40.0176 21.8588 40.0158 21.8741 40.015L21.9358 40.0097C21.9783 40.0062 22.0184 40.0036 22.0585 40.0027L22.0946 40.0019C22.109 40.001 22.1251 40.001 22.1403 40.001C22.1772 40.0001 22.2213 39.9993 22.2647 40.001C22.2807 40.001 22.2959 40.001 22.312 40.0019C22.324 40.0027 22.3361 40.0027 22.3481 40.0027H22.3553C22.3705 40.0036 22.3865 40.0045 22.4018 40.0062C22.4283 40.0071 22.4547 40.0089 22.4812 40.0106L22.4884 40.0115C22.5045 40.0123 22.5141 40.0141 22.5253 40.0141L22.5862 40.0202C22.6111 40.0219 22.64 40.0263 22.6681 40.0289L22.7106 40.0341C22.725 40.035 22.7435 40.0385 22.7619 40.0411C22.7844 40.0446 22.8108 40.0489 22.8373 40.0542L22.8902 40.0638C22.8982 40.0646 22.9063 40.0664 22.9135 40.0681L22.9841 40.0821C23.0194 40.0908 23.0571 40.0977 23.094 40.1073C23.1172 40.1134 23.1413 40.1187 23.1669 40.1256C23.1741 40.1274 23.1814 40.1291 23.1886 40.1317L23.2014 40.1352C23.2239 40.1413 23.2463 40.1483 23.2688 40.1553L23.2832 40.1588C23.3057 40.1657 23.3282 40.1727 23.3506 40.1805L23.4749 40.2233C23.4829 40.2267 23.4902 40.2294 23.4974 40.232L23.5006 40.2328C23.5078 40.2355 23.5142 40.2372 23.5206 40.2398C23.5343 40.2459 23.5447 40.2503 23.5551 40.2538L23.596 40.2703C23.6089 40.2747 23.6193 40.279 23.6297 40.2834L23.6401 40.2877C23.6538 40.293 23.6674 40.2991 23.681 40.3052L23.738 40.3305C23.746 40.3339 23.7548 40.3374 23.762 40.3418L23.7869 40.354C23.8013 40.3601 23.8166 40.3671 23.831 40.3749L23.843 40.381C23.8655 40.3923 23.8871 40.4028 23.9072 40.4141L23.9329 40.4272C23.9489 40.4359 23.9649 40.4438 23.9802 40.4525C23.9834 40.4533 23.9866 40.456 23.9898 40.4568C23.9994 40.4621 24.0091 40.4682 24.0179 40.4725C24.0363 40.483 24.0588 40.496 24.0813 40.5082C24.1158 40.5283 24.1494 40.5483 24.1831 40.5693C24.1911 40.5754 24.2 40.5806 24.2088 40.5858L24.2216 40.5945C24.2256 40.5963 24.2296 40.5989 24.2336 40.6024L24.2376 40.605C24.2449 40.6093 24.2513 40.6137 24.2577 40.6181C24.2745 40.6285 24.2906 40.639 24.3058 40.6494L24.3724 40.6948C24.3876 40.7061 24.4029 40.7165 24.4181 40.7279C24.4237 40.7314 24.4333 40.7392 24.4438 40.7462L24.4518 40.7523C24.4775 40.7715 24.4999 40.7889 24.5232 40.8072L24.5946 40.8647C24.6202 40.8856 24.6443 40.9048 24.6675 40.9248L24.7028 40.9554C24.7172 40.9684 24.7293 40.9789 24.7397 40.9893C24.7517 40.9989 24.763 41.0094 24.7742 41.0198C24.7862 41.0312 24.7959 41.0408 24.8055 41.0486C24.8223 41.0643 24.836 41.0774 24.8504 41.0913L24.868 41.1087C24.8785 41.1192 24.8897 41.1297 24.9009 41.1401C24.9298 41.1689 24.9579 41.1985 24.9867 41.229C25.0132 41.2569 25.0405 41.2857 25.0661 41.3153C25.0838 41.3345 25.1022 41.3554 25.1199 41.3763C25.1624 41.426 25.2033 41.4774 25.2442 41.5288L25.2667 41.5567C25.5513 41.9306 25.6308 42.4405 25.4752 42.8911C25.2362 43.5866 24.52 43.9404 23.8807 43.6807C23.7011 43.6075 23.5375 43.4889 23.4076 43.3364L23.3971 43.3233C23.377 43.2955 23.3562 43.2684 23.3338 43.2414C23.2889 43.1874 23.2415 43.1368 23.1934 43.0915L23.1718 43.0706C23.0771 42.9852 22.9737 42.9129 22.8638 42.8545C22.8381 42.8414 22.8117 42.8283 22.7852 42.8161C22.7699 42.8091 22.7507 42.8013 22.7323 42.7926C22.7258 42.79 22.7178 42.7865 22.7106 42.7839L22.5959 42.7446C22.5919 42.7438 22.5879 42.7429 22.5839 42.7412L22.5734 42.7385C22.4563 42.7054 22.3328 42.6889 22.2069 42.688C21.7834 42.6854 21.3905 42.8684 21.1001 43.2013L21.068 43.2371C21.0496 43.2597 21.0311 43.2833 21.0119 43.3094L21.0079 43.3199L20.9902 43.339L14.0687 52.058L13.8859 52.2881C13.8738 52.3038 13.861 52.3186 13.849 52.3334C13.8458 52.3369 13.8434 52.3413 13.8402 52.3447C13.7648 52.4406 13.7006 52.5443 13.6485 52.6567C13.4119 53.0995 13.2771 53.6137 13.2771 54.1619C13.2771 55.8196 14.5139 57.1635 16.0393 57.1635C16.8157 57.1635 17.5175 56.8158 18.0187 56.2554C17.9289 56.3704 17.8327 56.4794 17.73 56.584Z" fill="url(#paint0_linear_519_2289)"/>
<path d="M26.1821 47.394L26.1589 54.369L26.1525 56.2507C26.1613 56.7928 26.0763 57.3297 25.899 57.8439C25.3344 59.4833 23.9316 60.5893 22.3228 60.6625C22.2658 60.6651 22.2097 60.666 22.152 60.666C21.6772 60.666 21.2096 60.5736 20.7581 60.3897L18.1964 59.3491C17.7023 59.1626 17.3695 58.6501 17.3711 58.0758C17.3727 57.45 17.7825 56.8992 18.3447 56.7667C18.4338 56.7458 18.5236 56.7353 18.6134 56.7362C18.7522 56.7362 18.8909 56.7615 19.0233 56.8129L21.6242 57.8701C21.7951 57.9398 21.9731 57.9746 22.1552 57.9746C22.7856 57.9746 23.3574 57.5441 23.578 56.9027C23.6421 56.717 23.6742 56.5253 23.6742 56.3309V56.29C23.6742 56.283 23.6734 56.276 23.6734 56.269V56.2612L23.6863 52.6434L23.6991 49.0988C24.2148 48.1558 25.1243 47.4978 26.1821 47.394Z" fill="url(#paint1_linear_519_2289)"/>
<path d="M26.2048 47.395L26.1816 54.37L26.1792 55.0681H24.9023L24.9112 52.6435L24.9641 47.8003C25.3395 47.5807 25.7589 47.4377 26.2048 47.395Z" fill="url(#paint2_linear_519_2289)"/>
<path d="M26.1892 45.4637L26.1884 45.8942L26.1836 47.3951C25.1257 47.4988 24.2162 48.1568 23.7021 49.0998V49.0981L18.2419 55.9772L18.0646 56.2003C18.0502 56.2195 18.0342 56.2386 18.0189 56.2578C17.5177 56.8182 16.8159 57.166 16.0395 57.166C14.5141 57.166 13.2773 55.822 13.2773 54.1643C13.2773 53.6161 13.4129 53.102 13.6487 52.6592C13.6214 52.7167 13.5974 52.776 13.5757 52.837C13.4337 53.2501 13.4482 53.6981 13.6166 54.099C13.7842 54.4999 14.0866 54.8058 14.4659 54.9601L14.4684 54.961C14.4764 54.9644 14.4844 54.9671 14.4916 54.9706L14.5189 54.9801C14.5197 54.981 14.5205 54.981 14.5213 54.981C14.5237 54.9819 14.5253 54.9819 14.5277 54.9828L14.5734 54.9975C14.6352 55.0185 14.6969 55.0333 14.7651 55.0455L14.8493 55.0568C14.8581 55.0577 14.8662 55.0586 14.8742 55.0586L14.883 55.0594C14.891 55.0603 14.8998 55.0603 14.9071 55.0603L14.9528 55.0629C14.9584 55.0629 14.964 55.0638 14.9696 55.0638H15.0314C15.037 55.0638 15.0418 55.0629 15.0474 55.0629L15.0643 55.0621C15.0683 55.0621 15.0723 55.0612 15.0763 55.0612L15.1092 55.0594C15.1348 55.0568 15.1621 55.0542 15.1894 55.0507C15.1926 55.0499 15.1982 55.0499 15.2046 55.0481C15.2102 55.0472 15.2174 55.0464 15.2247 55.0446L15.2463 55.0412C15.2544 55.0394 15.2608 55.0377 15.2688 55.0368L15.284 55.0307H15.296C15.3009 55.0298 15.3048 55.0289 15.3097 55.0272C15.3177 55.0263 15.3241 55.0237 15.3321 55.0219L15.3666 55.0132C15.3891 55.0072 15.4131 55.0002 15.4372 54.9923C15.4404 54.9915 15.4436 54.9906 15.4476 54.9888L15.4958 54.9714L15.5198 54.9461L15.5615 54.9453C15.5655 54.9435 15.5712 54.9418 15.576 54.9391L15.5824 54.9366C15.5872 54.9348 15.5912 54.9331 15.596 54.9304C15.604 54.927 15.612 54.9235 15.6193 54.9191L15.6353 54.9113L15.6586 54.9L15.665 54.8965C15.6794 54.8895 15.693 54.8816 15.7067 54.8738C15.7267 54.8625 15.7476 54.8503 15.7684 54.8363C15.7917 54.8215 15.8117 54.8084 15.831 54.7936C15.839 54.7875 15.8455 54.784 15.851 54.7797L15.8679 54.7675C15.8735 54.7631 15.8791 54.7588 15.8847 54.7544L15.9024 54.7413C15.908 54.737 15.9128 54.7326 15.9184 54.7283L15.9353 54.7143C15.9409 54.7099 15.9457 54.7056 15.9497 54.7021C15.9681 54.6864 15.9858 54.669 16.0026 54.6524L16.0211 54.635C16.0403 54.6167 16.0588 54.5975 16.0772 54.5766L16.082 54.5714C16.0901 54.5627 16.0981 54.5531 16.1053 54.5443L16.1117 54.5365C16.1246 54.5217 16.1374 54.506 16.1486 54.4912C16.1671 54.4685 16.1831 54.4467 16.1983 54.425L16.2513 54.35H16.2585L18.0454 52.0988L23.3003 45.4785C23.3171 45.4593 23.3347 45.4384 23.3524 45.4166C23.3692 45.3957 23.3853 45.3739 23.4005 45.3521L23.4534 45.2772H23.4599L24.0012 44.5956C24.0077 44.5869 24.0133 44.5799 24.0205 44.5721C24.2138 44.3324 24.4784 44.1755 24.7664 44.1276C24.8249 44.118 24.8851 44.1128 24.9444 44.1128H24.9565C25.4866 44.1145 25.9558 44.4823 26.125 45.0271L26.129 45.0427C26.1355 45.0697 26.19 45.3138 26.1892 45.4637Z" fill="url(#paint3_linear_519_2289)"/>
<path d="M19.9494 51.6405L17.1391 55.1807L17.0044 55.3498C16.9932 55.3646 16.9811 55.3794 16.9699 55.3934C16.5889 55.8187 16.0556 56.0836 15.4661 56.0836C14.3072 56.0836 13.3672 55.063 13.3672 53.8037C13.3672 53.3923 13.4666 53.0062 13.6431 52.6733C13.6182 52.7247 13.5966 52.7787 13.5773 52.8336C13.4354 53.2468 13.4498 53.6947 13.6182 54.0965C13.7858 54.4965 14.0882 54.8034 14.4676 54.9576L14.47 54.9585C14.478 54.962 14.486 54.9646 14.4932 54.9681L14.5205 54.9777C14.5213 54.9785 14.5221 54.9785 14.5229 54.9785C14.5253 54.9794 14.5269 54.9794 14.5293 54.9803L14.5742 54.9951C14.636 55.016 14.6978 55.0317 14.7659 55.043L14.8501 55.0543C14.859 55.0552 14.8662 55.0561 14.875 55.0561L14.8838 55.057C14.8926 55.0578 14.9007 55.0578 14.9087 55.0578L14.9536 55.0605C14.9592 55.0605 14.9648 55.0613 14.9704 55.0613H15.0322C15.0378 55.0613 15.0426 55.0605 15.0482 55.0605L15.0651 55.0596C15.0691 55.0596 15.0731 55.0587 15.0771 55.0587L15.1092 55.057C15.1349 55.0543 15.1629 55.0517 15.1894 55.0483C15.1926 55.0474 15.199 55.0474 15.2055 55.0456C15.211 55.0448 15.2183 55.0439 15.2255 55.0421L15.2463 55.0387C15.2543 55.0369 15.2608 55.0352 15.2688 55.0343L15.2848 55.0282H15.2969C15.3017 55.0273 15.3057 55.0265 15.3105 55.0247C15.3185 55.0239 15.3249 55.0212 15.333 55.0195L15.3682 55.0108C15.3907 55.0046 15.4148 54.9968 15.4388 54.989C15.442 54.9881 15.4452 54.9872 15.4485 54.9855L15.4958 54.9681L15.5206 54.9428L15.5615 54.9419C15.5656 54.9402 15.5711 54.9384 15.576 54.9358L15.5832 54.9332C15.588 54.9315 15.592 54.9297 15.5968 54.9271C15.6049 54.9236 15.6129 54.9201 15.6201 54.9158L15.6361 54.9079L15.6594 54.8966L15.6658 54.8931C15.6802 54.8862 15.6939 54.8783 15.7075 54.8705C15.7276 54.8591 15.7484 54.8469 15.7692 54.833C15.7925 54.8182 15.8126 54.8051 15.8318 54.7911C15.8398 54.785 15.8463 54.7816 15.8518 54.7772L15.8679 54.765C15.8735 54.7606 15.8792 54.7563 15.8856 54.751L15.9032 54.738C15.9088 54.7336 15.9136 54.7293 15.9192 54.7249L15.9353 54.711C15.9409 54.7066 15.9449 54.7022 15.9497 54.6988C15.9682 54.6831 15.9858 54.6657 16.0034 54.6491L16.0219 54.6317C16.0412 54.6133 16.0604 54.5942 16.078 54.5733L16.0828 54.568C16.0909 54.5593 16.0989 54.5506 16.1061 54.541L16.1133 54.5332C16.1262 54.5183 16.1382 54.5027 16.1502 54.4878C16.1687 54.4652 16.1839 54.4443 16.1999 54.4225L16.2529 54.3475H16.2601L18.047 52.0954L18.8723 51.0557L19.9494 51.6405Z" fill="url(#paint4_linear_519_2289)"/>
<path opacity="0.46" d="M18.2425 55.9766C18.1743 56.0751 18.0997 56.1692 18.0195 56.2581C18.0347 56.2389 18.05 56.2198 18.0652 56.2005L18.2425 55.9766Z" fill="#D7162F"/>
<path d="M75.0071 55.307C74.8163 55.307 74.6452 55.1789 74.5778 54.9845L73.9088 53.0619C73.8587 52.9155 73.7296 52.8187 73.5848 52.8187H69.643C69.4995 52.8187 69.3704 52.9155 69.319 53.0619L68.65 54.9845C68.5826 55.1789 68.4119 55.307 68.2212 55.307C67.8988 55.307 67.6772 54.9557 67.7927 54.6289L70.9624 45.6651C71.066 45.3722 71.3251 45.1787 71.6137 45.1787C71.9023 45.1787 72.1614 45.3722 72.265 45.6651L75.4347 54.6289C75.5506 54.9566 75.3286 55.307 75.0071 55.307ZM71.2897 47.3741L69.9127 51.3554C69.8276 51.6012 69.9945 51.8635 70.2367 51.8635H72.9915C73.2329 51.8635 73.4006 51.6012 73.3155 51.3554L71.9377 47.3741C71.8255 47.0491 71.4028 47.0491 71.2897 47.3741Z" fill="#263238"/>
<path d="M78.7386 51.1987L79.1646 51.3146L79.6037 51.4445C79.9055 51.5508 80.1765 51.6763 80.4162 51.821C80.9754 52.1783 81.2554 52.7039 81.2554 53.3976C81.2554 54.0147 81.0292 54.5167 80.5761 54.9019C80.1411 55.288 79.5638 55.4806 78.8451 55.4806C78.2325 55.4806 77.691 55.3264 77.221 55.0178C76.9077 54.8034 76.6598 54.5455 76.4776 54.2439C76.3452 54.0243 76.4151 53.7279 76.6227 53.5946C76.8201 53.4682 77.0791 53.5257 77.2041 53.7349C77.5322 54.2814 78.0791 54.555 78.8451 54.555C79.866 54.555 80.3763 54.1698 80.3763 53.3976C80.3763 52.8381 79.9191 52.4284 79.0046 52.1679L78.5791 52.052L78.1395 51.9221C77.8377 51.8157 77.5668 51.6903 77.3271 51.5456C76.7679 51.1795 76.4879 50.6531 76.4879 49.9689C76.4879 49.3806 76.7013 48.8891 77.1272 48.4934C77.5709 48.0977 78.1169 47.8999 78.7649 47.8999C79.3064 47.8999 79.7813 48.0297 80.1892 48.2903C80.4581 48.4594 80.6818 48.6773 80.8623 48.9466C81.0074 49.1628 80.9466 49.4695 80.734 49.6038C80.5449 49.7231 80.3064 49.663 80.1773 49.4713C79.8878 49.0407 79.4162 48.8255 78.7649 48.8255C78.3657 48.8255 78.0368 48.9222 77.7802 49.1148C77.5051 49.3275 77.367 49.6116 77.367 49.9681C77.367 50.5285 77.8242 50.9381 78.7386 51.1987Z" fill="#263238"/>
<path d="M83.544 46.3371C83.4198 46.4722 83.2689 46.5393 83.0917 46.5393C82.9136 46.5393 82.7627 46.4722 82.6394 46.3371C82.5148 46.2021 82.4531 46.0382 82.4531 45.8456C82.4531 45.653 82.5148 45.4892 82.6394 45.354C82.7636 45.219 82.9145 45.1519 83.0917 45.1519C83.2689 45.1519 83.4198 45.2198 83.544 45.354C83.6681 45.4892 83.7302 45.653 83.7302 45.8456C83.731 46.0382 83.6681 46.2021 83.544 46.3371ZM83.0917 55.3071C82.8487 55.3071 82.6521 55.0936 82.6521 54.8295V48.5509C82.6521 48.2868 82.8487 48.0733 83.0917 48.0733C83.3347 48.0733 83.5312 48.2868 83.5312 48.5509V54.8304C83.5312 55.0936 83.3347 55.3071 83.0917 55.3071Z" fill="#263238"/>
<path d="M91.1188 48.4498C91.1188 48.2423 91.2734 48.0732 91.465 48.0732H91.6521C91.8429 48.0732 91.9987 48.2414 91.9987 48.4498V54.9315C91.9987 55.1389 91.8437 55.3071 91.6529 55.3071H91.4658C91.275 55.3071 91.1204 55.1389 91.1204 54.9315C91.1204 54.6029 90.7619 54.4356 90.5378 54.6569C89.9832 55.206 89.2805 55.4814 88.431 55.4814C87.4816 55.4814 86.6691 55.1154 85.9944 54.3815C85.3287 53.6485 84.9961 52.7517 84.9961 51.6902C84.9961 50.6295 85.3287 49.7318 85.9944 48.9988C86.6691 48.2658 87.4816 47.8989 88.431 47.8989C89.2805 47.8989 89.9832 48.1735 90.5378 48.7234C90.7603 48.9457 91.1188 48.7783 91.1188 48.4498ZM88.496 54.5549C89.2332 54.5549 89.854 54.2804 90.3598 53.7304C90.8659 53.1613 91.1188 52.4815 91.1188 51.6902C91.1188 50.8892 90.8659 50.2146 90.3598 49.6647C89.854 49.1052 89.2324 48.8254 88.496 48.8254C87.7591 48.8254 87.1383 49.1052 86.6321 49.6647C86.126 50.2146 85.8735 50.8901 85.8735 51.6902C85.8735 52.4815 86.126 53.1613 86.6321 53.7304C87.1383 54.2804 87.7591 54.5549 88.496 54.5549Z" fill="#263238"/>
</g>
<defs>
<linearGradient id="paint0_linear_519_2289" x1="12.3847" y1="56.6216" x2="23.5584" y2="44.8322" gradientUnits="userSpaceOnUse">
<stop stop-color="#FBB040"/>
<stop offset="1" stop-color="#EF4136"/>
</linearGradient>
<linearGradient id="paint1_linear_519_2289" x1="22.0315" y1="61.9627" x2="21.6017" y2="48.8091" gradientUnits="userSpaceOnUse">
<stop stop-color="#FBB040"/>
<stop offset="1" stop-color="#EF4136"/>
</linearGradient>
<linearGradient id="paint2_linear_519_2289" x1="25.5541" y1="46.3347" x2="25.5541" y2="54.008" gradientUnits="userSpaceOnUse">
<stop stop-color="#FBB040" stop-opacity="0.5"/>
<stop offset="1" stop-color="#EF4136" stop-opacity="0"/>
</linearGradient>
<linearGradient id="paint3_linear_519_2289" x1="30.9635" y1="39.8043" x2="15.5941" y2="52.415" gradientUnits="userSpaceOnUse">
<stop stop-color="#FBB040"/>
<stop offset="1" stop-color="#EF4136"/>
</linearGradient>
<linearGradient id="paint4_linear_519_2289" x1="13.2594" y1="56.3775" x2="20.7805" y2="49.0846" gradientUnits="userSpaceOnUse">
<stop stop-color="#FBB040" stop-opacity="0.5"/>
<stop offset="1" stop-color="#EF4136" stop-opacity="0"/>
</linearGradient>
<clipPath id="clip0_519_2289">
<rect width="81" height="21" fill="white" transform="translate(11 40)"/>
</clipPath>
</defs>
</svg>
