<svg width="275" height="188" viewBox="0 0 275 188" fill="none" xmlns="http://www.w3.org/2000/svg">
<g clip-path="url(#clip0_3979_35511)" filter="url(#filter0_d_3979_35511)">
<path d="M268.701 148.665H136.884C136.422 148.665 135.98 148.481 135.654 148.155C135.328 147.829 135.145 147.386 135.145 146.925V1.74081C135.145 1.27928 135.328 0.836807 135.654 0.510455C135.98 0.184104 136.422 0.000528006 136.884 0H268.701C269.162 0.000528006 269.604 0.184104 269.93 0.510455C270.256 0.836807 270.44 1.27928 270.44 1.74081V146.925C270.44 147.386 270.256 147.829 269.93 148.155C269.604 148.481 269.162 148.665 268.701 148.665V148.665ZM136.884 0.696325C136.607 0.696627 136.342 0.806768 136.146 1.00258C135.95 1.1984 135.84 1.46389 135.84 1.74081V146.925C135.84 147.201 135.95 147.467 136.146 147.663C136.342 147.859 136.607 147.969 136.884 147.969H268.701C268.978 147.969 269.243 147.859 269.439 147.663C269.634 147.467 269.744 147.201 269.744 146.925V1.74081C269.744 1.46389 269.634 1.1984 269.439 1.00258C269.243 0.806768 268.978 0.696627 268.701 0.696325H136.884Z" fill="#3F3D56"/>
<path d="M193.751 55.3583H161.057C160.596 55.3578 160.154 55.1742 159.828 54.8479C159.502 54.5215 159.319 54.079 159.318 53.6175V20.8902C159.319 20.4287 159.502 19.9862 159.828 19.6599C160.154 19.3335 160.596 19.1499 161.057 19.1494H193.751C194.212 19.1499 194.654 19.3335 194.98 19.6599C195.306 19.9862 195.489 20.4287 195.49 20.8902V53.6175C195.489 54.079 195.306 54.5215 194.98 54.8479C194.654 55.1742 194.212 55.3578 193.751 55.3583V55.3583ZM161.057 19.8457C160.781 19.846 160.516 19.9562 160.32 20.152C160.124 20.3478 160.014 20.6133 160.014 20.8902V53.6175C160.014 53.8944 160.124 54.1599 160.32 54.3557C160.516 54.5515 160.781 54.6617 161.057 54.662H193.751C194.027 54.6617 194.293 54.5515 194.488 54.3557C194.684 54.1599 194.794 53.8944 194.794 53.6175V20.8902C194.794 20.6133 194.684 20.3478 194.488 20.152C194.293 19.9562 194.027 19.846 193.751 19.8457H161.057Z" fill="#F2F2F2"/>
<path d="M184.36 59.3617H151.667C151.252 59.3612 150.854 59.196 150.56 58.9023C150.267 58.6086 150.102 58.2104 150.102 57.795V25.0677C150.102 24.6523 150.267 24.2541 150.56 23.9604C150.854 23.6667 151.252 23.5014 151.667 23.501H184.36C184.775 23.5014 185.173 23.6667 185.466 23.9604C185.76 24.2541 185.925 24.6523 185.925 25.0677V57.795C185.925 58.2104 185.76 58.6086 185.466 58.9023C185.173 59.196 184.775 59.3612 184.36 59.3617V59.3617Z" fill="#EF4C29"/>
<path d="M253.921 75.3776H151.667C151.252 75.3776 150.854 75.2125 150.56 74.9187C150.266 74.6249 150.102 74.2264 150.102 73.8109C150.102 73.3953 150.266 72.9968 150.56 72.703C150.854 72.4092 151.252 72.2441 151.667 72.2441H253.921C254.336 72.2441 254.734 72.4092 255.028 72.703C255.321 72.9968 255.486 73.3953 255.486 73.8109C255.486 74.2264 255.321 74.6249 255.028 74.9187C254.734 75.2125 254.336 75.3776 253.921 75.3776V75.3776Z" fill="#CCCCCC"/>
<path d="M229.227 86.1706H151.667C151.252 86.1706 150.854 86.0055 150.56 85.7117C150.266 85.4179 150.102 85.0194 150.102 84.6038C150.102 84.1883 150.266 83.7898 150.56 83.496C150.854 83.2022 151.252 83.0371 151.667 83.0371H229.227C229.642 83.0371 230.04 83.2022 230.334 83.496C230.627 83.7898 230.792 84.1883 230.792 84.6038C230.792 85.0194 230.627 85.4179 230.334 85.7117C230.04 86.0055 229.642 86.1706 229.227 86.1706V86.1706Z" fill="#CCCCCC"/>
<path d="M253.573 35.6862H208.358C207.943 35.6862 207.545 35.5211 207.251 35.2273C206.958 34.9335 206.793 34.535 206.793 34.1195C206.793 33.7039 206.958 33.3054 207.251 33.0116C207.545 32.7178 207.943 32.5527 208.358 32.5527H253.573C253.988 32.5527 254.386 32.7178 254.679 33.0116C254.973 33.3054 255.138 33.7039 255.138 34.1195C255.138 34.535 254.973 34.9335 254.679 35.2273C254.386 35.5211 253.988 35.6862 253.573 35.6862Z" fill="#CCCCCC"/>
<path d="M242.289 46.4801H208.358C207.943 46.4801 207.545 46.3151 207.251 46.0213C206.958 45.7274 206.793 45.3289 206.793 44.9134C206.793 44.4979 206.958 44.0994 207.251 43.8056C207.545 43.5117 207.943 43.3467 208.358 43.3467H242.289C242.704 43.3467 243.102 43.5117 243.395 43.8056C243.689 44.0994 243.854 44.4979 243.854 44.9134C243.854 45.3289 243.689 45.7274 243.395 46.0213C243.102 46.3151 242.704 46.4801 242.289 46.4801V46.4801Z" fill="#CCCCCC"/>
<path d="M253.921 96.9635H151.667C151.252 96.9635 150.854 96.7985 150.56 96.5047C150.266 96.2108 150.102 95.8123 150.102 95.3968C150.102 94.9813 150.266 94.5828 150.56 94.289C150.854 93.9951 151.252 93.8301 151.667 93.8301H253.921C254.336 93.8301 254.734 93.9951 255.028 94.289C255.321 94.5828 255.486 94.9813 255.486 95.3968C255.486 95.8123 255.321 96.2108 255.028 96.5047C254.734 96.7985 254.336 96.9635 253.921 96.9635V96.9635Z" fill="#CCCCCC"/>
<path d="M229.227 107.757H151.667C151.252 107.757 150.854 107.591 150.56 107.298C150.266 107.004 150.102 106.605 150.102 106.19C150.102 105.774 150.266 105.376 150.56 105.082C150.854 104.788 151.252 104.623 151.667 104.623H229.227C229.642 104.623 230.04 104.788 230.334 105.082C230.627 105.376 230.792 105.774 230.792 106.19C230.792 106.605 230.627 107.004 230.334 107.298C230.04 107.591 229.642 107.757 229.227 107.757V107.757Z" fill="#CCCCCC"/>
<path d="M253.921 118.549H151.667C151.252 118.549 150.854 118.384 150.56 118.091C150.266 117.797 150.102 117.398 150.102 116.983C150.102 116.567 150.266 116.169 150.56 115.875C150.854 115.581 151.252 115.416 151.667 115.416H253.921C254.336 115.416 254.734 115.581 255.028 115.875C255.321 116.169 255.486 116.567 255.486 116.983C255.486 117.398 255.321 117.797 255.028 118.091C254.734 118.384 254.336 118.549 253.921 118.549V118.549Z" fill="#CCCCCC"/>
<path d="M253.921 129.342H151.667C151.252 129.342 150.854 129.177 150.56 128.884C150.266 128.59 150.102 128.191 150.102 127.776C150.102 127.36 150.266 126.962 150.56 126.668C150.854 126.374 151.252 126.209 151.667 126.209H253.921C254.336 126.209 254.734 126.374 255.028 126.668C255.321 126.962 255.486 127.36 255.486 127.776C255.486 128.191 255.321 128.59 255.028 128.884C254.734 129.177 254.336 129.342 253.921 129.342V129.342Z" fill="#CCCCCC"/>
<path d="M171.466 135.195H96.6882C96.2272 135.195 95.7852 135.011 95.4592 134.685C95.1331 134.359 94.9497 133.916 94.9492 133.455V87.149C94.9497 86.6875 95.1331 86.245 95.4592 85.9187C95.7852 85.5923 96.2272 85.4087 96.6882 85.4082H171.466C171.927 85.4087 172.369 85.5923 172.695 85.9187C173.021 86.245 173.204 86.6875 173.205 87.149V133.455C173.204 133.916 173.021 134.359 172.695 134.685C172.369 135.011 171.927 135.195 171.466 135.195Z" fill="white"/>
<path d="M171.466 135.195H96.6882C96.2272 135.195 95.7852 135.011 95.4592 134.685C95.1331 134.359 94.9497 133.916 94.9492 133.455V87.149C94.9497 86.6875 95.1331 86.245 95.4592 85.9187C95.7852 85.5923 96.2272 85.4087 96.6882 85.4082H171.466C171.927 85.4087 172.369 85.5923 172.695 85.9187C173.021 86.245 173.204 86.6875 173.205 87.149V133.455C173.204 133.916 173.021 134.359 172.695 134.685C172.369 135.011 171.927 135.195 171.466 135.195ZM96.6882 86.1045C96.4116 86.1048 96.1464 86.215 95.9508 86.4108C95.7552 86.6066 95.6451 86.8721 95.6448 87.149V133.455C95.6451 133.732 95.7552 133.997 95.9508 134.193C96.1464 134.389 96.4116 134.499 96.6882 134.499H171.466C171.743 134.499 172.008 134.389 172.203 134.193C172.399 133.997 172.509 133.732 172.509 133.455V87.149C172.509 86.8721 172.399 86.6066 172.203 86.4108C172.008 86.215 171.743 86.1048 171.466 86.1045H96.6882Z" fill="#3F3D56"/>
<path d="M156.684 106.472H111.469C111.054 106.472 110.656 106.307 110.363 106.013C110.069 105.72 109.904 105.321 109.904 104.906C109.904 104.49 110.069 104.092 110.363 103.798C110.656 103.504 111.054 103.339 111.469 103.339H156.684C157.099 103.339 157.497 103.504 157.791 103.798C158.084 104.092 158.249 104.49 158.249 104.906C158.249 105.321 158.084 105.72 157.791 106.013C157.497 106.307 157.099 106.472 156.684 106.472V106.472Z" fill="#CCCCCC"/>
<path d="M156.684 117.265H111.469C111.054 117.265 110.656 117.1 110.363 116.806C110.069 116.513 109.904 116.114 109.904 115.699C109.904 115.283 110.069 114.885 110.363 114.591C110.656 114.297 111.054 114.132 111.469 114.132H156.684C157.099 114.132 157.497 114.297 157.791 114.591C158.084 114.885 158.249 115.283 158.249 115.699C158.249 116.114 158.084 116.513 157.791 116.806C157.497 117.1 157.099 117.265 156.684 117.265Z" fill="#CCCCCC"/>
<path d="M84.112 175.784H88.3761L90.4045 159.32L84.1113 159.321L84.112 175.784Z" fill="#FFC3BD"/>
<path d="M83.0234 174.391L91.4208 174.391H91.4212C92.8404 174.391 94.2015 174.955 95.2051 175.96C96.2087 176.964 96.7725 178.327 96.7726 179.748V179.922L83.0237 179.922L83.0234 174.391Z" fill="#2F2E41"/>
<path d="M50.9102 173.936L55.1262 174.574L59.5906 158.599L54.0637 157.657L50.9102 173.936Z" fill="#FFC3BD"/>
<path d="M50.0425 172.396L58.3456 173.652L58.3459 173.652C59.7492 173.864 61.0108 174.626 61.853 175.77C62.6953 176.913 63.0494 178.345 62.8373 179.749L62.8113 179.921L49.2168 177.865L50.0425 172.396Z" fill="#2F2E41"/>
<path d="M64.0565 94.1934L68.7909 95.4351L68.476 103.119L68.4369 117.109C68.9034 117.432 69.2609 117.889 69.4622 118.419C69.6635 118.95 69.6991 119.53 69.5642 120.081C69.4294 120.632 69.1305 121.13 68.7071 121.508C68.2837 121.885 67.7557 122.125 67.193 122.196C66.6302 122.267 66.0593 122.165 65.5557 121.904C65.0521 121.643 64.6396 121.235 64.3726 120.734C64.1057 120.233 63.997 119.663 64.0608 119.099C64.1247 118.535 64.3581 118.003 64.7303 117.575L63.2754 103.534L64.0565 94.1934Z" fill="#FFC3BD"/>
<path d="M63.2331 85.3917C63.2592 84.6491 63.4984 83.9297 63.9221 83.3196C64.3457 82.7095 64.936 82.2344 65.6222 81.9512C66.2645 81.6635 66.9768 81.5698 67.6716 81.6816C68.3665 81.7935 69.0135 82.106 69.5333 82.5809C69.907 82.9151 70.2033 83.3268 70.4017 83.7874C70.6 84.2481 70.6956 84.7464 70.6817 85.2478C70.6942 89.7491 69.6791 96.3102 69.6688 96.3758L69.6526 96.4802L62.7324 98.8129L63.2331 85.3917Z" fill="#EF4C29"/>
<path d="M75.6067 98.1694L86.1913 95.4268L91.084 111.922L91.2579 173.373L83.1639 173.322L79.7804 123.585L58.2166 169.543L49.5215 168.498L68.4768 119.233C68.4768 119.233 67.4334 110.529 70.7375 106.177L70.0419 101.651L75.6067 98.1694Z" fill="#2F2E41"/>
<path d="M68.4701 102.273C68.3221 102.093 68.2146 101.883 68.1549 101.658C68.0952 101.433 68.0847 101.197 68.124 100.967L63.296 86.4682C63.0707 85.7904 63.0467 85.0617 63.2271 84.3705C63.4075 83.6794 63.7846 83.0555 64.3124 82.5748L66.4083 80.6677L67.8286 74.9805L75.9921 76.978L75.3195 79.6711L79.014 78.999L86.7958 96.3486L70.5299 102.857L69.7288 102.869C69.4879 102.87 69.25 102.817 69.0322 102.713C68.8145 102.61 68.6224 102.46 68.4701 102.273V102.273Z" fill="#EF4C29"/>
<path d="M79.8008 90.0317L84.4651 88.5479L88.3019 95.2103L95.7392 107.055C96.3059 107.078 96.8521 107.273 97.3056 107.614C97.7592 107.955 98.0986 108.425 98.2791 108.964C98.4597 109.502 98.4727 110.082 98.3165 110.628C98.1603 111.174 97.8423 111.659 97.4046 112.02C96.9668 112.381 96.4299 112.6 95.8648 112.649C95.2998 112.698 94.7332 112.574 94.2402 112.293C93.7471 112.013 93.3507 111.589 93.1035 111.078C92.8562 110.567 92.7697 109.993 92.8555 109.432L84.1283 98.3438L79.8008 90.0317Z" fill="#FFC3BD"/>
<path d="M74.4047 83.0343C74.0303 82.3928 73.8483 81.6569 73.8806 80.9146C73.9129 80.1723 74.158 79.455 74.5867 78.8485C74.9762 78.2618 75.5282 77.8017 76.1751 77.5245C76.822 77.2472 77.5356 77.165 78.2285 77.2879C78.7227 77.3704 79.193 77.5599 79.6066 77.843C80.0202 78.1262 80.3671 78.4963 80.6231 78.9274C83.0372 82.7249 85.6827 88.8133 85.7091 88.8742L85.7511 88.9711L81.1482 94.6454L74.4047 83.0343Z" fill="#EF4C29"/>
<path d="M73.869 73.9222C77.4512 73.9222 80.3551 71.0153 80.3551 67.4294C80.3551 63.8435 77.4512 60.9365 73.869 60.9365C70.2868 60.9365 67.3828 63.8435 67.3828 67.4294C67.3828 71.0153 70.2868 73.9222 73.869 73.9222Z" fill="#FFC3BD"/>
<path d="M62.406 64.6911C65.8566 64.6911 68.6538 61.891 68.6538 58.4369C68.6538 54.9827 65.8566 52.1826 62.406 52.1826C58.9554 52.1826 56.1582 54.9827 56.1582 58.4369C56.1582 61.891 58.9554 64.6911 62.406 64.6911Z" fill="#2F2E41"/>
<path d="M57.016 63.6154C57.8247 64.2005 58.7616 64.5832 59.7483 64.7315C60.735 64.8798 61.7428 64.7895 62.6875 64.4679C63.6321 64.1464 64.4861 63.6031 65.178 62.8834C65.8699 62.1637 66.3795 61.2887 66.6643 60.3314C66.5565 61.1893 66.2723 62.0154 65.8295 62.7578C65.3866 63.5001 64.7949 64.1425 64.0916 64.6443C63.3882 65.1461 62.5886 65.4966 61.7431 65.6734C60.8977 65.8503 60.0248 65.8498 59.1795 65.6719C58.3343 65.494 57.5351 65.1427 56.8323 64.64C56.1296 64.1373 55.5386 63.4943 55.0967 62.7514C54.6547 62.0085 54.3714 61.182 54.2647 60.3241C54.158 59.4661 54.2301 58.5953 54.4765 57.7666C54.3365 58.8799 54.4985 60.0104 54.9453 61.0395C55.3921 62.0686 56.1074 62.9584 57.016 63.6154V63.6154Z" fill="#2F2E41"/>
<path d="M81.6729 63.6228C80.5822 61.6681 80.1649 60.8516 78.7585 59.6629C77.5149 58.6117 75.9852 58.303 74.7514 59.2991C73.2918 58.6678 71.6677 58.5246 70.1203 58.8909C68.573 59.2572 67.185 60.1133 66.1624 61.3322C65.1398 62.551 64.5373 64.0675 64.4443 65.6564C64.3513 67.2454 64.7728 68.822 65.6462 70.152C66.5196 71.482 67.7982 72.4946 69.2923 73.0392C70.7863 73.5839 72.416 73.6316 73.9392 73.1752C75.4625 72.7189 76.7981 71.7828 77.7476 70.5061C78.6971 69.2294 79.2099 67.6802 79.2097 66.0885C79.2086 65.809 79.1918 65.5298 79.1594 65.2522C80.2319 65.1014 80.6004 63.7736 81.6729 63.6228Z" fill="#2F2E41"/>
<path d="M136.861 180H4.3478C4.25556 180 4.16709 179.963 4.10187 179.898C4.03664 179.833 4 179.744 4 179.652C4 179.56 4.03664 179.471 4.10187 179.406C4.16709 179.34 4.25556 179.304 4.3478 179.304H136.861C136.953 179.304 137.042 179.34 137.107 179.406C137.172 179.471 137.209 179.56 137.209 179.652C137.209 179.744 137.172 179.833 137.107 179.898C137.042 179.963 136.953 180 136.861 180Z" fill="#CCCCCC"/>
</g>
<defs>
<filter id="filter0_d_3979_35511" x="0" y="0" width="274.441" height="188" filterUnits="userSpaceOnUse" color-interpolation-filters="sRGB">
<feFlood flood-opacity="0" result="BackgroundImageFix"/>
<feColorMatrix in="SourceAlpha" type="matrix" values="0 0 0 0 0 0 0 0 0 0 0 0 0 0 0 0 0 0 127 0" result="hardAlpha"/>
<feOffset dy="4"/>
<feGaussianBlur stdDeviation="2"/>
<feComposite in2="hardAlpha" operator="out"/>
<feColorMatrix type="matrix" values="0 0 0 0 0 0 0 0 0 0 0 0 0 0 0 0 0 0 0.25 0"/>
<feBlend mode="normal" in2="BackgroundImageFix" result="effect1_dropShadow_3979_35511"/>
<feBlend mode="normal" in="SourceGraphic" in2="effect1_dropShadow_3979_35511" result="shape"/>
</filter>
<clipPath id="clip0_3979_35511">
<rect width="266.441" height="180" fill="white" transform="translate(4)"/>
</clipPath>
</defs>
</svg>
