<svg width="202" height="180" viewBox="0 0 202 180" fill="none" xmlns="http://www.w3.org/2000/svg">
<g clip-path="url(#clip0_3979_35488)">
<path d="M20.6361 66.325L12.9603 74.9491C19.337 77.6601 25.7918 73.8965 28.4378 72.0096C36.9816 76.7152 46.9931 77.9815 56.4354 75.5509C65.8778 73.1203 74.0414 67.1753 79.2655 58.9256C84.4895 50.6759 86.3814 40.7413 84.5563 31.1431C82.7311 21.5448 77.326 13.0041 69.4408 7.2586C61.5555 1.5131 51.7824 -1.00551 42.11 0.215212C32.4376 1.43593 23.5926 6.30428 17.3746 13.8297C11.1566 21.3551 8.03272 30.9723 8.63862 40.7244C9.24451 50.4765 13.5346 59.6309 20.6361 66.3251V66.325Z" fill="#E6E6E6"/>
<path d="M26.216 32.0365C34.1347 31.9539 42.0524 31.812 49.9708 31.7042C52.6106 31.6682 55.2504 31.6367 57.8903 31.6097C60.165 31.5859 60.1708 28.0408 57.8903 28.0646C49.9716 28.1472 42.0539 28.2891 34.1355 28.3969C31.4957 28.4329 28.8559 28.4644 26.216 28.4914C23.9413 28.5152 23.9355 32.0603 26.216 32.0365V32.0365Z" fill="white"/>
<path d="M26.216 40.309L58.2202 39.9766L67.3224 39.8821C69.597 39.8585 69.6028 36.3134 67.3224 36.337L35.3181 36.6694L26.216 36.7639C23.9413 36.7875 23.9355 40.3327 26.216 40.309V40.309Z" fill="white"/>
<path d="M26.216 48.5805L58.2202 48.2481L67.3224 48.1536C69.597 48.13 69.6028 44.5848 67.3224 44.6085L35.3181 44.9409L26.216 45.0354C23.9413 45.059 23.9355 48.6042 26.216 48.5805V48.5805Z" fill="white"/>
<path d="M2.78844 82.408C4.32846 82.408 5.57688 81.1567 5.57688 79.6132C5.57688 78.0696 4.32846 76.8184 2.78844 76.8184C1.24843 76.8184 0 78.0696 0 79.6132C0 81.1567 1.24843 82.408 2.78844 82.408Z" fill="#E6E6E6"/>
<path d="M141.371 96.4749L139.812 106.226C139.715 106.837 139.484 107.419 139.138 107.932C138.791 108.444 138.336 108.873 137.806 109.19C137.276 109.507 136.682 109.703 136.068 109.765C135.454 109.827 134.834 109.753 134.251 109.548V109.548C133.671 109.344 133.143 109.016 132.703 108.587C132.263 108.157 131.922 107.637 131.704 107.062C131.485 106.486 131.395 105.87 131.438 105.256C131.482 104.642 131.659 104.045 131.957 103.507L137.029 94.3387L156.635 55.0881C157.407 53.7829 158.588 52.7703 159.994 52.2084C161.4 51.6465 162.952 51.5668 164.408 51.9817L166.485 52.5737L163.396 61.6533L141.371 96.4749Z" fill="#FFC3BD"/>
<path d="M195.478 165.029L200.067 164.787L194.995 147.84L187.748 149.293L195.478 165.029Z" fill="#FFC3BD"/>
<path d="M149.582 168.176H154.655L157.312 151.713H149.582V168.176Z" fill="#FFC3BD"/>
<path d="M157.623 29.1067C157.623 32.7206 159.045 36.1886 161.581 38.7575C164.117 41.3265 167.562 42.7889 171.167 42.8272C174.773 42.8656 178.248 41.4767 180.838 38.9622C183.427 36.4478 184.923 33.0108 184.999 29.3978C185.003 29.3021 185.003 29.2023 185.003 29.1067C185.004 27.3043 184.651 25.5193 183.963 23.8538C183.275 22.1883 182.267 20.6749 180.996 19.4001C179.724 18.1253 178.215 17.114 176.554 16.424C174.892 15.734 173.111 15.3789 171.313 15.3789C169.515 15.3789 167.734 15.734 166.073 16.424C164.411 17.114 162.902 18.1253 161.63 19.4001C160.359 20.6749 159.351 22.1883 158.663 23.8538C157.976 25.5193 157.622 27.3043 157.623 29.1067Z" fill="#2F2E41"/>
<path d="M177.121 21.6224C181.016 21.6224 184.173 18.4577 184.173 14.5539C184.173 10.65 181.016 7.48535 177.121 7.48535C173.226 7.48535 170.068 10.65 170.068 14.5539C170.068 18.4577 173.226 21.6224 177.121 21.6224Z" fill="#2F2E41"/>
<path d="M176.385 19.9567C177.746 20.4553 179.228 20.5214 180.628 20.146C182.028 19.7706 183.278 18.9721 184.209 17.859C185.14 16.7459 185.706 15.3723 185.831 13.9252C185.955 12.4781 185.631 11.0277 184.904 9.77148C185.57 10.5047 186.074 11.3701 186.385 12.3114C186.695 13.2528 186.804 14.2492 186.705 15.2356C186.606 16.2221 186.301 17.1767 185.81 18.0373C185.319 18.8979 184.653 19.6453 183.854 20.2309C183.056 20.8165 182.144 21.2272 181.177 21.4362C180.21 21.6453 179.21 21.6482 178.242 21.4445C177.274 21.2409 176.359 20.8354 175.558 20.2543C174.756 19.6732 174.086 18.9296 173.59 18.0718C174.355 18.9184 175.315 19.5653 176.385 19.9567V19.9567Z" fill="#2F2E41"/>
<path d="M170.232 44.1683C174.601 44.1683 178.142 40.6189 178.142 36.2404C178.142 31.8619 174.601 28.3125 170.232 28.3125C165.864 28.3125 162.322 31.8619 162.322 36.2404C162.322 40.6189 165.864 44.1683 170.232 44.1683Z" fill="#FFC3BD"/>
<path d="M175.911 39.1338C175.911 39.1338 176.636 48.3339 181.225 50.2707L163.35 66.734L157.553 64.0708L161.659 52.4497C161.659 52.4497 171.08 50.5128 167.215 42.0391L175.911 39.1338Z" fill="#FFC3BD"/>
<path d="M145.475 153.166L158.519 153.892L164.557 108.376L180.259 153.65L195.96 148.566L180.5 96.7546C176.52 82.4225 179.869 66.6719 185.331 50.5121L179.292 48.8174L165.524 50.7542C164.1 50.7564 162.703 51.1395 161.476 51.8638C160.25 52.5882 159.239 53.6275 158.547 54.8746C155.155 60.9611 152.703 66.8661 154.702 71.9105C146.686 92.9386 144.958 121.676 145.475 153.166Z" fill="#2F2E41"/>
<path d="M184.124 100.629L180.77 109.915C180.559 110.496 180.479 111.117 180.535 111.734C180.59 112.35 180.78 112.947 181.09 113.481C181.401 114.016 181.825 114.476 182.332 114.829C182.839 115.181 183.418 115.418 184.026 115.522V115.522C184.632 115.626 185.252 115.596 185.845 115.434C186.437 115.272 186.988 114.983 187.457 114.586C187.926 114.189 188.304 113.694 188.562 113.136C188.821 112.578 188.955 111.97 188.955 111.354V100.871L190.798 57.0147C190.754 55.4981 190.211 54.0386 189.253 52.8638C188.295 51.689 186.977 50.8649 185.502 50.5202L183.399 50.0283L181.709 59.4705L184.124 100.629Z" fill="#FFC3BD"/>
<path d="M197.12 178.486C198.092 178.514 199.045 178.209 199.82 177.621C200.595 177.032 201.147 176.196 201.383 175.25L201.543 174.606C202.312 171.526 202.108 168.282 200.959 165.322L199.343 161.155L194.511 163.334L193.025 173.599C192.938 174.196 192.979 174.804 193.143 175.383C193.308 175.963 193.593 176.501 193.98 176.962C194.366 177.424 194.846 177.798 195.387 178.061C195.928 178.323 196.519 178.468 197.12 178.486V178.486Z" fill="#2F2E41"/>
<path d="M141.813 179.469C142.342 179.792 142.944 179.974 143.562 179.997C144.181 180.021 144.795 179.886 145.347 179.606L154.546 174.413C155.142 174.076 155.62 173.562 155.912 172.942C156.205 172.321 156.298 171.625 156.179 170.95L155.137 165.029H149.34L141.055 173.863C140.684 174.258 140.406 174.731 140.241 175.247C140.077 175.764 140.029 176.31 140.101 176.847C140.174 177.384 140.365 177.899 140.661 178.352C140.958 178.806 141.351 179.187 141.813 179.469V179.469Z" fill="#2F2E41"/>
<path d="M157.746 27.2558C159.891 32.4657 165.433 36.1746 171.934 36.1746C177.501 36.1746 182.367 33.4553 184.998 29.3971C185.002 29.3015 185.002 29.2017 185.002 29.1061C185.002 25.6274 183.683 22.2787 181.314 19.7372C178.944 17.1957 175.699 15.6512 172.237 15.4162C168.774 15.1811 165.351 16.273 162.661 18.4709C159.971 20.6689 158.214 23.8089 157.746 27.2558V27.2558Z" fill="#2F2E41"/>
<path d="M133.64 67.7808C133.636 59.3759 130.878 51.2048 125.79 44.5244C120.701 37.8439 113.564 33.0239 105.475 30.8058C97.3867 28.5878 88.7952 29.0944 81.022 32.2478C73.2489 35.4012 66.7246 41.0267 62.4526 48.2592C58.1806 55.4916 56.3974 63.9305 57.3775 72.2778C58.3575 80.625 62.0464 88.4185 67.8768 94.4594C73.7073 100.5 81.3563 104.454 89.6474 105.713C97.9386 106.972 106.413 105.465 113.767 101.426C116.412 103.313 122.867 107.077 129.244 104.365L121.568 95.7414C125.384 92.1581 128.424 87.8273 130.501 83.0175C132.577 78.2077 133.646 73.0215 133.64 67.7808Z" fill="#EF4C29"/>
<path d="M75.7941 61.4526C83.7128 61.3699 91.6305 61.228 99.5489 61.1202C102.189 61.0843 104.829 61.0527 107.468 61.0257C109.743 61.0019 109.749 57.4568 107.468 57.4806C99.5497 57.5632 91.632 57.7051 83.7137 57.8129C81.0739 57.8489 78.434 57.8804 75.7941 57.9075C73.5195 57.9312 73.5136 61.4764 75.7941 61.4526V61.4526Z" fill="white"/>
<path d="M75.7941 69.725L107.798 69.3927L116.901 69.2981C119.175 69.2745 119.181 65.7294 116.901 65.753L84.8962 66.0854L75.7941 66.1799C73.5195 66.2036 73.5137 69.7487 75.7941 69.725V69.725Z" fill="white"/>
<path d="M75.7941 77.9965L107.798 77.6641L116.901 77.5696C119.175 77.546 119.181 74.0009 116.901 74.0245L84.8962 74.3569L75.7941 74.4514C73.5195 74.475 73.5137 78.0202 75.7941 77.9965Z" fill="white"/>
</g>
<defs>
<clipPath id="clip0_3979_35488">
<rect width="202" height="180" fill="white"/>
</clipPath>
</defs>
</svg>
