<svg width="122" height="122" viewBox="0 0 122 122" fill="none" xmlns="http://www.w3.org/2000/svg">
<g clip-path="url(#clip0_6965_59529)">
<path d="M0 15.25C0 13.2277 0.803346 11.2883 2.23331 9.85831C3.66328 8.42835 5.60272 7.625 7.625 7.625H114.375C116.397 7.625 118.337 8.42835 119.767 9.85831C121.197 11.2883 122 13.2277 122 15.25V30.5C122 32.5223 121.197 34.4617 119.767 35.8917C118.337 37.3217 116.397 38.125 114.375 38.125V95.3125C114.375 100.368 112.367 105.217 108.792 108.792C105.217 112.367 100.368 114.375 95.3125 114.375H26.6875C21.6318 114.375 16.7832 112.367 13.2083 108.792C9.63336 105.217 7.625 100.368 7.625 95.3125V38.125C5.60272 38.125 3.66328 37.3217 2.23331 35.8917C0.803346 34.4617 0 32.5223 0 30.5V15.25ZM15.25 38.125V95.3125C15.25 98.3459 16.455 101.255 18.6 103.4C20.7449 105.545 23.6541 106.75 26.6875 106.75H95.3125C98.3459 106.75 101.255 105.545 103.4 103.4C105.545 101.255 106.75 98.3459 106.75 95.3125V38.125H15.25ZM114.375 15.25H7.625V30.5H114.375V15.25ZM38.125 57.1875C38.125 56.1764 38.5267 55.2066 39.2417 54.4917C39.9566 53.7767 40.9264 53.375 41.9375 53.375H80.0625C81.0736 53.375 82.0434 53.7767 82.7583 54.4917C83.4733 55.2066 83.875 56.1764 83.875 57.1875C83.875 58.1986 83.4733 59.1684 82.7583 59.8833C82.0434 60.5983 81.0736 61 80.0625 61H41.9375C40.9264 61 39.9566 60.5983 39.2417 59.8833C38.5267 59.1684 38.125 58.1986 38.125 57.1875Z" fill="#85848B" stroke="#85848B" stroke-width="2"/>
</g>
<defs>
<clipPath id="clip0_6965_59529">
<rect width="122" height="122" fill="white"/>
</clipPath>
</defs>
</svg>
