<svg width="44" height="44" viewBox="0 0 44 44" fill="none" xmlns="http://www.w3.org/2000/svg">
<path d="M44 22C44 34.1503 34.1503 44 22 44C9.84974 44 0 34.1503 0 22C0 9.84974 9.84974 0 22 0C34.1503 0 44 9.84974 44 22Z" fill="#E16146"/>
<path fill-rule="evenodd" clip-rule="evenodd" d="M15.25 17.5V13.1667H13.0757C12.4821 13.1667 12 13.6487 12 14.2424V31.5909C12.0003 31.8761 12.1137 32.1496 12.3154 32.3513C12.5171 32.5529 12.7905 32.6664 13.0757 32.6667H30.4242C30.7095 32.6664 30.9829 32.5529 31.1846 32.3513C31.3863 32.1496 31.4997 31.8761 31.5 31.5909V14.2424C31.5 13.6487 31.0179 13.1667 30.4242 13.1667H28.25V17.5H15.25ZM16.3333 29.4167V27.25H18.5V29.4167H16.3333ZM16.3333 26.1667V24H18.5V26.1667H16.3333ZM16.3333 22.9167V20.75H18.5V22.9167H16.3333Z" fill="white"/>
<path d="M26.0833 11V15.3333H17.4167V11H26.0833Z" fill="white"/>
</svg>
