<svg width="328" height="202" viewBox="0 0 328 202" fill="none" xmlns="http://www.w3.org/2000/svg">
<rect x="21.2754" y="25.708" width="282.789" height="20.3892" rx="10.1946" fill="#FDEDEA"/>
<rect x="96.627" y="5.31885" width="164.886" height="20.3892" rx="10.1946" fill="#FDEDEA"/>
<rect x="39.8916" y="46.0972" width="282.789" height="20.3892" rx="10.1946" fill="#FDEDEA"/>
<rect y="66.4863" width="282.789" height="20.3892" rx="10.1946" fill="#FDEDEA"/>
<rect x="45.2109" y="86.8755" width="282.789" height="20.3892" rx="10.1946" fill="#FDEDEA"/>
<rect x="88.6484" y="124.108" width="219.849" height="20.3892" rx="10.1946" fill="#FDEDEA"/>
<rect x="141.838" y="144.497" width="140.951" height="20.3892" rx="10.1946" fill="#FDEDEA"/>
<rect x="15.0703" y="160.454" width="112.584" height="20.3892" rx="10.1946" fill="#FDEDEA"/>
<rect x="44.3242" y="180.843" width="97.5135" height="20.3892" rx="10.1946" fill="#FDEDEA"/>
<rect x="148.043" y="180.843" width="45.2108" height="20.3892" rx="10.1946" fill="#FDEDEA"/>
<path d="M166.659 160.454C203.868 160.454 234.032 130.29 234.032 93.081C234.032 55.8719 203.868 25.708 166.659 25.708C129.45 25.708 99.2861 55.8719 99.2861 93.081C99.2861 130.29 129.45 160.454 166.659 160.454Z" fill="#EF4C29"/>
<path d="M161.443 119.676C161.297 119.676 161.15 119.672 161.003 119.665C159.71 119.602 158.446 119.257 157.298 118.656C156.149 118.054 155.144 117.209 154.35 116.178L143.726 102.407C142.266 100.51 141.611 98.1053 141.906 95.7217C142.202 93.3382 143.422 91.1701 145.301 89.6932L145.682 89.3944C147.564 87.9215 149.948 87.2613 152.313 87.5587C154.677 87.856 156.828 89.0866 158.293 90.9805C158.77 91.5993 159.374 92.1068 160.064 92.4682C160.753 92.8296 161.512 93.0363 162.288 93.0742C163.065 93.12 163.842 92.9923 164.565 92.7C165.287 92.4078 165.937 91.9583 166.467 91.3837L188.036 68.4245C189.676 66.6829 191.934 65.6684 194.315 65.6034C196.696 65.5384 199.006 66.4283 200.737 68.0779L201.088 68.4121C202.816 70.0658 203.823 72.3433 203.888 74.7447C203.952 77.1462 203.07 79.4754 201.433 81.2214L167.963 116.847C167.124 117.741 166.113 118.453 164.992 118.939C163.871 119.426 162.663 119.676 161.443 119.676V119.676Z" fill="white"/>
<path opacity="0.16" d="M166.659 150.893C149.614 150.891 133.204 144.376 120.735 132.66C108.267 120.945 100.668 104.901 99.4708 87.7622C99.3616 89.3432 99.2861 90.9336 99.2861 92.5427C99.2861 110.554 106.384 127.827 119.019 140.563C131.654 153.299 148.791 160.454 166.659 160.454C184.527 160.454 201.664 153.299 214.299 140.563C226.934 127.827 234.032 110.554 234.032 92.5427C234.032 90.9336 233.957 89.3432 233.847 87.7622C232.65 104.901 225.051 120.945 212.583 132.66C200.115 144.376 183.704 150.891 166.659 150.893V150.893Z" fill="#231F20"/>
<path d="M37.8916 9.30811C37.8916 13.3443 34.6197 16.6162 30.5835 16.6162C26.5473 16.6162 23.2754 13.3443 23.2754 9.30811C23.2754 5.27195 26.5473 2 30.5835 2C34.6197 2 37.8916 5.27195 37.8916 9.30811Z" stroke="#EF4C29" stroke-width="4"/>
<path d="M255.968 183.946C255.968 188.961 251.902 193.027 246.887 193.027C241.871 193.027 237.806 188.961 237.806 183.946C237.806 178.93 241.871 174.865 246.887 174.865C251.902 174.865 255.968 178.93 255.968 183.946Z" stroke="#EF4C29" stroke-width="4"/>
<path d="M28.1406 161.784C28.1406 165.82 24.8687 169.092 20.8325 169.092C16.7964 169.092 13.5244 165.82 13.5244 161.784C13.5244 157.748 16.7964 154.476 20.8325 154.476C24.8687 154.476 28.1406 157.748 28.1406 161.784Z" stroke="#EF4C29" stroke-width="4"/>
<path d="M265.332 108.595C265.332 111.928 262.63 114.63 259.297 114.63C255.964 114.63 253.262 111.928 253.262 108.595C253.262 105.262 255.964 102.56 259.297 102.56C262.63 102.56 265.332 105.262 265.332 108.595Z" stroke="#EF4C29" stroke-width="3"/>
<path d="M78.4543 139.178C82.1263 139.178 85.103 136.201 85.103 132.53C85.103 128.858 82.1263 125.881 78.4543 125.881C74.7824 125.881 71.8057 128.858 71.8057 132.53C71.8057 136.201 74.7824 139.178 78.4543 139.178Z" fill="#EF4C29"/>
<path d="M50.5299 54.0758C53.4674 54.0758 55.8488 51.6945 55.8488 48.7569C55.8488 45.8193 53.4674 43.438 50.5299 43.438C47.5923 43.438 45.2109 45.8193 45.2109 48.7569C45.2109 51.6945 47.5923 54.0758 50.5299 54.0758Z" fill="#EF4C29"/>
<path d="M293.427 75.3513C297.833 75.3513 301.405 71.7792 301.405 67.3729C301.405 62.9666 297.833 59.3945 293.427 59.3945C289.02 59.3945 285.448 62.9666 285.448 67.3729C285.448 71.7792 289.02 75.3513 293.427 75.3513Z" fill="#EF4C29"/>
<path d="M245.113 13.2973C248.785 13.2973 251.762 10.3206 251.762 6.64865C251.762 2.9767 248.785 0 245.113 0C241.442 0 238.465 2.9767 238.465 6.64865C238.465 10.3206 241.442 13.2973 245.113 13.2973Z" fill="#EF4C29"/>
</svg>
