<svg width="197" height="47" viewBox="0 0 197 47" fill="none" xmlns="http://www.w3.org/2000/svg">
<path d="M51.1617 34.7036C48.9653 34.7036 47.1181 34.2121 45.6181 33.2309C44.83 32.714 44.1649 32.1015 43.6207 31.3896C42.8229 30.344 43.1155 28.8343 44.2507 28.1711L44.2956 28.1438C45.2358 27.5937 46.4217 27.8356 47.1142 28.6763C48.0739 29.8427 49.4647 30.4279 51.2846 30.4279C52.5096 30.4279 53.4069 30.2055 53.9764 29.7628C54.546 29.32 54.8308 28.7601 54.8308 28.0833C54.8308 27.303 54.4817 26.6944 53.7853 26.2614C53.0889 25.8284 51.8425 25.3583 50.0479 24.8511C49.0551 24.5566 48.2163 24.2601 47.5297 23.9636C46.8431 23.6691 46.1565 23.2731 45.4698 22.7757C44.7832 22.2802 44.2605 21.6521 43.9016 20.8914C43.5426 20.1307 43.3632 19.2451 43.3632 18.2308C43.3632 16.2255 44.0752 14.626 45.5011 13.4323C46.9269 12.2404 48.6415 11.6436 50.6487 11.6436C52.4433 11.6436 54.0213 12.0824 55.3848 12.9583C56.0441 13.3815 56.6332 13.8868 57.1501 14.4719C58.0474 15.4843 57.7977 17.0604 56.6273 17.7373C55.7613 18.2366 54.6514 18.0786 53.9901 17.3276C53.1435 16.3679 52.0278 15.8881 50.6487 15.8881C49.7397 15.8881 49.0278 16.0948 48.5108 16.5064C47.9939 16.918 47.7345 17.4525 47.7345 18.1059C47.7345 18.8023 48.0251 19.368 48.6064 19.801C49.1877 20.234 50.3015 20.7041 51.9478 21.2113C52.6227 21.422 53.1357 21.5858 53.4829 21.7028C53.8321 21.8199 54.3061 21.9993 54.9088 22.2412C55.5116 22.485 55.9739 22.7113 56.3016 22.922C56.6293 23.1326 57.0038 23.4194 57.4251 23.7763C57.8465 24.1353 58.1703 24.5039 58.3907 24.8843C58.613 25.2647 58.8023 25.723 58.9603 26.2614C59.1183 26.7998 59.1982 27.385 59.1982 28.0189C59.1982 30.0671 58.4531 31.6939 56.9648 32.8974C55.4843 34.1009 53.5473 34.7036 51.1617 34.7036Z" fill="#263238"/>
<path d="M74.3625 18.4219C75.4899 18.4219 76.4047 19.3367 76.4047 20.4642V32.8759C76.4047 33.6386 75.7864 34.2589 75.0218 34.2589H73.6563C72.9171 34.2589 72.3182 33.66 72.3182 32.9207C72.3182 32.7862 72.1485 32.7257 72.0646 32.831C71.0659 34.0794 69.5776 34.7036 67.5977 34.7036C65.8656 34.7036 64.4358 34.1223 63.3064 32.9617C62.177 31.8011 61.6113 30.1958 61.6113 28.1476V20.4661C61.6113 19.3387 62.5262 18.4238 63.6536 18.4238C64.7811 18.4238 65.6959 19.3387 65.6959 20.4661V27.6405C65.6959 28.6957 65.9807 29.5033 66.5503 30.0631C67.1198 30.6229 67.8806 30.9019 68.8305 30.9019C69.8858 30.9019 70.7304 30.5742 71.3644 29.9207C71.9983 29.2673 72.3143 28.2842 72.3143 26.9753V20.4661C72.3202 19.3367 73.235 18.4219 74.3625 18.4219Z" fill="#263238"/>
<path d="M84.2291 19.3913C84.2291 19.84 84.7811 20.0428 85.0796 19.7073C85.3741 19.3757 85.7194 19.0948 86.1153 18.8666C86.1231 18.8608 86.1329 18.8569 86.1407 18.851C87.434 18.1117 89.0452 19.0734 89.0452 20.5637V20.7665C89.0452 21.7067 88.3878 22.5377 87.4613 22.7093C86.8351 22.8244 86.248 23.0643 85.7018 23.4291C84.7207 24.0845 84.2291 25.171 84.2291 26.6905V32.2185C84.2291 33.346 83.3143 34.2608 82.1868 34.2608C81.0594 34.2608 80.1445 33.346 80.1445 32.2185V19.3913C80.1445 18.8569 80.5776 18.4238 81.112 18.4238H83.2616C83.7961 18.4219 84.2291 18.8569 84.2291 19.3913Z" fill="#263238"/>
<path d="M103.317 18.4219C104.774 18.4219 105.78 19.8809 105.263 21.2444L101.144 32.0839C100.646 33.3947 99.39 34.2608 97.9894 34.2608C96.5889 34.2608 95.3327 33.3947 94.8353 32.0839L90.7156 21.2425C90.1987 19.8809 91.2033 18.4238 92.6604 18.4238C93.5479 18.4238 94.3359 18.9856 94.6266 19.8244L97.5193 28.1905C97.6695 28.6255 98.284 28.6255 98.4342 28.1925L101.352 19.8205C101.643 18.9836 102.431 18.4219 103.317 18.4219Z" fill="#263238"/>
<path d="M111.806 28.0193C111.459 28.0193 111.219 28.3762 111.359 28.6942C112.042 30.2293 113.45 30.9959 115.586 30.9959C116.692 30.9959 117.609 30.7306 118.335 30.202C118.924 29.7709 119.72 29.7514 120.352 30.1142C121.549 30.8047 121.616 32.5037 120.482 33.2937C119.136 34.232 117.484 34.7021 115.524 34.7021C112.906 34.7021 110.805 33.9101 109.222 32.3262C107.638 30.7423 106.846 28.7469 106.846 26.3398C106.846 23.9542 107.626 21.9646 109.19 20.369C110.753 18.7753 112.758 17.9775 115.208 17.9775C117.531 17.9775 119.447 18.7812 120.956 20.3846C122.466 21.9899 123.221 23.9737 123.221 26.3398V26.3554C123.221 27.2741 122.476 28.0173 121.557 28.0173H111.806V28.0193ZM111.705 24.8534H118.495C118.826 24.8534 119.062 24.5257 118.953 24.2136C118.688 23.4529 118.267 22.8638 117.691 22.4464C116.964 21.9197 116.134 21.6544 115.204 21.6544C114.106 21.6544 113.197 21.9353 112.481 22.4932C111.925 22.9262 111.515 23.4958 111.25 24.2C111.133 24.516 111.369 24.8534 111.705 24.8534Z" fill="#263238"/>
<path d="M137.231 18.4219C138.641 18.4219 139.622 19.8244 139.141 21.1488L134.369 34.2589C133.546 36.5391 132.454 38.1913 131.09 39.2154C130.279 39.824 129.351 40.2336 128.305 40.4442C127.115 40.6822 126.007 39.7615 126.007 38.5483V38.5151C126.007 37.6237 126.622 36.8649 127.484 36.6347C127.919 36.5177 128.297 36.3402 128.621 36.0963C129.228 35.6379 129.719 34.9162 130.092 33.9331C130.135 33.818 130.131 33.6893 130.082 33.5762L124.862 21.2503C124.295 19.9082 125.28 18.4219 126.735 18.4219C127.575 18.4219 128.328 18.9388 128.633 19.7229L131.76 27.8043C131.923 28.2276 132.528 28.2139 132.67 27.7809L135.302 19.8166C135.577 18.9856 136.355 18.4219 137.231 18.4219Z" fill="#263238"/>
<path d="M16.368 37.1165C13.6528 39.6562 9.80421 40.4267 6.32238 39.1256L6.2268 39.0886C3.83925 38.1698 1.94326 36.385 0.880179 34.054C-0.196557 31.6938 -0.288235 29.0527 0.620748 26.6222C1.05378 25.4674 1.68968 24.42 2.51089 23.509L2.51674 23.5032L19.9805 3.25782L19.9942 3.24416C20.0215 3.21295 20.0508 3.18174 20.0781 3.15053C20.1678 3.05495 20.2556 2.96133 20.3453 2.8716C20.3921 2.82478 20.4409 2.77602 20.4896 2.72725L20.8213 2.42101C20.8427 2.4015 20.8661 2.38199 20.8895 2.36249L21.0514 2.21814L21.0865 2.19864C21.1041 2.18498 21.1158 2.17328 21.1275 2.16743C21.1333 2.16158 21.1392 2.15768 21.1451 2.15377C21.1977 2.11086 21.2445 2.0738 21.2894 2.03869C21.2991 2.03089 21.3187 2.01528 21.3362 2.00358L21.582 1.82022C21.5995 1.80852 21.6112 1.80071 21.621 1.79291C21.662 1.76365 21.701 1.73634 21.738 1.71099L21.7517 1.70123C21.7653 1.69148 21.7809 1.68173 21.7946 1.67197L21.9975 1.53738C22.0131 1.52763 22.0267 1.51788 22.0423 1.50812L22.1204 1.4496L22.1691 1.4301C22.1847 1.42034 22.2003 1.41059 22.2179 1.40084C22.2296 1.39304 22.2432 1.38718 22.2549 1.37938L22.2823 1.36183C22.3232 1.33647 22.3661 1.31306 22.4071 1.28965C22.4168 1.2838 22.4266 1.27795 22.4364 1.2721L22.5085 1.23114C22.5319 1.21748 22.5592 1.20188 22.5885 1.18627L22.6724 1.14141C22.6899 1.13361 22.7055 1.12385 22.7231 1.1141L22.7855 1.08289H22.7875L22.8089 1.07119C22.8167 1.06728 22.8226 1.06338 22.8323 1.05948C22.885 1.03217 22.9299 1.00877 22.9767 0.98731L23.1015 0.92489C23.1152 0.919038 23.1288 0.913187 23.1425 0.905384L23.3317 0.819557C23.3648 0.805903 23.3883 0.794199 23.4117 0.784446L23.595 0.708373C23.6243 0.696669 23.6516 0.684965 23.6789 0.673262C23.794 0.626447 23.9071 0.585484 24.0222 0.546472C24.0515 0.534769 24.0905 0.521114 24.1314 0.509411C24.1685 0.495756 24.2075 0.484053 24.2465 0.470398C24.2836 0.456744 24.3304 0.44309 24.3811 0.429436L24.4884 0.398226C24.5586 0.376769 24.6386 0.353362 24.7205 0.331905L24.7303 0.329955C24.7342 0.328004 24.74 0.328004 24.7459 0.328004C24.7868 0.31435 24.8298 0.302646 24.8746 0.292893L25.0131 0.259733C25.1204 0.234375 25.216 0.212918 25.3116 0.193412L25.4422 0.168054C25.4832 0.160252 25.532 0.150499 25.5827 0.142696C25.5983 0.138795 25.6158 0.134894 25.6334 0.134894L25.7309 0.119289C25.7719 0.111486 25.809 0.105635 25.846 0.101733C25.8811 0.0958816 25.9084 0.0919804 25.9357 0.0880791L26.0196 0.0763755C26.0352 0.0744249 26.0489 0.0724743 26.0645 0.0705237L26.0723 0.0685731L26.123 0.0646718C26.1503 0.0627212 26.1796 0.05882 26.2049 0.0549188C26.2576 0.049067 26.3025 0.0451658 26.3473 0.0412645C26.3727 0.0393139 26.4097 0.0354127 26.4468 0.0334621L26.597 0.0217585C26.7004 0.013956 26.7979 0.00810419 26.8954 0.00615359L26.9832 0.00420298C27.0183 0.00225237 27.0573 0.00225237 27.0944 0.00225237C27.1841 0.00030176 27.2914 -0.00164885 27.3968 0.00225237C27.4358 0.00225237 27.4728 0.00225237 27.5118 0.00420298C27.5411 0.00615359 27.5704 0.00615359 27.5996 0.00615359H27.6172C27.6542 0.00810419 27.6932 0.0100548 27.7303 0.013956C27.7947 0.0159066 27.859 0.0198078 27.9234 0.0237091L27.941 0.0256597C27.98 0.0276103 28.0034 0.0315115 28.0307 0.0315115L28.1789 0.0451658C28.2394 0.049067 28.3096 0.05882 28.3779 0.0646718L28.4813 0.0763755C28.5164 0.0783261 28.5613 0.0861285 28.6061 0.0919804C28.6607 0.0997828 28.7251 0.109536 28.7895 0.121239L28.9182 0.142696C28.9377 0.144647 28.9572 0.148548 28.9748 0.152449L29.1464 0.183659C29.2323 0.203165 29.324 0.21877 29.4137 0.240227C29.4702 0.253881 29.5288 0.265585 29.5912 0.281189C29.6087 0.285091 29.6263 0.288992 29.6439 0.294844L29.6751 0.302646C29.7297 0.3163 29.7843 0.331905 29.8389 0.34751L29.874 0.355313C29.9286 0.370917 29.9833 0.386522 30.0379 0.404078L30.3402 0.499658C30.3597 0.50746 30.3773 0.513312 30.3948 0.519164L30.4026 0.521114C30.4202 0.526966 30.4358 0.530867 30.4514 0.536719C30.4846 0.550373 30.5099 0.560126 30.5353 0.567929L30.6348 0.60499C30.666 0.614743 30.6913 0.624497 30.7167 0.63425L30.742 0.644003C30.7752 0.655706 30.8084 0.669361 30.8415 0.683015L30.98 0.739582C30.9995 0.747385 31.021 0.755187 31.0385 0.76494L31.099 0.792249C31.1341 0.805903 31.1712 0.821508 31.2063 0.839063L31.2355 0.852718C31.2902 0.878076 31.3428 0.901483 31.3916 0.926841L31.454 0.9561C31.493 0.975606 31.532 0.993162 31.5691 1.01267C31.5769 1.01462 31.5847 1.02047 31.5925 1.02242C31.6159 1.03412 31.6393 1.04778 31.6608 1.05753C31.7056 1.08094 31.7603 1.1102 31.8149 1.13751C31.8988 1.18237 31.9807 1.22723 32.0626 1.27405C32.0821 1.2877 32.1036 1.29941 32.125 1.31111L32.1562 1.33062C32.166 1.33452 32.1757 1.34037 32.1855 1.34817L32.1952 1.35402C32.2128 1.36378 32.2284 1.37353 32.244 1.38328C32.285 1.40669 32.324 1.4301 32.361 1.45351L32.5229 1.55494C32.56 1.58029 32.5971 1.6037 32.6341 1.62906C32.6478 1.63686 32.6712 1.65442 32.6966 1.67002L32.7161 1.68368C32.7785 1.72659 32.8331 1.7656 32.8897 1.80657L33.0633 1.93531C33.1257 1.98212 33.1842 2.02503 33.2408 2.0699L33.3266 2.13817C33.3617 2.16743 33.391 2.19084 33.4163 2.21424C33.4456 2.2357 33.4729 2.25911 33.5002 2.28251C33.5295 2.30787 33.5529 2.32933 33.5763 2.34688C33.6172 2.38199 33.6504 2.41125 33.6855 2.44246L33.7284 2.48148C33.7538 2.50488 33.7811 2.52829 33.8084 2.5517C33.8786 2.61607 33.9469 2.68239 34.0171 2.75066C34.0815 2.81308 34.1478 2.87745 34.2102 2.94377C34.2531 2.98668 34.298 3.0335 34.3409 3.08031C34.4443 3.1915 34.5438 3.30658 34.6433 3.42167L34.6979 3.48409C35.3903 4.3209 35.5835 5.46201 35.205 6.47047C34.6238 8.02706 32.8819 8.819 31.3272 8.23772C30.8903 8.07387 30.4924 7.80859 30.1764 7.46723L30.151 7.43797C30.1022 7.37555 30.0515 7.31508 29.9969 7.25462C29.8877 7.13368 29.7726 7.02054 29.6556 6.91911L29.6029 6.8723C29.3727 6.68114 29.1211 6.51924 28.8539 6.38855C28.7914 6.35929 28.7271 6.33003 28.6627 6.30272C28.6256 6.28711 28.5788 6.26956 28.534 6.25005C28.5184 6.2442 28.4988 6.2364 28.4813 6.23055L28.2024 6.14277C28.1926 6.14082 28.1828 6.13887 28.1731 6.13497L28.1477 6.12911C27.8629 6.05499 27.5626 6.01793 27.2563 6.01598C26.2264 6.01013 25.2706 6.41975 24.5645 7.16489L24.4864 7.24486C24.4416 7.29558 24.3967 7.34825 24.3499 7.40676L24.3401 7.43017L24.2972 7.47308L7.46348 26.987L7.01874 27.5019C6.98948 27.537 6.95827 27.5702 6.92902 27.6034C6.92121 27.6112 6.91536 27.6209 6.90756 27.6287C6.7242 27.8433 6.56815 28.0754 6.44136 28.327C5.86593 29.318 5.53823 30.4688 5.53823 31.6957C5.53823 35.4058 8.54607 38.4136 12.2561 38.4136C14.1443 38.4136 15.8511 37.6353 17.0702 36.3811C16.8518 36.6386 16.6177 36.8824 16.368 37.1165Z" fill="url(#paint0_linear_3733_38938)"/>
<path d="M36.9274 16.5488L36.8709 32.1595L36.8553 36.3709C36.8767 37.5842 36.67 38.7858 36.2389 39.9366C34.8657 43.6057 31.454 46.081 27.5411 46.2449C27.4026 46.2507 27.2661 46.2527 27.1256 46.2527C25.9709 46.2527 24.8337 46.0459 23.7355 45.6344L17.5052 43.3053C16.3037 42.8879 15.4942 41.7409 15.4981 40.4555C15.502 39.0549 16.4987 37.8222 17.8661 37.5257C18.0826 37.4789 18.3011 37.4555 18.5196 37.4574C18.857 37.4574 19.1945 37.514 19.5163 37.6291L25.8421 39.9951C26.2576 40.1512 26.6907 40.2292 27.1334 40.2292C28.6666 40.2292 30.0574 39.2656 30.5938 37.83C30.7499 37.4145 30.8279 36.9854 30.8279 36.5504V36.4587C30.8279 36.4431 30.8259 36.4275 30.8259 36.4119V36.3943L30.8572 28.2973L30.8884 20.3642C32.1426 18.2537 34.3546 16.781 36.9274 16.5488Z" fill="url(#paint1_linear_3733_38938)"/>
<path d="M36.9803 16.5508L36.9237 32.1615L36.9179 33.7239H33.8125L33.834 28.2973L33.9627 17.4578C34.8756 16.9663 35.8958 16.6464 36.9803 16.5508Z" fill="url(#paint2_linear_3733_38938)"/>
<path d="M36.94 12.2285L36.938 13.1921L36.9263 16.5511C34.3535 16.7832 32.1415 18.2559 30.8911 20.3665V20.3626L17.6114 35.7587L17.1803 36.2581C17.1452 36.301 17.1062 36.3439 17.0691 36.3868C15.85 37.6411 14.1432 38.4193 12.255 38.4193C8.54495 38.4193 5.53711 35.4115 5.53711 31.7014C5.53711 30.4745 5.86676 29.3237 6.44024 28.3327C6.37392 28.4615 6.3154 28.5941 6.26274 28.7307C5.91748 29.6553 5.95259 30.6579 6.36222 31.5551C6.76989 32.4524 7.50527 33.1371 8.42791 33.4824L8.43376 33.4843C8.45327 33.4921 8.47278 33.498 8.49033 33.5058L8.55665 33.5272C8.5586 33.5292 8.56055 33.5292 8.5625 33.5292C8.56836 33.5311 8.57226 33.5311 8.57811 33.5331L8.68929 33.5662C8.83949 33.613 8.98969 33.6462 9.15549 33.6735L9.3603 33.6989C9.38176 33.7008 9.40127 33.7028 9.42077 33.7028L9.44223 33.7047C9.46173 33.7067 9.48319 33.7067 9.50075 33.7067L9.61193 33.7125C9.62559 33.7125 9.63924 33.7145 9.65289 33.7145H9.80309C9.81674 33.7145 9.82845 33.7125 9.8421 33.7125L9.88307 33.7106C9.89282 33.7106 9.90257 33.7086 9.91232 33.7086L9.9923 33.7047C10.0547 33.6989 10.121 33.693 10.1874 33.6852C10.1952 33.6833 10.2088 33.6833 10.2244 33.6794C10.2381 33.6774 10.2556 33.6755 10.2732 33.6716L10.3259 33.6638C10.3454 33.6599 10.361 33.656 10.3805 33.654L10.4175 33.6404H10.4468C10.4585 33.6384 10.4682 33.6364 10.48 33.6325C10.4995 33.6306 10.5151 33.6247 10.5346 33.6208L10.6184 33.6013C10.6731 33.5877 10.7316 33.5721 10.7901 33.5545C10.7979 33.5526 10.8057 33.5506 10.8155 33.5467L10.9325 33.5077L10.991 33.4511L11.0924 33.4492C11.1022 33.4453 11.1159 33.4414 11.1276 33.4355L11.1432 33.4297C11.1549 33.4258 11.1646 33.4219 11.1763 33.416C11.1958 33.4082 11.2153 33.4004 11.2329 33.3907L11.2719 33.3731L11.3285 33.3478L11.3441 33.34C11.3792 33.3244 11.4123 33.3068 11.4455 33.2892C11.4943 33.2639 11.545 33.2366 11.5957 33.2054C11.6523 33.1722 11.701 33.1429 11.7478 33.1098C11.7674 33.0961 11.783 33.0883 11.7966 33.0786L11.8376 33.0513C11.8512 33.0415 11.8649 33.0318 11.8785 33.022L11.9215 32.9928C11.9351 32.983 11.9468 32.9732 11.9605 32.9635L12.0014 32.9323C12.0151 32.9225 12.0268 32.9128 12.0365 32.905C12.0814 32.8699 12.1243 32.8308 12.1653 32.7938L12.2101 32.7548C12.257 32.7138 12.3018 32.6709 12.3467 32.6241L12.3584 32.6124C12.3779 32.5929 12.3974 32.5714 12.415 32.5519L12.4306 32.5344C12.4618 32.5012 12.493 32.4661 12.5203 32.4329C12.5652 32.3822 12.6042 32.3334 12.6412 32.2847L12.77 32.1169H12.7875L17.1335 27.0785L29.9139 12.2617C29.9548 12.2188 29.9977 12.172 30.0407 12.1232C30.0816 12.0764 30.1206 12.0276 30.1577 11.9788L30.2864 11.8111H30.302L31.6187 10.2857C31.6343 10.2662 31.648 10.2506 31.6655 10.233C32.1356 9.69663 32.7793 9.34552 33.4796 9.23824C33.622 9.21678 33.7683 9.20508 33.9126 9.20508H33.9419C35.2312 9.20898 36.3723 10.0321 36.7839 11.2513L36.7937 11.2864C36.8093 11.3468 36.9419 11.893 36.94 12.2285Z" fill="url(#paint3_linear_3733_38938)"/>
<path d="M21.7645 26.053L14.9296 33.9764L14.6019 34.3548C14.5746 34.3879 14.5453 34.4211 14.518 34.4523C13.5915 35.4042 12.2943 35.9972 10.8606 35.9972C8.04197 35.9972 5.75586 33.713 5.75586 30.8944C5.75586 29.9737 5.99773 29.1096 6.42687 28.3645C6.3664 28.4796 6.31373 28.6005 6.26692 28.7234C5.92166 29.648 5.95677 30.6506 6.3664 31.5498C6.77408 32.4451 7.50946 33.1318 8.43209 33.477L8.43795 33.479C8.45745 33.4868 8.47696 33.4926 8.49451 33.5004L8.56083 33.5219C8.56279 33.5238 8.56474 33.5238 8.56669 33.5238C8.57254 33.5258 8.57644 33.5258 8.58229 33.5277L8.69152 33.5609C8.84172 33.6077 8.99192 33.6428 9.15772 33.6682L9.36253 33.6935C9.38399 33.6955 9.40155 33.6974 9.423 33.6974L9.44446 33.6994C9.46592 33.7013 9.48542 33.7013 9.50493 33.7013L9.61416 33.7072C9.62782 33.7072 9.64147 33.7091 9.65513 33.7091H9.80532C9.81898 33.7091 9.83068 33.7072 9.84433 33.7072L9.8853 33.7052C9.89505 33.7052 9.9048 33.7033 9.91456 33.7033L9.99258 33.6994C10.055 33.6935 10.1233 33.6877 10.1876 33.6799C10.1954 33.6779 10.211 33.6779 10.2267 33.674C10.2403 33.6721 10.2579 33.6701 10.2754 33.6662L10.3261 33.6584C10.3456 33.6545 10.3612 33.6506 10.3808 33.6487L10.4198 33.635H10.449C10.4607 33.6331 10.4705 33.6311 10.4822 33.6272C10.5017 33.6253 10.5173 33.6194 10.5368 33.6155L10.6226 33.596C10.6772 33.5823 10.7358 33.5648 10.7943 33.5472C10.8021 33.5453 10.8099 33.5433 10.8177 33.5394L10.9328 33.5004L10.9932 33.4439L11.0927 33.4419C11.1025 33.438 11.1161 33.4341 11.1278 33.4282L11.1454 33.4224C11.1571 33.4185 11.1668 33.4146 11.1786 33.4087C11.1981 33.4009 11.2176 33.3931 11.2351 33.3834L11.2741 33.3658L11.3307 33.3405L11.3463 33.3327C11.3814 33.3171 11.4146 33.2995 11.4477 33.282C11.4965 33.2566 11.5472 33.2293 11.5979 33.1981C11.6545 33.1649 11.7033 33.1357 11.7501 33.1044C11.7696 33.0908 11.7852 33.083 11.7988 33.0732L11.8379 33.0459C11.8515 33.0362 11.8652 33.0264 11.8808 33.0147L11.9237 32.9855C11.9373 32.9757 11.949 32.966 11.9627 32.9562L12.0017 32.925C12.0154 32.9152 12.0251 32.9055 12.0368 32.8977C12.0817 32.8626 12.1246 32.8236 12.1675 32.7865L12.2124 32.7475C12.2592 32.7065 12.306 32.6636 12.3489 32.6168L12.3606 32.6051C12.3801 32.5856 12.3996 32.5661 12.4172 32.5446L12.4347 32.5271C12.466 32.4939 12.4952 32.4588 12.5245 32.4256C12.5693 32.3749 12.6064 32.3281 12.6454 32.2793L12.7741 32.1116H12.7917L17.1377 27.0712L19.1448 24.7441L21.7645 26.053Z" fill="url(#paint4_linear_3733_38938)"/>
<path opacity="0.46" d="M17.6106 35.7568C17.4448 35.9773 17.2634 36.1879 17.0684 36.3869C17.1054 36.344 17.1425 36.3011 17.1795 36.2581L17.6106 35.7568Z" fill="#D7162F"/>
<path d="M155.674 34.2588C155.21 34.2588 154.794 33.9721 154.63 33.5371L153.003 29.2341C152.881 28.9064 152.567 28.6899 152.215 28.6899H142.628C142.279 28.6899 141.965 28.9064 141.84 29.2341L140.213 33.5371C140.049 33.9721 139.634 34.2588 139.17 34.2588C138.386 34.2588 137.847 33.4727 138.128 32.7413L145.837 12.6793C146.089 12.0239 146.719 11.5908 147.421 11.5908C148.123 11.5908 148.753 12.0239 149.005 12.6793L156.714 32.7413C156.996 33.4747 156.456 34.2588 155.674 34.2588ZM146.633 16.5044L143.284 25.4148C143.077 25.9649 143.483 26.552 144.072 26.552H150.772C151.359 26.552 151.767 25.9649 151.56 25.4148L148.209 16.5044C147.936 15.7768 146.908 15.7768 146.633 16.5044Z" fill="#263238"/>
<path d="M164.747 25.0637L165.783 25.3231L166.851 25.6138C167.585 25.8518 168.244 26.1326 168.827 26.4565C170.187 27.2562 170.868 28.4324 170.868 29.9851C170.868 31.3661 170.318 32.4897 169.216 33.3519C168.158 34.216 166.754 34.6471 165.006 34.6471C163.516 34.6471 162.199 34.3018 161.056 33.6113C160.294 33.1314 159.691 32.5541 159.248 31.8791C158.926 31.3876 159.096 30.7244 159.601 30.4259C160.081 30.1431 160.711 30.2718 161.015 30.74C161.813 31.963 163.143 32.5755 165.006 32.5755C167.489 32.5755 168.73 31.7133 168.73 29.9851C168.73 28.7328 167.618 27.816 165.394 27.2328L164.359 26.9734L163.29 26.6827C162.556 26.4447 161.897 26.1639 161.314 25.8401C159.954 25.0208 159.273 23.8426 159.273 22.3114C159.273 20.9947 159.792 19.8946 160.828 19.009C161.907 18.1235 163.235 17.6807 164.811 17.6807C166.128 17.6807 167.283 17.9713 168.275 18.5545C168.929 18.933 169.473 19.4206 169.912 20.0233C170.265 20.5071 170.117 21.1937 169.6 21.4941C169.14 21.7613 168.56 21.6267 168.246 21.1976C167.542 20.234 166.395 19.7522 164.811 19.7522C163.84 19.7522 163.04 19.9687 162.416 20.3998C161.747 20.8758 161.411 21.5117 161.411 22.3095C161.411 23.5637 162.523 24.4805 164.747 25.0637Z" fill="#263238"/>
<path d="M176.434 14.1831C176.132 14.4854 175.765 14.6356 175.334 14.6356C174.901 14.6356 174.534 14.4854 174.234 14.1831C173.931 13.8808 173.781 13.514 173.781 13.083C173.781 12.6519 173.931 12.2852 174.234 11.9828C174.536 11.6805 174.903 11.5303 175.334 11.5303C175.765 11.5303 176.132 11.6824 176.434 11.9828C176.736 12.2852 176.887 12.6519 176.887 13.083C176.889 13.514 176.736 13.8808 176.434 14.1831ZM175.334 34.2588C174.743 34.2588 174.265 33.7809 174.265 33.1898V19.1376C174.265 18.5466 174.743 18.0687 175.334 18.0687C175.925 18.0687 176.403 18.5466 176.403 19.1376V33.1918C176.403 33.7809 175.925 34.2588 175.334 34.2588Z" fill="#263238"/>
<path d="M194.86 18.9115C194.86 18.4473 195.236 18.0688 195.702 18.0688H196.157C196.621 18.0688 197 18.4453 197 18.9115V33.4182C197 33.8824 196.623 34.2589 196.159 34.2589H195.704C195.24 34.2589 194.864 33.8824 194.864 33.4182C194.864 32.6828 193.992 32.3083 193.447 32.8037C192.098 34.0326 190.389 34.649 188.323 34.649C186.014 34.649 184.038 33.8298 182.397 32.1873C180.778 30.5469 179.969 28.5397 179.969 26.1639C179.969 23.79 180.778 21.7808 182.397 20.1404C184.038 18.4999 186.014 17.6787 188.323 17.6787C190.389 17.6787 192.098 18.2932 193.447 19.524C193.988 20.0214 194.86 19.6469 194.86 18.9115ZM188.481 32.5755C190.274 32.5755 191.784 31.9611 193.014 30.7302C194.245 29.4565 194.86 27.935 194.86 26.1639C194.86 24.3712 194.245 22.8615 193.014 21.6306C191.784 20.3784 190.272 19.7522 188.481 19.7522C186.689 19.7522 185.179 20.3784 183.948 21.6306C182.717 22.8615 182.103 24.3732 182.103 26.1639C182.103 27.935 182.717 29.4565 183.948 30.7302C185.179 31.9611 186.689 32.5755 188.481 32.5755Z" fill="#263238"/>
<defs>
<linearGradient id="paint0_linear_3733_38938" x1="3.36764" y1="37.2007" x2="28.1792" y2="8.7529" gradientUnits="userSpaceOnUse">
<stop stop-color="#FBB040"/>
<stop offset="1" stop-color="#EF4136"/>
</linearGradient>
<linearGradient id="paint1_linear_3733_38938" x1="26.8326" y1="49.1548" x2="25.9472" y2="19.7111" gradientUnits="userSpaceOnUse">
<stop stop-color="#FBB040"/>
<stop offset="1" stop-color="#EF4136"/>
</linearGradient>
<linearGradient id="paint2_linear_3733_38938" x1="35.3976" y1="14.1776" x2="35.3976" y2="31.3513" gradientUnits="userSpaceOnUse">
<stop stop-color="#FBB040" stop-opacity="0.5"/>
<stop offset="1" stop-color="#EF4136" stop-opacity="0"/>
</linearGradient>
<linearGradient id="paint3_linear_3733_38938" x1="48.5516" y1="-0.437716" x2="13.7076" y2="30.6302" gradientUnits="userSpaceOnUse">
<stop stop-color="#FBB040"/>
<stop offset="1" stop-color="#EF4136"/>
</linearGradient>
<linearGradient id="paint4_linear_3733_38938" x1="5.49372" y1="36.6548" x2="22.3116" y2="18.9337" gradientUnits="userSpaceOnUse">
<stop stop-color="#FBB040" stop-opacity="0.5"/>
<stop offset="1" stop-color="#EF4136" stop-opacity="0"/>
</linearGradient>
</defs>
</svg>
