<svg width="519" height="370" viewBox="0 0 519 370" fill="none" xmlns="http://www.w3.org/2000/svg">
<g clip-path="url(#clip0_3963_35518)">
<path d="M34.3993 370H484.576C484.804 370 485.023 369.91 485.184 369.748C485.345 369.587 485.436 369.368 485.436 369.14C485.436 368.912 485.345 368.693 485.184 368.531C485.023 368.37 484.804 368.279 484.576 368.279H34.3993C34.1712 368.279 33.9524 368.37 33.791 368.531C33.6297 368.693 33.5391 368.912 33.5391 369.14C33.5391 369.368 33.6297 369.587 33.791 369.748C33.9524 369.91 34.1712 370 34.3993 370V370Z" fill="#CCCCCC"/>
<path d="M120.891 161.545C94.5635 135.621 83.4437 108.575 89.5798 85.3916C97.4543 55.6401 132.437 35.0694 185.558 28.9541L185.754 30.6607C133.373 36.6904 98.9237 56.7994 91.2399 85.831C85.2682 108.393 96.2265 134.848 122.096 160.321L120.891 161.545Z" fill="#F0F0F0"/>
<path d="M374.911 253.568C342.052 253.568 306.345 248.683 270.877 239.292C227.017 227.677 186.802 210.147 154.58 188.595L155.534 187.168C187.601 208.615 227.638 226.066 271.317 237.631C310.788 248.084 350.556 252.927 386.306 251.649L386.368 253.365C382.592 253.5 378.773 253.568 374.911 253.568Z" fill="#F0F0F0"/>
<path d="M450.295 242.767L449.745 241.14C479.133 231.201 497.513 215.192 502.9 194.84C509.748 168.968 494.872 138.945 461.012 110.302C426.979 81.5128 377.903 57.6253 322.822 43.0404L323.262 41.3799C378.583 56.029 427.898 80.0402 462.12 108.99C496.515 138.086 511.587 168.73 504.561 195.279C499.019 216.215 480.254 232.636 450.295 242.767Z" fill="#F0F0F0"/>
<path d="M180.445 254.286C115.879 225.643 66.1258 188.483 40.3516 149.65L41.7819 148.7C67.3779 187.264 116.87 224.204 181.14 252.716L180.445 254.286Z" fill="#F0F0F0"/>
<path d="M407.453 303.906C400.793 303.906 394.02 303.757 387.133 303.46L387.207 301.744C438.603 303.97 483.951 297.818 518.357 283.949L519 285.543C488.986 297.639 450.732 303.906 407.453 303.906Z" fill="#F0F0F0"/>
<path d="M369.992 30.4944C359.32 27.0192 348.343 23.7833 337.367 20.8766C274.2 4.15021 212.106 -1.78854 157.796 3.70576L157.623 1.99663C212.136 -3.51566 274.442 2.43731 337.806 19.2162C348.814 22.1312 359.822 25.3763 370.523 28.8616L369.992 30.4944Z" fill="#F0F0F0"/>
<path d="M80.5399 164.121C54.2119 138.197 43.0922 111.152 49.2282 87.9678C57.1028 58.2162 92.0855 37.6455 145.206 31.5303L145.403 33.2369C93.0212 39.2666 58.5722 59.3756 50.8883 88.4072C44.9166 110.97 55.8749 137.424 81.7447 162.897L80.5399 164.121Z" fill="#F0F0F0"/>
<path d="M334.559 256.144C301.7 256.144 265.993 251.26 230.526 241.868C186.666 230.254 146.451 212.723 114.229 191.171L115.183 189.744C147.25 211.192 187.286 228.642 230.965 240.207C270.437 250.66 310.204 255.503 345.954 254.225L346.016 255.941C342.241 256.077 338.422 256.144 334.559 256.144Z" fill="#F0F0F0"/>
<path d="M409.941 245.343L409.391 243.716C438.779 233.778 457.16 217.768 462.547 197.416C469.394 171.544 454.518 141.521 420.658 112.878C386.625 84.089 337.549 60.2015 282.469 45.6165L282.908 43.9561C338.229 58.6052 387.544 82.6163 421.767 111.567C456.161 140.662 471.234 171.307 464.207 197.855C458.666 218.791 439.901 235.212 409.941 245.343Z" fill="#F0F0F0"/>
<path d="M140.093 256.862C75.5271 228.22 25.7742 191.06 0 152.227L1.43038 151.276C27.0264 189.841 76.5182 226.781 140.789 255.292L140.093 256.862Z" fill="#F0F0F0"/>
<path d="M367.101 306.482C360.442 306.482 353.668 306.334 346.781 306.036L346.855 304.32C398.252 306.546 443.6 300.394 478.006 286.525L478.648 288.119C448.635 300.215 410.38 306.482 367.101 306.482Z" fill="#F0F0F0"/>
<path d="M329.64 33.0706C318.969 29.5953 307.992 26.3595 297.015 23.4528C233.848 6.72641 171.754 0.787662 117.444 6.28192L117.271 4.57281C171.784 -0.93949 234.09 5.01347 297.454 21.7923C308.462 24.7074 319.47 27.9525 330.172 31.4378L329.64 33.0706Z" fill="#F0F0F0"/>
<path d="M29.2667 118.119C41.6061 104.281 61.2895 95.8472 79.127 100.896C62.6712 112.544 50.8648 129.639 45.7969 149.156C43.8697 156.69 42.5104 165.27 36.2463 169.876C32.3487 172.742 27.1842 173.427 22.3909 172.774C17.5974 172.121 13.065 170.257 8.59375 168.409L7.39062 168.514C10.8497 150.297 16.9274 131.957 29.2667 118.119Z" fill="#F2F2F2"/>
<path d="M79.0726 101.28C64.1592 104.892 50.7627 113.112 40.7858 124.773C38.5935 127.245 36.8045 130.048 35.4846 133.077C34.2942 136.07 33.9267 139.326 34.4203 142.509C34.8209 145.486 35.5753 148.484 35.2455 151.507C35.0537 153.051 34.5377 154.538 33.7312 155.869C32.9247 157.2 31.8461 158.346 30.5659 159.231C27.4336 161.518 23.6661 162.544 19.9471 163.419C15.8178 164.39 11.5133 165.334 8.14725 168.079C7.73941 168.411 7.24731 167.759 7.65454 167.427C13.5109 162.651 21.6499 163.264 28.1294 159.796C31.1529 158.177 33.707 155.637 34.328 152.152C34.871 149.105 34.0957 146.012 33.664 143.001C33.137 139.904 33.3764 136.724 34.3611 133.74C35.5226 130.653 37.2007 127.787 39.3237 125.263C44.0126 119.505 49.5775 114.52 55.8144 110.492C62.9071 105.854 70.7406 102.464 78.9761 100.469C79.4859 100.345 79.579 101.158 79.0726 101.28H79.0726Z" fill="white"/>
<path d="M43.7767 120.829C42.0479 118.889 41.0649 116.398 41.0031 113.8C40.9413 111.202 41.8047 108.667 43.4393 106.647C43.7714 106.239 44.4202 106.737 44.0876 107.145C42.5621 109.023 41.758 111.385 41.8205 113.804C41.883 116.223 42.8079 118.54 44.4284 120.337C44.7801 120.727 44.1263 121.218 43.7767 120.829Z" fill="white"/>
<path d="M34.0183 141.027C39.3176 141.379 44.5549 139.72 48.6858 136.381C49.0948 136.05 49.587 136.702 49.1785 137.033C44.8733 140.499 39.4196 142.215 33.9059 141.836C33.3804 141.8 33.4957 140.99 34.0183 141.027Z" fill="white"/>
<path d="M63.0905 106.922C63.603 107.812 64.3285 108.561 65.2018 109.101C66.0751 109.641 67.0689 109.956 68.0939 110.017C68.6197 110.047 68.5037 110.856 67.9815 110.827C66.8493 110.754 65.7522 110.405 64.786 109.81C63.8198 109.215 63.0139 108.393 62.4388 107.415C62.3768 107.327 62.3506 107.219 62.3653 107.113C62.3801 107.007 62.4348 106.91 62.5183 106.843C62.6049 106.778 62.7136 106.75 62.8208 106.765C62.9279 106.78 63.0249 106.836 63.0905 106.922L63.0905 106.922Z" fill="white"/>
<path d="M104.449 158.342C104.12 158.332 103.791 158.323 103.458 158.319C99.0372 158.218 94.6152 158.476 90.2359 159.091C89.8966 159.133 89.5533 159.181 89.2159 159.233C78.681 160.827 68.5336 164.363 59.2895 169.663C55.613 171.775 52.1024 174.163 48.7882 176.808C44.2114 180.461 39.5395 184.786 34.1813 186.658C33.6244 186.86 33.0557 187.027 32.4782 187.158L7.61204 169.974C7.57512 169.906 7.53403 169.844 7.49683 169.777L6.47266 169.136C6.63405 168.987 6.80464 168.837 6.96606 168.689C7.05933 168.602 7.15816 168.52 7.25138 168.433C7.31531 168.377 7.37956 168.321 7.43402 168.266C7.45524 168.247 7.47673 168.229 7.49404 168.215C7.54854 168.161 7.60489 168.116 7.65542 168.067C8.60664 167.224 9.56544 166.386 10.5318 165.553C10.5357 165.547 10.5357 165.547 10.5452 165.545C17.8481 159.129 25.8863 153.602 34.4911 149.08C34.7497 148.948 35.0119 148.811 35.2819 148.687C39.1666 146.738 43.2041 145.109 47.3541 143.817C49.6287 143.118 51.9374 142.533 54.2711 142.067C60.3034 140.873 66.4859 140.636 72.5918 141.365C84.7638 142.818 96.3355 148.149 103.879 157.613C104.072 157.855 104.26 158.094 104.449 158.342Z" fill="#F2F2F2"/>
<path d="M104.174 158.619C90.0923 152.522 74.448 151.017 59.4631 154.32C56.2246 154.973 53.1093 156.134 50.2319 157.758C47.4802 159.43 45.2264 161.809 43.7047 164.648C42.2327 167.266 41.0302 170.114 38.9476 172.329C37.8648 173.447 36.5579 174.323 35.1128 174.9C33.6676 175.477 32.1168 175.742 30.5621 175.678C26.6839 175.618 23.0585 174.168 19.5624 172.627C15.6806 170.916 11.6758 169.077 7.33597 169.242C6.81013 169.262 6.80996 168.445 7.33498 168.425C14.8855 168.138 21.015 173.529 28.2765 174.662C31.6648 175.19 35.2329 174.7 37.8264 172.292C40.0944 170.185 41.337 167.249 42.8045 164.585C44.2483 161.795 46.3534 159.4 48.9358 157.611C51.7212 155.845 54.7866 154.567 58.0007 153.83C65.2104 152.057 72.654 151.428 80.059 151.967C88.5136 152.536 96.8087 154.547 104.585 157.913C105.067 158.121 104.652 158.826 104.174 158.619H104.174Z" fill="white"/>
<path d="M64.2262 152.972C64.0136 150.382 64.7283 147.801 66.2427 145.689C67.7571 143.578 69.9726 142.074 72.4935 141.445C73.004 141.32 73.2229 142.107 72.7117 142.233C70.3631 142.814 68.2995 144.215 66.8933 146.184C65.4871 148.154 64.831 150.561 65.0433 152.971C65.0888 153.495 64.2715 153.493 64.2262 152.972Z" fill="white"/>
<path d="M44.277 163.222C48.2963 166.694 53.4763 168.524 58.7843 168.345C59.3102 168.327 59.3105 169.145 58.7853 169.163C53.2614 169.338 47.8746 167.423 43.7 163.8C43.3023 163.455 43.8815 162.878 44.277 163.222V163.222Z" fill="white"/>
<path d="M88.0187 153.499C87.8923 154.518 88.0208 155.553 88.3929 156.51C88.7651 157.467 89.369 158.317 90.1506 158.983C90.5525 159.324 89.9728 159.9 89.5736 159.562C88.7135 158.822 88.0476 157.883 87.6341 156.826C87.2206 155.769 87.0722 154.627 87.2017 153.5C87.205 153.393 87.249 153.291 87.3248 153.215C87.4006 153.139 87.5025 153.094 87.6097 153.091C87.7179 153.091 87.8215 153.134 87.8981 153.211C87.9747 153.287 88.018 153.391 88.0187 153.499H88.0187Z" fill="white"/>
<path d="M512.768 231.557C505.796 214.375 490.092 199.815 471.596 198.573C483.18 215.076 488.556 235.145 486.771 255.23C486.054 262.974 484.451 271.512 488.803 277.956C491.511 281.966 496.145 284.347 500.879 285.344C505.613 286.34 510.508 286.108 515.34 285.871L516.438 286.374C519.301 268.054 519.74 248.738 512.768 231.557Z" fill="#F2F2F2"/>
<path d="M471.518 198.955C484.35 207.37 494.205 219.616 499.683 233.952C500.917 237.017 501.66 240.258 501.886 243.555C502.001 246.774 501.253 249.965 499.719 252.796C498.341 255.465 496.623 258.036 495.918 260.993C495.58 262.512 495.566 264.086 495.878 265.611C496.191 267.135 496.822 268.577 497.73 269.841C499.911 273.049 503.115 275.281 506.324 277.355C509.886 279.658 513.623 281.994 515.871 285.711C516.144 286.161 516.826 285.712 516.554 285.263C512.643 278.796 504.772 276.637 499.835 271.192C497.531 268.651 495.979 265.401 496.565 261.91C497.078 258.857 498.847 256.205 500.265 253.514C501.803 250.774 502.646 247.699 502.721 244.557C502.664 241.26 502.047 237.996 500.896 234.905C498.414 227.906 494.848 221.34 490.328 215.449C485.206 208.697 478.967 202.871 471.881 198.223C471.442 197.935 471.082 198.669 471.518 198.955V198.955Z" fill="white"/>
<path d="M498.189 229.232C500.469 227.986 502.232 225.97 503.163 223.544C504.095 221.118 504.133 218.44 503.273 215.988C503.097 215.493 502.319 215.743 502.495 216.239C503.3 218.521 503.264 221.015 502.392 223.273C501.521 225.53 499.871 227.401 497.741 228.549C497.278 228.799 497.729 229.48 498.189 229.232Z" fill="white"/>
<path d="M500.594 251.535C495.484 250.085 491.109 246.762 488.34 242.229C488.066 241.78 487.384 242.229 487.657 242.678C490.547 247.39 495.107 250.838 500.427 252.335C500.935 252.478 501.098 251.677 500.594 251.535V251.535Z" fill="white"/>
<path d="M484.674 209.641C483.892 210.307 482.957 210.769 481.953 210.984C480.949 211.199 479.908 211.161 478.922 210.874C478.417 210.726 478.254 211.527 478.756 211.675C479.846 211.987 480.997 212.027 482.107 211.791C483.217 211.556 484.252 211.053 485.122 210.325C485.21 210.263 485.271 210.17 485.293 210.065C485.315 209.96 485.296 209.85 485.24 209.759C485.18 209.669 485.087 209.606 484.981 209.584C484.875 209.562 484.765 209.582 484.674 209.641H484.674Z" fill="white"/>
<path d="M428.443 244.166C428.756 244.268 429.069 244.369 429.384 244.478C433.582 245.869 437.66 247.598 441.578 249.65C441.883 249.803 442.19 249.964 442.491 250.126C451.877 255.169 460.246 261.911 467.171 270.01C469.924 273.235 472.428 276.665 474.661 280.27C477.744 285.249 480.691 290.893 485.108 294.457C485.565 294.834 486.044 295.183 486.544 295.5L515.738 287.675C515.796 287.624 515.855 287.58 515.913 287.529L517.093 287.269C516.991 287.075 516.88 286.876 516.778 286.682C516.72 286.57 516.654 286.459 516.595 286.346C516.554 286.271 516.513 286.197 516.48 286.127C516.466 286.102 516.452 286.077 516.44 286.059C516.407 285.989 516.369 285.928 516.338 285.865C515.725 284.751 515.104 283.639 514.474 282.53C514.472 282.524 514.472 282.524 514.464 282.519C509.742 274.02 504.028 266.113 497.444 258.961C497.244 258.75 497.043 258.532 496.831 258.325C493.827 255.183 490.572 252.292 487.097 249.681C485.19 248.257 483.212 246.93 481.171 245.706C475.89 242.554 470.147 240.253 464.152 238.886C452.199 236.163 439.51 237.294 429.224 243.671C428.961 243.834 428.705 243.996 428.443 244.166Z" fill="#F2F2F2"/>
<path d="M428.609 244.518C443.92 243.51 459.16 247.352 472.164 255.5C474.994 257.204 477.538 259.344 479.703 261.841C481.732 264.342 483.056 267.34 483.535 270.525C484.041 273.485 484.217 276.572 485.434 279.358C486.078 280.775 487.015 282.04 488.182 283.069C489.349 284.098 490.721 284.869 492.207 285.331C495.879 286.579 499.781 286.432 503.591 286.156C507.822 285.85 512.212 285.464 516.244 287.078C516.733 287.274 517.008 286.504 516.52 286.309C509.505 283.501 501.92 286.517 494.701 285.143C491.332 284.501 488.136 282.841 486.503 279.7C485.074 276.954 484.891 273.771 484.404 270.769C483.982 267.655 482.804 264.692 480.973 262.138C478.943 259.539 476.485 257.305 473.705 255.531C467.511 251.437 460.712 248.342 453.556 246.36C445.403 244.053 436.914 243.159 428.459 243.715C427.936 243.749 428.089 244.553 428.609 244.518V244.518Z" fill="white"/>
<path d="M468.131 252.63C469.202 250.262 469.396 247.591 468.679 245.093C467.962 242.595 466.381 240.434 464.218 238.994C463.779 238.704 463.309 239.373 463.748 239.663C465.765 240.999 467.237 243.013 467.9 245.34C468.563 247.668 468.372 250.155 467.362 252.354C467.143 252.832 467.913 253.105 468.131 252.63L468.131 252.63Z" fill="white"/>
<path d="M483.476 268.99C478.524 270.909 473.03 270.89 468.091 268.938C467.602 268.744 467.327 269.514 467.815 269.708C472.959 271.73 478.676 271.737 483.825 269.729C484.316 269.537 483.964 268.799 483.476 268.99V268.99Z" fill="white"/>
<path d="M445.545 245.128C445.322 246.13 444.853 247.061 444.181 247.838C443.509 248.614 442.654 249.212 441.694 249.576C441.202 249.762 441.554 250.499 442.044 250.315C443.102 249.907 444.045 249.247 444.79 248.39C445.534 247.534 446.058 246.509 446.314 245.403C446.347 245.301 446.34 245.19 446.294 245.093C446.248 244.996 446.167 244.92 446.068 244.881C445.966 244.845 445.853 244.851 445.756 244.897C445.658 244.943 445.582 245.026 445.545 245.128V245.128Z" fill="white"/>
<path d="M145.718 99.5008C149.511 99.5008 152.586 96.425 152.586 92.6308C152.586 88.8366 149.511 85.7607 145.718 85.7607C141.925 85.7607 138.85 88.8366 138.85 92.6308C138.85 96.425 141.925 99.5008 145.718 99.5008Z" fill="#FD6584"/>
<path d="M408.621 167.28C409.228 163.535 406.685 160.006 402.941 159.398C399.197 158.79 395.669 161.334 395.061 165.079C394.454 168.824 396.996 172.353 400.741 172.961C404.485 173.569 408.013 171.025 408.621 167.28Z" fill="#E6E6E6"/>
<path d="M145.439 22.1883C149.232 22.1883 152.307 19.1125 152.307 15.3183C152.307 11.5241 149.232 8.44824 145.439 8.44824C141.645 8.44824 138.57 11.5241 138.57 15.3183C138.57 19.1125 141.645 22.1883 145.439 22.1883Z" fill="#E6E6E6"/>
<path d="M350.379 96.1615H348.419V42.4427C348.419 34.1968 345.144 26.2887 339.314 20.458C333.485 14.6273 325.579 11.3516 317.335 11.3516H203.551C199.469 11.3516 195.427 12.1557 191.655 13.7182C187.884 15.2807 184.458 17.5708 181.571 20.4579C178.685 23.3449 176.395 26.7724 174.833 30.5445C173.271 34.3166 172.467 38.3596 172.467 42.4425V42.4425V337.149C172.467 345.395 175.742 353.303 181.571 359.134C187.4 364.964 195.307 368.24 203.551 368.24H317.335C325.579 368.24 333.485 364.964 339.314 359.134C345.144 353.303 348.419 345.395 348.419 337.149V134.4H350.379V96.1615Z" fill="#3F3D56"/>
<path d="M341.799 42.6582V336.933C341.8 339.981 341.2 343 340.034 345.817C338.868 348.633 337.159 351.192 335.004 353.348C332.849 355.504 330.291 357.214 327.475 358.381C324.66 359.548 321.642 360.149 318.594 360.15H204.254C198.098 360.15 192.195 357.704 187.842 353.351C183.489 348.997 181.043 343.092 181.043 336.935V42.6582C181.043 39.6095 181.643 36.5906 182.809 33.7739C183.975 30.9572 185.685 28.3979 187.84 26.242C189.995 24.0861 192.554 22.3759 195.37 21.2091C198.186 20.0422 201.204 19.4416 204.252 19.4414H218.13C217.447 21.1162 217.186 22.9334 217.37 24.7329C217.554 26.5324 218.178 28.2589 219.187 29.7603C220.195 31.2618 221.558 32.4921 223.154 33.3428C224.75 34.1935 226.53 34.6385 228.339 34.6387H293.527C295.335 34.6374 297.115 34.1916 298.71 33.3405C300.306 32.4895 301.668 31.2593 302.676 29.7582C303.684 28.2571 304.308 26.5311 304.493 24.7321C304.678 22.9331 304.418 21.1163 303.736 19.4414H318.588C321.636 19.4413 324.654 20.0416 327.47 21.2082C330.286 22.3747 332.845 24.0846 335.001 26.2403C337.156 28.3959 338.866 30.9551 340.032 33.7717C341.199 36.5882 341.799 39.6071 341.799 42.6558V42.6558L341.799 42.6582Z" fill="#F2F2F2"/>
<path d="M225.176 47.5322H189.707V49.1202H225.176V47.5322Z" fill="white"/>
<path d="M279.157 47.5322H243.688V49.1202H279.157V47.5322Z" fill="white"/>
<path d="M317.027 237.676H201.406C201.016 237.676 200.631 237.599 200.271 237.45C199.911 237.301 199.584 237.082 199.308 236.807C199.033 236.531 198.814 236.204 198.665 235.844C198.516 235.484 198.439 235.098 198.439 234.708C198.439 234.319 198.516 233.933 198.665 233.573C198.814 233.213 199.033 232.886 199.308 232.61C199.584 232.335 199.911 232.116 200.271 231.967C200.631 231.818 201.016 231.741 201.406 231.741H317.027C317.417 231.741 317.802 231.818 318.162 231.967C318.522 232.116 318.849 232.335 319.125 232.61C319.4 232.886 319.619 233.213 319.768 233.573C319.917 233.933 319.994 234.319 319.994 234.708C319.994 235.098 319.917 235.484 319.768 235.844C319.619 236.204 319.4 236.531 319.125 236.807C318.849 237.082 318.522 237.301 318.162 237.45C317.802 237.599 317.417 237.676 317.027 237.676V237.676Z" fill="#CCCCCC"/>
<path d="M317.027 258.32H201.406C200.619 258.32 199.865 258.008 199.308 257.451C198.752 256.895 198.439 256.14 198.439 255.353C198.439 254.566 198.752 253.811 199.308 253.255C199.865 252.698 200.619 252.386 201.406 252.386H317.027C317.814 252.386 318.568 252.698 319.125 253.255C319.681 253.811 319.994 254.566 319.994 255.353C319.994 256.14 319.681 256.895 319.125 257.451C318.568 258.008 317.814 258.32 317.027 258.32V258.32Z" fill="#CCCCCC"/>
<path d="M317.027 278.964H201.406C200.619 278.964 199.865 278.651 199.308 278.095C198.752 277.538 198.439 276.784 198.439 275.997C198.439 275.21 198.752 274.455 199.308 273.898C199.865 273.342 200.619 273.029 201.406 273.029H317.027C317.814 273.029 318.568 273.342 319.125 273.898C319.681 274.455 319.994 275.21 319.994 275.997C319.994 276.784 319.681 277.538 319.125 278.095C318.568 278.651 317.814 278.964 317.027 278.964V278.964Z" fill="#CCCCCC"/>
<path d="M333.135 47.5322H297.666V49.1202H333.135V47.5322Z" fill="white"/>
<path d="M225.176 332.58H189.707V334.168H225.176V332.58Z" fill="white"/>
<path d="M279.157 332.58H243.688V334.168H279.157V332.58Z" fill="white"/>
<path d="M333.135 332.58H297.666V334.168H333.135V332.58Z" fill="white"/>
<path d="M261.421 197.027C291.114 197.027 315.185 172.95 315.185 143.25C315.185 113.55 291.114 89.4727 261.421 89.4727C231.727 89.4727 207.656 113.55 207.656 143.25C207.656 172.95 231.727 197.027 261.421 197.027Z" fill="#D1D3D4"/>
<path d="M261.421 194.694C288.51 194.694 310.47 172.729 310.47 145.633C310.47 118.538 288.51 96.5723 261.421 96.5723C234.331 96.5723 212.371 118.538 212.371 145.633C212.371 172.729 234.331 194.694 261.421 194.694Z" fill="#EF4C29"/>
<path d="M257.139 164.862C257.033 164.862 256.926 164.86 256.818 164.855C255.878 164.809 254.958 164.56 254.122 164.126C253.287 163.691 252.555 163.081 251.977 162.338L244.246 152.397C243.183 151.027 242.707 149.292 242.922 147.571C243.136 145.851 244.025 144.286 245.392 143.22L245.669 143.004C247.039 141.941 248.774 141.464 250.494 141.679C252.215 141.893 253.78 142.782 254.847 144.149C255.194 144.595 255.633 144.962 256.135 145.223C256.637 145.484 257.189 145.633 257.754 145.66C258.319 145.693 258.885 145.601 259.411 145.39C259.936 145.179 260.409 144.855 260.795 144.44L276.491 127.867C277.684 126.61 279.328 125.877 281.06 125.831C282.793 125.784 284.474 126.426 285.734 127.617L285.989 127.858C287.246 129.052 287.979 130.696 288.026 132.429C288.073 134.163 287.431 135.844 286.24 137.104L261.883 162.82C261.273 163.465 260.537 163.979 259.721 164.331C258.906 164.682 258.027 164.863 257.139 164.862V164.862Z" fill="white"/>
<path d="M175.519 67.9883H169.168V102.131H175.519V67.9883Z" fill="#3F3D56"/>
<path d="M175.519 106.101H169.168V125.951H175.519V106.101Z" fill="#3F3D56"/>
<path d="M175.519 129.921H169.168V149.771H175.519V129.921Z" fill="#3F3D56"/>
<path d="M230.291 27.4937C232.044 27.4937 233.466 26.0717 233.466 24.3176C233.466 22.5636 232.044 21.1416 230.291 21.1416C228.537 21.1416 227.115 22.5636 227.115 24.3176C227.115 26.0717 228.537 27.4937 230.291 27.4937Z" fill="white"/>
<path opacity="0.16" d="M261.421 187.898C249.011 187.896 237.064 183.189 227.987 174.726C218.91 166.262 213.377 154.672 212.506 142.29C212.426 143.432 212.371 144.581 212.371 145.744C212.371 158.755 217.539 171.234 226.737 180.435C235.936 189.636 248.412 194.805 261.421 194.805C274.429 194.805 286.905 189.636 296.104 180.435C305.302 171.234 310.47 158.755 310.47 145.744C310.47 144.581 310.415 143.432 310.336 142.29C309.464 154.672 303.932 166.262 294.854 174.726C285.777 183.189 273.83 187.896 261.421 187.898V187.898Z" fill="#231F20"/>
<path d="M330.572 185.222L369.469 186.81L374.232 160.608L340.891 150.286L330.572 185.222Z" fill="#FFB8B8"/>
<path d="M345.274 128.47L345.65 116.092L326.798 111.364L292.858 101.46C292.409 100.097 291.556 98.9027 290.414 98.0348C289.271 97.1669 287.892 96.6664 286.459 96.5995C285.025 96.5326 283.606 96.9026 282.387 97.6603C281.169 98.4181 280.209 99.528 279.635 100.843C279.061 102.158 278.899 103.617 279.172 105.026C279.445 106.435 280.139 107.728 281.162 108.734C282.185 109.74 283.49 110.411 284.903 110.659C286.316 110.907 287.771 110.721 289.076 110.124L322.072 123.69L345.274 128.47Z" fill="#FFB8B8"/>
<path d="M333.127 128.384L343.732 113.255L343.996 113.29C344.163 113.312 360.794 115.538 371.696 118.785C372.922 119.11 374.062 119.698 375.036 120.509C376.011 121.319 376.797 122.333 377.34 123.479C378.119 125.08 378.414 126.874 378.188 128.64C377.962 130.406 377.226 132.068 376.069 133.422C374.891 134.885 373.318 135.978 371.536 136.57C369.753 137.162 367.839 137.229 366.02 136.762L333.127 128.384Z" fill="#EF4C29"/>
<path d="M339.843 357.752L329.056 357.752L323.924 316.134L339.845 316.134L339.843 357.752Z" fill="#FFB8B8"/>
<path d="M423.838 353.082L413.171 354.695L401.877 314.312L415.86 311.932L423.838 353.082Z" fill="#FFB8B8"/>
<path d="M371.057 178.87L333.748 172.518L332.421 175.253C325.28 189.993 321.064 205.977 320.005 222.322C319.104 236.12 318.574 250.693 318.557 265.969C318.53 289.638 319.738 311.6 321.646 331.584L342.123 331.456C341.532 310.238 342.337 289.005 344.534 267.894C346.101 252.84 348.28 238.778 350.8 225.802C355.474 244.851 362.072 263.375 370.491 281.09C377.647 296.227 392.365 313.723 399.521 328.859C406.853 327.979 414.186 327.099 421.518 326.219C415.74 310.934 405.431 288.613 399.653 273.328C391.391 251.474 387.658 236.655 379.396 214.801C379.868 210.693 379.96 206.55 379.671 202.424C379.286 195.549 377.856 187.298 373.677 181.797L371.057 178.87Z" fill="#2F2E41"/>
<path d="M376.821 167.478C378.684 170.961 374.259 178.178 371.057 178.87L334.162 166.941L352.74 113.096L362.086 114.795L377.035 117.314L382.337 122.135C383.672 123.35 384.626 124.927 385.083 126.674C385.539 128.421 385.478 130.263 384.908 131.977L376.821 167.478Z" fill="#EF4C29"/>
<path d="M351.424 146.669L340.986 140.007L327.273 153.782L301.388 177.87C299.987 177.558 298.525 177.679 297.195 178.216C295.864 178.753 294.728 179.682 293.937 180.879C293.146 182.076 292.736 183.485 292.763 184.92C292.79 186.355 293.251 187.748 294.087 188.915C294.922 190.081 296.092 190.967 297.442 191.454C298.791 191.941 300.257 192.007 301.645 191.643C303.033 191.279 304.277 190.502 305.214 189.415C306.151 188.328 306.736 186.982 306.891 185.556L335.438 164.154L351.424 146.669Z" fill="#FFB8B8"/>
<path d="M345.128 157.061L337.566 140.203L337.732 139.993C337.836 139.862 348.264 126.713 356.635 119.009C357.542 118.123 358.63 117.445 359.826 117.022C361.021 116.6 362.294 116.443 363.556 116.564C365.329 116.715 367.021 117.38 368.422 118.479C369.823 119.577 370.873 121.061 371.443 122.748C372.097 124.508 372.23 126.42 371.826 128.254C371.422 130.088 370.498 131.767 369.166 133.091L345.128 157.061Z" fill="#EF4C29"/>
<path d="M368.647 109.498C377.71 109.498 385.056 102.149 385.056 93.0847C385.056 84.0202 377.71 76.6719 368.647 76.6719C359.585 76.6719 352.238 84.0202 352.238 93.0847C352.238 102.149 359.585 109.498 368.647 109.498Z" fill="#FFB8B8"/>
<path d="M381.899 116.868L381.836 116.852L357.991 110.886C357.164 110.68 356.398 110.282 355.753 109.726C355.108 109.169 354.602 108.469 354.277 107.682C353.951 106.895 353.814 106.043 353.877 105.193C353.94 104.343 354.202 103.52 354.64 102.79L355.428 101.479C356.197 100.199 356.633 98.747 356.697 97.2549C356.761 95.7629 356.451 94.2785 355.794 92.9374C354.664 90.7471 352.721 89.0871 350.382 88.3138L350.303 88.2758L349.802 87.9641C349.31 87.7317 348.872 87.399 348.515 86.9873C348.159 86.5757 347.893 86.0941 347.734 85.5735C347.568 85.0341 347.518 84.4659 347.586 83.9058C347.654 83.3457 347.839 82.8061 348.128 82.3219C350.233 78.7999 353.384 76.0219 357.141 74.3744C361.888 72.3304 367.235 72.1698 372.096 73.9251C372.419 73.6275 372.812 73.415 373.238 73.3067C373.665 73.1983 374.111 73.1975 374.538 73.3044C386.887 76.2959 387.903 84.5868 385.463 97.8957L388.351 109.545C388.555 110.367 388.578 111.225 388.417 112.057C388.257 112.889 387.917 113.676 387.422 114.364C386.926 115.051 386.287 115.622 385.549 116.038C384.81 116.453 383.99 116.703 383.146 116.77L381.899 116.868ZM371.964 74.0562L371.962 74.0577L371.964 74.0562ZM372.261 73.9833L372.264 73.9841L372.261 73.9833Z" fill="#2F2E41"/>
<path d="M342.474 368.541H336.317L335.218 362.727L332.404 368.541H316.075C315.292 368.541 314.53 368.291 313.9 367.827C313.269 367.363 312.804 366.71 312.571 365.962C312.338 365.215 312.35 364.412 312.605 363.672C312.86 362.932 313.345 362.293 313.989 361.848L327.029 352.841V346.963L340.744 347.782L342.474 368.541Z" fill="#2F2E41"/>
<path d="M425.556 368.541H419.399L418.3 362.727L415.486 368.541H399.157C398.374 368.541 397.612 368.291 396.982 367.827C396.351 367.363 395.886 366.71 395.653 365.962C395.42 365.215 395.432 364.412 395.687 363.672C395.942 362.932 396.427 362.293 397.071 361.848L410.111 352.841V346.963L423.826 347.782L425.556 368.541Z" fill="#2F2E41"/>
</g>
<defs>
<clipPath id="clip0_3963_35518">
<rect width="519" height="370" fill="white"/>
</clipPath>
</defs>
</svg>
