<svg width="480" height="358" viewBox="0 0 480 358" fill="none" xmlns="http://www.w3.org/2000/svg">
<g clip-path="url(#clip0_3732_34468)">
<path d="M350.495 340.154H340.944L336.398 303.394H350.495V340.154Z" fill="#FFB6B6"/>
<path d="M355.536 356.667H348.687L347.464 350.214L344.333 356.667H326.168C325.297 356.667 324.449 356.39 323.748 355.875C323.046 355.36 322.528 354.635 322.269 353.805C322.01 352.975 322.023 352.085 322.307 351.264C322.591 350.442 323.131 349.733 323.847 349.239L338.354 339.241V332.718L353.612 333.627L355.536 356.667Z" fill="#2F2E41"/>
<path d="M407.235 328.127L399.57 333.814L373.941 307.022L385.253 298.628L407.235 328.127Z" fill="#FFB6B6"/>
<path d="M421.153 338.376L415.657 342.454L410.818 338.004L412.164 345.046L397.587 355.863C396.888 356.382 396.041 356.664 395.171 356.668C394.3 356.673 393.451 356.399 392.747 355.888C392.043 355.377 391.521 354.654 391.258 353.826C390.994 352.998 391.003 352.107 391.283 351.284L396.945 334.624L393.044 329.389L405.832 321.032L421.153 338.376Z" fill="#2F2E41"/>
<path d="M361.613 150.487C361.613 150.487 379.734 166.11 371.373 210.647L361.166 254.285L394.455 309.395L383.841 322.28L340.565 262.631L324.883 225.923L320.482 160.59L361.613 150.487Z" fill="#2F2E41"/>
<path d="M333.527 236.384L332.438 253.228L335.773 325.008L351.468 322.28L354.468 271.174L333.527 236.384Z" fill="#2F2E41"/>
<path d="M132.112 348.798L140.654 348.797L144.716 315.923L132.111 315.923L132.112 348.798Z" fill="#FFB6B6"/>
<path d="M129.934 346.014L132.338 346.014L141.723 342.205L146.754 346.013H146.754C149.597 346.014 152.324 347.141 154.334 349.146C156.344 351.152 157.473 353.873 157.474 356.71V357.057L129.934 357.058L129.934 346.014Z" fill="#2F2E41"/>
<path d="M165.211 343.427L173.542 345.303L184.762 314.13L172.466 311.359L165.211 343.427Z" fill="#FFB6B6"/>
<path d="M163.699 340.233L166.044 340.762L176.04 339.109L180.106 343.93L180.107 343.93C182.88 344.555 185.29 346.254 186.809 348.652C188.327 351.051 188.828 353.953 188.202 356.72L188.125 357.059L161.262 351.006L163.699 340.233Z" fill="#2F2E41"/>
<path d="M121.294 147.82C117.29 159.872 117.713 172.954 122.257 186.995L124.199 266.046C124.199 266.046 121.305 317.887 130.643 336.129H144.186L150.891 261.312L151.733 211.094L180.766 253.461L162.274 334.906L178.942 336.393L208.95 248.006L171.926 162.256L121.294 147.82Z" fill="#2F2E41"/>
<path d="M277.471 113.492C287.829 104.177 303.237 99.4938 316.161 104.717C302.903 112.062 292.677 123.849 287.291 137.994C285.233 143.457 283.515 149.746 278.454 152.67C275.305 154.49 271.388 154.579 267.857 153.701C264.327 152.822 261.09 151.061 257.898 149.318L256.99 149.297C261.067 135.991 267.112 122.807 277.471 113.492Z" fill="#E6E6E6"/>
<path d="M316.088 105C304.641 106.476 293.952 111.514 285.538 119.397C283.697 121.062 282.13 123.007 280.895 125.159C279.76 127.294 279.219 129.693 279.327 132.108C279.383 134.361 279.702 136.659 279.208 138.887C278.938 140.023 278.431 141.09 277.719 142.017C277.007 142.944 276.107 143.711 275.077 144.266C272.548 145.717 269.647 146.174 266.795 146.523C263.628 146.911 260.332 147.263 257.591 149.036C257.259 149.25 256.944 148.723 257.276 148.509C262.045 145.425 268.081 146.547 273.209 144.489C275.602 143.528 277.72 141.842 278.469 139.294C279.125 137.065 278.798 134.694 278.722 132.413C278.581 130.059 279.02 127.707 280.001 125.562C281.122 123.354 282.611 121.352 284.405 119.643C288.382 115.731 292.951 112.467 297.944 109.971C303.627 107.091 309.761 105.203 316.082 104.387C316.473 104.336 316.476 104.95 316.088 105H316.088Z" fill="white"/>
<path d="M288.099 116.699C286.965 115.111 286.434 113.172 286.6 111.229C286.767 109.286 287.62 107.465 289.007 106.092C289.289 105.815 289.733 106.239 289.451 106.516C288.157 107.793 287.362 109.489 287.211 111.298C287.06 113.108 287.562 114.912 288.627 116.385C288.857 116.705 288.329 117.018 288.099 116.699V116.699Z" fill="white"/>
<path d="M279.149 130.969C283.083 131.664 287.134 130.854 290.496 128.701C290.829 128.488 291.144 129.015 290.811 129.228C287.308 131.462 283.09 132.296 278.999 131.563C278.609 131.493 278.761 130.899 279.149 130.969V130.969Z" fill="white"/>
<path d="M303.677 107.903C303.987 108.609 304.468 109.226 305.077 109.701C305.686 110.175 306.403 110.491 307.165 110.62C307.555 110.685 307.402 111.28 307.014 111.215C306.174 111.068 305.382 110.718 304.708 110.196C304.034 109.673 303.499 108.994 303.149 108.217C303.11 108.147 303.099 108.064 303.119 107.986C303.139 107.908 303.188 107.84 303.256 107.797C303.326 107.755 303.409 107.743 303.488 107.763C303.567 107.783 303.635 107.833 303.677 107.903Z" fill="white"/>
<path d="M330.392 149.637C330.147 149.603 329.902 149.569 329.653 149.539C326.356 149.102 323.028 148.934 319.704 149.035C319.446 149.038 319.186 149.046 318.929 149.057C310.922 149.386 303.045 151.195 295.7 154.393C292.778 155.668 289.958 157.163 287.263 158.866C283.542 161.217 279.695 164.061 275.536 165.02C275.103 165.125 274.664 165.203 274.221 165.254L257.035 150.404C257.013 150.351 256.988 150.301 256.965 150.248L256.252 149.686C256.385 149.589 256.525 149.49 256.657 149.393C256.734 149.336 256.815 149.282 256.892 149.226C256.944 149.189 256.997 149.152 257.042 149.116C257.059 149.103 257.077 149.091 257.091 149.083C257.136 149.046 257.182 149.018 257.224 148.985C258.004 148.434 258.789 147.887 259.58 147.345C259.584 147.341 259.584 147.341 259.591 147.34C265.576 143.15 272.039 139.684 278.842 137.013C279.047 136.936 279.254 136.855 279.466 136.785C282.53 135.648 285.682 134.763 288.891 134.139C290.649 133.803 292.423 133.555 294.206 133.398C298.814 133 303.456 133.329 307.962 134.37C316.944 136.449 325.16 141.371 330.026 149.046C330.15 149.243 330.271 149.436 330.392 149.637Z" fill="#E6E6E6"/>
<path d="M330.165 149.821C320.135 144.123 308.561 141.723 297.086 142.963C294.611 143.186 292.187 143.797 289.903 144.773C287.709 145.796 285.829 147.386 284.459 149.379C283.144 151.212 282.012 153.239 280.273 154.721C279.372 155.466 278.323 156.013 277.196 156.325C276.068 156.638 274.887 156.709 273.729 156.534C270.835 156.173 268.242 154.795 265.755 153.36C262.992 151.766 260.148 150.068 256.89 149.836C256.495 149.808 256.562 149.198 256.956 149.226C262.625 149.629 266.767 154.152 272.104 155.589C274.594 156.26 277.302 156.186 279.438 154.601C281.306 153.216 282.475 151.127 283.791 149.26C285.099 147.296 286.868 145.681 288.946 144.557C291.173 143.468 293.569 142.765 296.033 142.478C301.569 141.744 307.186 141.883 312.678 142.89C318.953 144.004 324.991 146.182 330.53 149.328C330.873 149.523 330.505 150.015 330.165 149.821L330.165 149.821Z" fill="white"/>
<path d="M300.758 142.345C300.811 140.396 301.556 138.529 302.862 137.078C304.167 135.626 305.946 134.685 307.883 134.422C308.275 134.37 308.374 134.976 307.981 135.028C306.178 135.269 304.52 136.146 303.308 137.5C302.095 138.854 301.407 140.596 301.369 142.411C301.36 142.806 300.749 142.738 300.758 142.345Z" fill="white"/>
<path d="M285.003 148.362C287.724 151.281 291.448 153.069 295.431 153.369C295.826 153.399 295.759 154.008 295.365 153.979C291.22 153.658 287.349 151.79 284.525 148.747C284.256 148.456 284.736 148.074 285.003 148.362Z" fill="white"/>
<path d="M318.503 144.683C318.325 145.432 318.336 146.215 318.536 146.959C318.736 147.704 319.118 148.387 319.648 148.948C319.92 149.234 319.44 149.617 319.169 149.332C318.586 148.71 318.165 147.955 317.943 147.133C317.72 146.311 317.703 145.447 317.892 144.617C317.903 144.537 317.944 144.464 318.007 144.414C318.07 144.363 318.15 144.339 318.23 144.345C318.311 144.354 318.385 144.394 318.436 144.458C318.487 144.521 318.511 144.602 318.503 144.683Z" fill="white"/>
<path d="M28.5279 348.2C27.7212 351.221 25.6013 353.736 23.0419 355.568C22.6246 355.868 22.1962 356.146 21.7622 356.406C21.6287 356.484 21.4952 356.567 21.3561 356.64C21.2058 356.728 21.0556 356.812 20.9054 356.889H8.87065C8.65366 356.451 8.44223 356.007 8.23081 355.568C3.07306 344.752 -0.549037 333.082 0.0685563 321.194C0.313578 316.583 1.2843 312.04 2.94509 307.73C6.25006 299.141 12.2813 291.706 20.5771 287.964C20.783 287.87 21 287.775 21.2114 287.687C21.1446 287.925 21.0779 288.158 21.0111 288.397C20.1211 291.597 19.4922 294.863 19.1305 298.164C19.0971 298.419 19.0693 298.674 19.047 298.935C18.2566 306.896 18.9585 314.934 21.1168 322.638C21.1224 322.654 21.1279 322.677 21.1335 322.693C21.6065 324.398 22.1554 326.076 22.7804 327.729C23.27 329.034 23.7986 330.322 24.3773 331.588C26.792 336.902 30.0302 342.565 28.5279 348.2Z" fill="#E6E6E6"/>
<path d="M21.3612 287.936C21.2444 288.092 21.1275 288.242 21.0107 288.397C18.5669 291.629 16.4918 295.123 14.8236 298.813C14.7346 298.996 14.6512 299.18 14.5788 299.368C12.2932 304.522 10.8253 309.999 10.2278 315.603C10.2214 315.642 10.2177 315.681 10.2167 315.72C10.0776 317.03 9.99416 318.351 9.96078 319.673C9.83706 322.15 10.1056 324.631 10.7564 327.024C11.3499 328.978 12.3898 330.769 13.7943 332.254C13.9334 332.404 14.0725 332.554 14.2227 332.698C14.334 332.815 14.4564 332.932 14.5733 333.043C15.6972 334.114 16.9268 335.108 17.9839 336.257C18.4685 336.773 18.906 337.33 19.2915 337.923C19.9066 338.917 20.3039 340.029 20.4573 341.187C20.6108 342.345 20.5168 343.522 20.1817 344.641C19.425 347.451 17.6946 349.821 15.9253 352.081C15.0406 353.214 14.1281 354.358 13.3381 355.568C13.0488 356.001 12.7817 356.44 12.5369 356.889H11.8358C12.0695 356.44 12.3255 356.001 12.6037 355.568C14.6345 352.375 17.5222 349.633 19.0189 346.118C20.0315 343.747 20.3375 341.06 19.0578 338.734C18.6827 338.057 18.2289 337.427 17.7058 336.857C16.6876 335.708 15.4691 334.725 14.3619 333.687C14.0837 333.426 13.811 333.159 13.5495 332.882C12.1631 331.476 11.0933 329.791 10.4115 327.94C9.63938 325.589 9.27436 323.124 9.33209 320.65C9.33209 319.073 9.41555 317.485 9.57134 315.908C9.58803 315.709 9.61029 315.503 9.63255 315.298C10.7704 305.375 14.5492 295.937 20.5767 287.964C20.688 287.809 20.8049 287.659 20.9217 287.509C21.1609 287.198 21.6005 287.631 21.3612 287.936Z" fill="white"/>
<path d="M9.85821 315.962C7.93104 315.639 6.18168 314.642 4.92254 313.151C3.6634 311.66 2.97648 309.77 2.98444 307.82C2.98551 307.741 3.01746 307.665 3.07357 307.608C3.12968 307.552 3.20557 307.519 3.28524 307.518C3.36491 307.516 3.44215 307.545 3.50068 307.599C3.55921 307.653 3.59446 307.728 3.59901 307.807C3.58823 309.623 4.22827 311.383 5.40363 312.769C6.57898 314.155 8.21221 315.077 10.0085 315.367C10.3988 315.43 10.2463 316.025 9.85821 315.962V315.962Z" fill="white"/>
<path d="M13.6401 332.366C16.9142 330.082 19.2055 326.651 20.057 322.756C20.1411 322.37 20.7368 322.521 20.6529 322.906C19.7592 326.958 17.3675 330.524 13.9551 332.893C13.6297 333.118 13.3165 332.59 13.6401 332.366L13.6401 332.366Z" fill="white"/>
<path d="M14.6402 298.748C15.3598 299.028 16.1378 299.126 16.9043 299.032C17.6709 298.937 18.402 298.655 19.032 298.209C19.3544 297.979 19.6674 298.507 19.3471 298.736C18.6487 299.225 17.8409 299.536 16.9942 299.642C16.1475 299.748 15.2877 299.645 14.4899 299.343C14.4123 299.321 14.3461 299.27 14.3047 299.201C14.2633 299.132 14.2499 299.049 14.2671 298.971C14.2874 298.892 14.338 298.825 14.4078 298.783C14.4777 298.741 14.5612 298.729 14.6402 298.748Z" fill="white"/>
<path d="M63.1019 309.407C62.9071 309.557 62.7068 309.707 62.5121 309.862C59.8705 311.879 57.3975 314.108 55.1176 316.525C54.9396 316.708 54.7616 316.897 54.5891 317.086L54.5835 317.091C49.1776 322.947 44.9032 329.75 41.9757 337.157L41.959 337.207C41.9534 337.223 41.9479 337.235 41.9423 337.251C40.7819 340.216 39.8464 343.263 39.1437 346.368C38.4649 349.4 37.9085 352.648 36.8458 355.568C36.6844 356.018 36.5064 356.462 36.3172 356.889H11.5801C11.6635 356.451 11.7526 356.007 11.8416 355.568C13.0999 349.135 15.0667 342.859 17.7059 336.857C17.795 336.657 17.884 336.457 17.9841 336.257C19.3466 333.291 20.9488 330.441 22.7747 327.735C22.7746 327.734 22.7748 327.733 22.7751 327.733C22.7753 327.732 22.7757 327.731 22.7763 327.731C22.7768 327.73 22.7774 327.73 22.7781 327.73C22.7788 327.729 22.7795 327.729 22.7802 327.729C23.7828 326.252 24.8599 324.827 26.0073 323.459C28.983 319.927 32.498 316.884 36.4229 314.443C36.4452 314.426 36.473 314.415 36.4953 314.398C44.307 309.562 53.5653 307.258 62.4175 309.251H62.4231C62.6512 309.301 62.8737 309.351 63.1019 309.407Z" fill="#E6E6E6"/>
<path d="M63.0738 309.701C62.8847 309.751 62.6955 309.806 62.5119 309.862C58.6125 310.974 54.8487 312.514 51.2895 314.454C51.1114 314.548 50.9334 314.648 50.7553 314.748C45.8366 317.487 41.3718 320.969 37.5188 325.07C37.5158 325.073 37.5138 325.076 37.5132 325.081C37.4687 325.125 37.4187 325.175 37.3797 325.219C36.4895 326.174 35.6326 327.168 34.8203 328.19C33.2313 330.095 31.951 332.236 31.0257 334.536C30.3187 336.453 30.0692 338.508 30.2969 340.538C30.3136 340.743 30.3414 340.943 30.3692 341.149C30.3914 341.31 30.4137 341.471 30.4415 341.637C30.8087 343.864 31.443 346.096 31.265 348.367C31.1566 349.53 30.8027 350.658 30.2263 351.675C29.65 352.692 28.8643 353.576 27.9211 354.269C27.2799 354.763 26.5945 355.198 25.8736 355.568C24.8428 356.098 23.7688 356.54 22.6632 356.889H20.4766C20.7714 356.806 21.0608 356.723 21.3557 356.639C22.4021 356.345 23.4296 355.987 24.4325 355.568C25.0054 355.329 25.5629 355.054 26.1017 354.746C28.3384 353.464 30.2023 351.498 30.5917 348.872C30.9311 346.573 30.2746 344.275 29.8851 342.026C29.8184 341.637 29.7572 341.254 29.7238 340.871C29.4581 338.924 29.6195 336.942 30.1967 335.064C30.9973 332.72 32.1941 330.53 33.7353 328.59C34.6887 327.326 35.7064 326.112 36.7844 324.953C36.9179 324.803 37.057 324.653 37.2017 324.503C41.1356 320.373 45.678 316.867 50.6719 314.104H50.6774C54.3906 312.041 58.33 310.413 62.4173 309.251H62.4228C62.6064 309.196 62.7956 309.14 62.9792 309.09C63.3632 308.99 63.4522 309.595 63.0738 309.701Z" fill="white"/>
<path d="M36.9819 325.163C35.638 323.747 34.8423 321.901 34.7367 319.954C34.6311 318.007 35.2225 316.085 36.4054 314.533C36.6458 314.22 37.1449 314.578 36.9042 314.892C35.8 316.335 35.2492 318.125 35.3513 319.938C35.4533 321.751 36.2015 323.468 37.4607 324.779C37.734 325.064 37.2536 325.447 36.9819 325.163H36.9819Z" fill="white"/>
<path d="M30.1048 340.534C34.0969 340.678 37.9966 339.315 41.0263 336.717C41.3262 336.459 41.7111 336.937 41.4115 337.194C38.2537 339.892 34.1926 341.302 30.0386 341.144C29.6427 341.128 29.711 340.519 30.1048 340.534Z" fill="white"/>
<path d="M51.1853 314.293C51.5909 314.949 52.1534 315.495 52.8222 315.88C53.4911 316.265 54.2454 316.479 55.0174 316.501C55.4134 316.512 55.3446 317.121 54.9513 317.111C54.0985 317.082 53.2657 316.845 52.5257 316.421C51.7858 315.997 51.1612 315.399 50.7065 314.678C50.6579 314.614 50.6357 314.533 50.6444 314.453C50.6531 314.373 50.692 314.299 50.7533 314.247C50.8169 314.196 50.898 314.173 50.9789 314.181C51.0598 314.19 51.134 314.23 51.1853 314.293Z" fill="white"/>
<path d="M253.927 96.1255C253.356 96.8751 252.627 97.4906 251.792 97.9286C250.957 98.3667 250.035 98.6167 249.093 98.661C248.151 98.7054 247.21 98.543 246.337 98.1852C245.464 97.8275 244.681 97.2832 244.042 96.5906L223.01 105.718L225.058 94.0024L244.716 87.1306C245.954 86.1363 247.513 85.6293 249.1 85.7058C250.687 85.7823 252.19 86.437 253.325 87.5457C254.461 88.6545 255.149 90.1403 255.26 91.7216C255.371 93.3029 254.896 94.8699 253.927 96.1255Z" fill="#FFB8B8"/>
<path d="M239.891 99.7838L191.042 121.498L190.937 121.46L135.26 101.662C131.113 99.4987 127.952 95.8357 126.423 91.4225C124.894 87.0092 125.113 82.1797 127.036 77.9226C128.102 75.5706 129.655 73.4705 131.593 71.7606C133.531 70.0506 135.81 68.7697 138.279 68.002C140.749 67.2343 143.354 66.9972 145.922 67.3064C148.49 67.6157 150.963 68.4642 153.179 69.7961L194.613 94.7029L234.791 89.5067L239.891 99.7838Z" fill="#E6E6E6"/>
<path d="M479.999 357.339C479.999 357.426 479.982 357.512 479.949 357.593C479.916 357.673 479.867 357.746 479.806 357.807C479.744 357.869 479.671 357.917 479.591 357.95C479.51 357.983 479.424 358 479.337 358H0.679676C0.504075 358 0.335672 357.931 0.211503 357.807C0.0873345 357.683 0.0175781 357.515 0.0175781 357.339C0.0175781 357.164 0.0873345 356.996 0.211503 356.872C0.335672 356.748 0.504075 356.679 0.679676 356.679H479.337C479.424 356.678 479.51 356.695 479.591 356.728C479.671 356.762 479.744 356.81 479.806 356.872C479.867 356.933 479.916 357.006 479.949 357.086C479.982 357.167 479.999 357.253 479.999 357.339Z" fill="#CCCCCC"/>
<path d="M174.341 164.788L125.097 156.928C123.805 156.515 122.619 155.829 121.618 154.915C120.618 154.001 119.827 152.883 119.301 151.635C118.775 150.388 118.525 149.042 118.569 147.689C118.614 146.337 118.951 145.01 119.558 143.799L121.791 139.342L120.923 92.5107C120.819 86.4191 122.324 80.4074 125.287 75.0805C128.25 69.7536 132.566 65.2993 137.802 62.1657L142.604 59.3004L145.031 53.1504L167.409 53.6951L167.475 61.761L175.489 74.5135L175.488 74.5664L174.986 143.977L172.777 151.14L176.117 159.472L174.341 164.788Z" fill="#E6E6E6"/>
<path d="M158.27 45.5022C169.5 45.5022 178.603 36.418 178.603 25.212C178.603 14.0061 169.5 4.92188 158.27 4.92188C147.041 4.92188 137.938 14.0061 137.938 25.212C137.938 36.418 147.041 45.5022 158.27 45.5022Z" fill="#FFB8B8"/>
<path d="M137.097 29.636C136.491 27.0865 136.769 23.4989 137.112 20.9318C138.01 14.2018 141.756 7.80368 147.446 4.01387C148.525 3.19612 149.807 2.6877 151.154 2.54339C152.5 2.48731 153.959 3.20642 154.372 4.48611C154.711 3.64151 155.22 2.87523 155.868 2.23456C156.515 1.59389 157.287 1.09242 158.137 0.76112C159.842 0.108931 161.677 -0.137712 163.495 0.0407434C167.019 0.330592 170.398 1.56703 173.275 3.61884C176.151 5.67065 178.417 8.46128 179.832 11.6946C180.375 12.982 181.892 8.22654 182.58 9.44299C183.213 10.7074 184.316 11.6747 185.654 12.1377C187.002 12.5132 187.55 18.0566 188.08 16.764C188.492 17.7192 188.655 18.763 188.553 19.7979C188.452 20.8329 188.09 21.8254 187.501 22.683C186.911 23.5406 186.114 24.2355 185.183 24.7029C184.252 25.1703 183.218 25.3951 182.177 25.3562C180.805 25.3049 179.492 24.8013 178.136 24.5844C173.287 23.8091 168.144 27.3179 167.107 32.108C166.736 30.7228 166.143 29.4064 165.351 28.2098C164.949 27.6146 164.411 27.1238 163.78 26.7783C163.15 26.4327 162.446 26.2422 161.727 26.2228C160.348 26.2744 159.135 27.1744 158.24 28.2233C157.345 29.2721 156.672 30.4958 155.771 31.539C153.125 34.5999 149.546 41.7383 145.775 41.2176C142.8 40.8068 137.925 33.117 137.097 29.636Z" fill="#2F2E41"/>
<path d="M281.18 119.118C281.322 118.193 281.132 117.248 280.642 116.45C280.152 115.651 279.395 115.052 278.505 114.758L223.749 96.559C223.224 96.3838 222.668 96.3201 222.117 96.372L208.393 97.6672L200.518 98.4126L185.985 99.7831C185.108 99.8668 184.283 100.239 183.64 100.841C182.998 101.443 182.573 102.24 182.434 103.109L175.055 149.102C174.916 149.999 175.087 150.917 175.54 151.704C175.994 152.491 176.703 153.1 177.55 153.431L232.878 174.742C233.138 174.843 233.407 174.915 233.683 174.958C234.083 175.023 234.492 175.026 234.893 174.967L270.644 169.68C271.488 169.558 272.269 169.168 272.873 168.568C273.476 167.968 273.87 167.19 273.996 166.349L281.18 119.118Z" fill="white"/>
<path d="M178.804 150.189L234.131 171.5C234.212 171.532 234.3 171.542 234.386 171.53L270.132 166.243C270.238 166.228 270.337 166.179 270.412 166.104C270.488 166.029 270.537 165.931 270.552 165.825L277.741 118.594C277.757 118.479 277.733 118.361 277.672 118.262C277.611 118.163 277.517 118.087 277.407 118.049L277.039 117.925L222.648 99.8547C222.623 99.8459 222.597 99.8397 222.571 99.8362C222.529 99.8285 222.486 99.8263 222.443 99.8296L188.968 102.991L186.312 103.239C186.203 103.251 186.101 103.298 186.021 103.373C185.941 103.448 185.888 103.547 185.87 103.655L178.493 149.646C178.475 149.758 178.496 149.874 178.552 149.972C178.609 150.071 178.698 150.148 178.804 150.189Z" fill="url(#paint0_linear_3732_34468)"/>
<path d="M188.969 102.991L222.444 99.8296C222.486 99.8263 222.529 99.8285 222.572 99.8362C222.598 99.8397 222.623 99.8459 222.648 99.8547L277.039 117.925L262.692 119.44L257.323 120.005L242.044 121.616C241.999 121.618 241.954 121.617 241.91 121.614C241.883 121.606 241.856 121.598 241.823 121.589L188.969 102.991Z" fill="#2F2E41"/>
<path d="M177.548 153.433L232.876 174.743C233.136 174.844 233.407 174.914 233.683 174.954C234.084 175.02 234.492 175.026 234.894 174.969L270.641 169.682C271.484 169.56 272.266 169.17 272.87 168.569C273.474 167.969 273.869 167.19 273.995 166.349L281.178 119.117C281.284 118.421 281.204 117.709 280.945 117.054C280.909 116.967 280.872 116.88 280.83 116.797C280.545 116.199 280.111 115.684 279.57 115.3C279.245 115.066 278.885 114.883 278.504 114.757L278.44 114.735L223.751 96.5579C223.528 96.4868 223.299 96.4315 223.068 96.3924C222.752 96.3477 222.432 96.3415 222.114 96.3739L208.392 97.6647L200.518 98.4142L185.983 99.7836C185.388 99.839 184.814 100.028 184.303 100.337C184.264 100.357 184.226 100.379 184.191 100.405C184.166 100.421 184.141 100.439 184.119 100.459C183.673 100.763 183.293 101.154 183.004 101.609C182.714 102.064 182.521 102.572 182.434 103.104L175.051 149.101C174.912 149.999 175.083 150.917 175.537 151.705C175.991 152.492 176.7 153.102 177.548 153.433ZM183.414 103.264C183.504 102.713 183.749 102.199 184.121 101.781C184.233 101.647 184.359 101.524 184.496 101.416C184.872 101.113 185.316 100.906 185.789 100.814C185.883 100.794 185.977 100.781 186.073 100.774L210.545 98.4668L222.21 97.3591C222.289 97.3499 222.362 97.3512 222.435 97.3471C222.611 97.3434 222.788 97.3565 222.962 97.3862C223.122 97.4069 223.279 97.4443 223.432 97.4979L278.185 115.697C278.229 115.713 278.266 115.727 278.309 115.743C278.807 115.928 279.245 116.245 279.574 116.661C279.835 116.979 280.025 117.349 280.132 117.745C280.24 118.142 280.262 118.557 280.198 118.963L273.009 166.199C272.915 166.829 272.62 167.412 272.168 167.862C271.716 168.312 271.132 168.605 270.5 168.699L234.748 173.985C234.237 174.058 233.715 173.999 233.233 173.813L177.905 152.507C177.271 152.258 176.741 151.801 176.401 151.211C176.061 150.621 175.933 149.934 176.036 149.262L183.414 103.264Z" fill="#3F3D56"/>
<path d="M183.999 100.711C184.029 100.627 184.08 100.553 184.148 100.496C184.171 100.478 184.195 100.462 184.22 100.447C184.243 100.438 184.267 100.424 184.29 100.415C184.401 100.37 184.525 100.368 184.637 100.409L185.789 100.814L242.049 120.619L255.216 119.231L262.584 118.455L278.18 116.807L279.574 116.662L279.845 116.632C279.962 116.621 280.079 116.651 280.176 116.718C280.272 116.784 280.343 116.882 280.375 116.995C280.383 117.02 280.387 117.047 280.39 117.074C280.401 117.181 280.378 117.289 280.322 117.381C280.267 117.473 280.183 117.545 280.084 117.586C280.04 117.604 279.993 117.617 279.946 117.623L278.049 117.821L262.691 119.441L257.322 120.006L242.043 121.617C241.998 121.619 241.953 121.618 241.909 121.615C241.882 121.607 241.855 121.599 241.822 121.59L184.496 101.416L184.302 101.347C184.257 101.333 184.216 101.31 184.18 101.28C184.093 101.217 184.029 101.127 183.996 101.025C183.964 100.922 183.965 100.812 183.999 100.711Z" fill="#3F3D56"/>
<path d="M233.835 175.099C233.705 175.078 233.589 175.008 233.512 174.902C233.434 174.796 233.402 174.665 233.422 174.535L241.499 121.048C241.518 120.918 241.589 120.801 241.695 120.723C241.801 120.645 241.934 120.612 242.064 120.632L242.069 120.632C242.198 120.653 242.314 120.724 242.392 120.829C242.469 120.935 242.502 121.067 242.482 121.196L234.405 174.683C234.385 174.813 234.315 174.93 234.209 175.008C234.102 175.087 233.97 175.119 233.839 175.1L233.835 175.099Z" fill="#3F3D56"/>
<path d="M254.307 171.706L248.936 172.272L255.219 119.229C255.219 119.229 262.393 117.932 262.585 118.452C262.703 118.762 254.359 171.366 254.307 171.706Z" fill="#3F3D56"/>
<path d="M184.305 101.347L184.16 125.536L227.072 141.853L242.483 121.196L184.305 101.347Z" fill="#3F3D56"/>
<path d="M279.578 116.662C279.219 116.212 278.736 115.877 278.188 115.698L223.436 97.4987C223.283 97.447 223.125 97.4086 222.964 97.3839C222.79 97.354 222.613 97.3408 222.436 97.3444L222.524 96.7907L223.072 96.3947L236.074 87.001L279.495 100.28L279.571 115.3L279.578 116.662Z" fill="#3F3D56"/>
<path d="M186.491 140.178C186.553 140.184 186.614 140.197 186.673 140.217L203.472 145.723C203.683 145.791 203.857 145.941 203.957 146.138C204.057 146.335 204.074 146.564 204.005 146.774C203.936 146.984 203.786 147.157 203.589 147.257C203.391 147.357 203.162 147.374 202.952 147.305L186.152 141.799C185.957 141.735 185.793 141.602 185.69 141.424C185.587 141.247 185.554 141.038 185.596 140.838C185.638 140.637 185.752 140.459 185.917 140.337C186.083 140.216 186.287 140.159 186.491 140.178H186.491Z" fill="white"/>
<path d="M254.272 241.652C257.96 241.652 260.949 238.669 260.949 234.99C260.949 231.31 257.96 228.327 254.272 228.327C250.585 228.327 247.596 231.31 247.596 234.99C247.596 238.669 250.585 241.652 254.272 241.652Z" fill="#F2F2F2"/>
<path d="M84.0165 266.082C87.704 266.082 90.6932 263.099 90.6932 259.419C90.6932 255.74 87.704 252.757 84.0165 252.757C80.3291 252.757 77.3398 255.74 77.3398 259.419C77.3398 263.099 80.3291 266.082 84.0165 266.082Z" fill="#F2F2F2"/>
<path d="M223.114 45.6593C226.802 45.6593 229.791 42.6764 229.791 38.9967C229.791 35.317 226.802 32.334 223.114 32.334C219.427 32.334 216.438 35.317 216.438 38.9967C216.438 42.6764 219.427 45.6593 223.114 45.6593Z" fill="#F2F2F2"/>
<path d="M234.07 149.978C233.204 150.353 232.267 150.534 231.324 150.509C230.381 150.483 229.455 150.252 228.611 149.831C227.767 149.409 227.026 148.809 226.44 148.071C225.854 147.333 225.437 146.476 225.219 145.56L202.4 143.259L209.928 134.039L230.443 137.637C232.01 137.374 233.619 137.692 234.965 138.533C236.312 139.374 237.302 140.679 237.749 142.2C238.196 143.721 238.069 145.353 237.39 146.787C236.712 148.22 235.531 149.356 234.07 149.978Z" fill="#FFB8B8"/>
<path d="M220.034 146.32L166.782 141.424L166.709 141.34L127.845 96.9017C125.287 92.9914 124.324 88.2534 125.153 83.6577C125.982 79.062 128.54 74.9563 132.304 72.1813C134.386 70.6497 136.77 69.5756 139.298 69.0297C141.826 68.4838 144.442 68.4784 146.972 69.0139C149.503 69.5493 151.891 70.6136 153.98 72.1365C156.068 73.6594 157.81 75.6065 159.09 77.8495L183.028 119.794L220.62 134.866L220.034 146.32Z" fill="#E6E6E6"/>
<path d="M353.692 60.8613C352.369 51.1816 350.711 40.7891 343.869 33.8015C341.698 31.5843 339.1 29.8288 336.231 28.6408C333.362 27.4528 330.281 26.8568 327.175 26.8889C324.069 26.921 321.002 27.5804 318.158 28.8275C315.314 30.0745 312.753 31.8833 310.628 34.1448C305.648 39.4465 303.449 46.8909 303.247 54.155C303.046 61.419 304.667 68.6023 306.466 75.644C315.983 75.8337 325.431 73.9781 334.166 70.2032C336.351 69.257 338.5 68.1874 340.808 67.6012C343.116 67.0151 344.761 68.4901 346.907 69.5186L348.086 67.2669C349.05 69.0584 352.038 68.5274 353.121 66.8048C354.204 65.0823 353.967 62.8764 353.692 60.8613Z" fill="#2F2E41"/>
<path d="M315.964 114.89L277.086 115.72C276.489 114.69 275.605 113.856 274.541 113.318C273.478 112.78 272.28 112.563 271.095 112.692C269.91 112.821 268.788 113.291 267.865 114.045C266.943 114.799 266.26 115.804 265.899 116.938C265.539 118.072 265.516 119.286 265.835 120.433C266.153 121.579 266.799 122.609 267.693 123.396C268.587 124.183 269.691 124.694 270.871 124.866C272.05 125.039 273.255 124.865 274.338 124.367C279.494 124.66 319.835 130.373 322.241 126.691C324.684 122.954 337.723 109.764 337.723 109.764L327.7 95.5264L315.964 114.89Z" fill="#FFB6B6"/>
<path d="M325.438 70.4385C335.526 70.4385 343.705 62.2775 343.705 52.2105C343.705 42.1434 335.526 33.9824 325.438 33.9824C315.35 33.9824 307.172 42.1434 307.172 52.2105C307.172 62.2775 315.35 70.4385 325.438 70.4385Z" fill="#FFB6B6"/>
<path d="M354.695 87.2828C352.542 83.0076 351.496 77.7262 346.907 76.3403C343.808 75.4044 331.274 76.8069 328.45 78.3868C323.752 81.0147 328.009 85.9391 325.238 90.5473C322.225 95.557 314.036 105.61 311.023 110.62C308.952 114.064 315.929 124.173 314.809 128.031C313.689 131.889 313.635 136.219 315.543 139.755C317.251 142.921 314.78 145.721 316.498 148.882C318.283 152.168 320.475 164.457 318.813 167.808L317.7 171.139C328.743 171.787 338.028 158.622 349.002 157.236C351.727 156.891 354.558 156.441 356.804 154.862C360.112 152.537 361.42 148.317 362.238 144.361C366.172 125.028 363.517 104.937 354.695 87.2828Z" fill="#3F3D56"/>
<path d="M371.252 132.423C369.714 128.234 366.929 109.916 366.929 109.916L349.501 109.406L358.021 130.378L334.77 162.86C334.77 162.86 334.813 162.932 334.891 163.059C333.669 162.863 332.415 163.04 331.295 163.567C330.175 164.094 329.241 164.945 328.614 166.011C327.987 167.076 327.697 168.306 327.782 169.539C327.867 170.771 328.323 171.95 329.09 172.919C329.857 173.889 330.9 174.605 332.081 174.974C333.263 175.343 334.529 175.347 335.713 174.986C336.897 174.626 337.944 173.916 338.718 172.952C339.492 171.987 339.955 170.812 340.049 169.58C340.134 169.629 340.234 169.647 340.332 169.63C340.429 169.613 340.517 169.563 340.582 169.489C343.169 166.249 372.79 136.613 371.252 132.423Z" fill="#FFB6B6"/>
<path d="M373.023 120.855C371.423 114.118 369.812 107.343 367.115 100.964C364.418 94.5842 360.557 88.5586 355.126 84.2486C353.39 82.8707 351.449 81.6544 349.273 81.226C347.096 80.7976 344.644 81.2771 343.115 82.8814C340.669 85.4485 341.405 89.5691 342.302 92.9963C344.948 103.102 347.593 113.207 350.238 123.312C357.877 122.504 365.516 121.696 373.155 120.888L373.023 120.855Z" fill="#3F3D56"/>
<path d="M347.821 54.7392C347.149 50.3296 346.446 45.8831 344.866 41.7311C343.285 37.579 340.738 33.6901 337.084 31.338C331.298 27.614 323.807 28.3323 317.32 30.4743C312.304 32.131 307.407 34.6489 303.869 38.6968C300.331 42.7448 298.344 48.5208 299.66 53.8137C306.58 52.1823 313.499 50.5509 320.419 48.9195L319.661 49.4536C321.933 50.5841 323.917 52.2163 325.463 54.2263C327.008 56.2362 328.074 58.5711 328.581 61.0537C329.075 63.5665 329.004 66.1576 328.373 68.6396C327.741 71.1216 326.564 73.4324 324.928 75.405C329.647 73.7344 334.366 72.0639 339.085 70.3934C341.998 69.3622 345.115 68.1741 346.842 65.5294C348.845 62.4629 348.38 58.3986 347.821 54.7392Z" fill="#2F2E41"/>
</g>
<defs>
<linearGradient id="paint0_linear_3732_34468" x1="228.116" y1="99.8281" x2="228.116" y2="171.535" gradientUnits="userSpaceOnUse">
<stop stop-color="#FF7833"/>
<stop offset="1" stop-color="#F99E3F"/>
</linearGradient>
<clipPath id="clip0_3732_34468">
<rect width="480" height="358" fill="white"/>
</clipPath>
</defs>
</svg>
