<svg width="370" height="227" viewBox="0 0 370 227" fill="none" xmlns="http://www.w3.org/2000/svg">
<rect x="24" y="29" width="319" height="23" rx="11.5" fill="#EF4C29" fill-opacity="0.1"/>
<rect x="109" y="6" width="186" height="23" rx="11.5" fill="#EF4C29" fill-opacity="0.1"/>
<rect x="45" y="52" width="319" height="23" rx="11.5" fill="#EF4C29" fill-opacity="0.1"/>
<rect y="75" width="319" height="23" rx="11.5" fill="#EF4C29" fill-opacity="0.1"/>
<rect x="51" y="98" width="319" height="23" rx="11.5" fill="#EF4C29" fill-opacity="0.1"/>
<rect x="100" y="140" width="248" height="23" rx="11.5" fill="#EF4C29" fill-opacity="0.1"/>
<rect x="160" y="163" width="159" height="23" rx="11.5" fill="#EF4C29" fill-opacity="0.1"/>
<rect x="17" y="181" width="127" height="23" rx="11.5" fill="#EF4C29" fill-opacity="0.1"/>
<rect x="50" y="204" width="110" height="23" rx="11.5" fill="#EF4C29" fill-opacity="0.1"/>
<rect x="167" y="204" width="51" height="23" rx="11.5" fill="#EF4C29" fill-opacity="0.1"/>
<path d="M188 181C229.974 181 264 146.974 264 105C264 63.0264 229.974 29 188 29C146.026 29 112 63.0264 112 105C112 146.974 146.026 181 188 181Z" fill="#EF4C29"/>
<path d="M182.116 135C181.952 135 181.786 134.996 181.62 134.988C180.162 134.917 178.736 134.528 177.441 133.849C176.145 133.17 175.011 132.217 174.115 131.055L162.131 115.52C160.484 113.38 159.745 110.667 160.078 107.979C160.411 105.29 161.789 102.844 163.908 101.178L164.337 100.841C166.46 99.1796 169.15 98.4349 171.817 98.7703C174.484 99.1057 176.91 100.494 178.564 102.63C179.102 103.328 179.783 103.901 180.561 104.309C181.338 104.716 182.194 104.949 183.07 104.992C183.946 105.044 184.823 104.9 185.638 104.57C186.453 104.24 187.186 103.733 187.784 103.085L212.115 77.1861C213.965 75.2215 216.512 74.077 219.198 74.0037C221.884 73.9305 224.489 74.9343 226.442 76.7951L226.838 77.1721C228.787 79.0376 229.923 81.6066 229.996 84.3156C230.069 87.0245 229.074 89.6521 227.228 91.6216L189.471 131.808C188.525 132.817 187.385 133.62 186.12 134.169C184.856 134.718 183.493 135.001 182.116 135V135Z" fill="white"/>
<path opacity="0.16" d="M188 170.215C168.772 170.212 150.26 162.863 136.196 149.647C122.131 136.432 113.559 118.333 112.208 99C112.085 100.783 112 102.577 112 104.393C112 124.71 120.007 144.196 134.26 158.562C148.513 172.929 167.844 181 188 181C208.156 181 227.487 172.929 241.74 158.562C255.993 144.196 264 124.71 264 104.393C264 102.577 263.915 100.783 263.792 99C262.441 118.333 253.869 136.432 239.804 149.647C225.74 162.863 207.228 170.212 188 170.215V170.215Z" fill="#231F20"/>
<path d="M43 10.5C43 15.1944 39.1944 19 34.5 19C29.8056 19 26 15.1944 26 10.5C26 5.80558 29.8056 2 34.5 2C39.1944 2 43 5.80558 43 10.5Z" stroke="#EF4C29" stroke-width="4"/>
<path d="M289 207.5C289 213.299 284.299 218 278.5 218C272.701 218 268 213.299 268 207.5C268 201.701 272.701 197 278.5 197C284.299 197 289 201.701 289 207.5Z" stroke="#EF4C29" stroke-width="4"/>
<path d="M32 182.5C32 187.194 28.1944 191 23.5 191C18.8056 191 15 187.194 15 182.5C15 177.806 18.8056 174 23.5 174C28.1944 174 32 177.806 32 182.5Z" stroke="#EF4C29" stroke-width="4"/>
<path d="M299.5 122.5C299.5 126.366 296.366 129.5 292.5 129.5C288.634 129.5 285.5 126.366 285.5 122.5C285.5 118.634 288.634 115.5 292.5 115.5C296.366 115.5 299.5 118.634 299.5 122.5Z" stroke="#EF4C29" stroke-width="3"/>
<path d="M88.5 157C92.6421 157 96 153.642 96 149.5C96 145.358 92.6421 142 88.5 142C84.3579 142 81 145.358 81 149.5C81 153.642 84.3579 157 88.5 157Z" fill="#EF4C29"/>
<path d="M57 61C60.3137 61 63 58.3137 63 55C63 51.6863 60.3137 49 57 49C53.6863 49 51 51.6863 51 55C51 58.3137 53.6863 61 57 61Z" fill="#EF4C29"/>
<path d="M331 85C335.971 85 340 80.9706 340 76C340 71.0294 335.971 67 331 67C326.029 67 322 71.0294 322 76C322 80.9706 326.029 85 331 85Z" fill="#EF4C29"/>
<path d="M276.5 15C280.642 15 284 11.6421 284 7.5C284 3.35786 280.642 0 276.5 0C272.358 0 269 3.35786 269 7.5C269 11.6421 272.358 15 276.5 15Z" fill="#EF4C29"/>
</svg>
