<svg width="109" height="146" viewBox="0 0 109 146" fill="none" xmlns="http://www.w3.org/2000/svg">
<path d="M68.125 0C69.3295 0 70.4847 0.478496 71.3364 1.33022C72.1882 2.18195 72.6667 3.33714 72.6667 4.54167C72.6667 5.74619 73.1452 6.90138 73.9969 7.75311C74.8486 8.60484 76.0038 9.08333 77.2083 9.08333C78.4129 9.08333 79.5681 9.56183 80.4198 10.4136C81.2715 11.2653 81.75 12.4205 81.75 13.625V18.1667C81.75 19.3712 81.2715 20.5264 80.4198 21.3781C79.5681 22.2298 78.4129 22.7083 77.2083 22.7083H31.7917C30.5871 22.7083 29.432 22.2298 28.5802 21.3781C27.7285 20.5264 27.25 19.3712 27.25 18.1667V13.625C27.25 12.4205 27.7285 11.2653 28.5802 10.4136C29.432 9.56183 30.5871 9.08333 31.7917 9.08333C32.9962 9.08333 34.1514 8.60484 35.0031 7.75311C35.8548 6.90138 36.3333 5.74619 36.3333 4.54167C36.3333 3.33714 36.8118 2.18195 37.6636 1.33022C38.5153 0.478496 39.6705 0 40.875 0L68.125 0Z" fill="#DA3E28"/>
<path d="M9.08333 22.707C9.08333 21.5025 9.56183 20.3473 10.4136 19.4956C11.2653 18.6439 12.4205 18.1654 13.625 18.1654H18.1667C19.3712 18.1654 20.5264 17.6869 21.3781 16.8351C22.2298 15.9834 22.7083 14.8282 22.7083 13.6237C22.7083 12.4192 22.2298 11.264 21.3781 10.4123C20.5264 9.56053 19.3712 9.08203 18.1667 9.08203H13.625C10.0114 9.08203 6.54585 10.5175 3.99067 13.0727C1.43549 15.6279 0 19.0935 0 22.707V131.707C0 135.321 1.43549 138.786 3.99067 141.341C6.54585 143.897 10.0114 145.332 13.625 145.332H95.375C98.9886 145.332 102.454 143.897 105.009 141.341C107.565 138.786 109 135.321 109 131.707V22.707C109 19.0935 107.565 15.6279 105.009 13.0727C102.454 10.5175 98.9886 9.08203 95.375 9.08203H90.8333C89.6288 9.08203 88.4736 9.56053 87.6219 10.4123C86.7702 11.264 86.2917 12.4192 86.2917 13.6237C86.2917 14.8282 86.7702 15.9834 87.6219 16.8351C88.4736 17.6869 89.6288 18.1654 90.8333 18.1654H95.375C96.5795 18.1654 97.7347 18.6439 98.5864 19.4956C99.4382 20.3473 99.9167 21.5025 99.9167 22.707V131.707C99.9167 132.912 99.4382 134.067 98.5864 134.918C97.7347 135.77 96.5795 136.249 95.375 136.249H13.625C12.4205 136.249 11.2653 135.77 10.4136 134.918C9.56183 134.067 9.08333 132.912 9.08333 131.707V22.707Z" fill="#DA3E28"/>
<path d="M54.5005 75.3286L44.091 64.91C43.6688 64.4878 43.1675 64.1528 42.6157 63.9243C42.064 63.6957 41.4727 63.5781 40.8755 63.5781C40.2784 63.5781 39.687 63.6957 39.1353 63.9243C38.5836 64.1528 38.0823 64.4878 37.66 64.91C37.2378 65.3323 36.9028 65.8336 36.6743 66.3853C36.4457 66.937 36.3281 67.5284 36.3281 68.1255C36.3281 68.7227 36.4457 69.314 36.6743 69.8657C36.9028 70.4175 37.2378 70.9188 37.66 71.341L48.0786 81.7505L37.66 92.16C36.8072 93.0128 36.3281 94.1695 36.3281 95.3755C36.3281 96.5816 36.8072 97.7382 37.66 98.591C38.5128 99.4438 39.6695 99.9229 40.8755 99.9229C42.0816 99.9229 43.2382 99.4438 44.091 98.591L54.5005 88.1724L64.91 98.591C65.7628 99.4438 66.9195 99.9229 68.1255 99.9229C69.3316 99.9229 70.4882 99.4438 71.341 98.591C72.1938 97.7382 72.6729 96.5816 72.6729 95.3755C72.6729 94.1695 72.1938 93.0128 71.341 92.16L60.9224 81.7505L71.341 71.341C72.1938 70.4882 72.6729 69.3316 72.6729 68.1255C72.6729 66.9195 72.1938 65.7628 71.341 64.91C70.4882 64.0572 69.3316 63.5781 68.1255 63.5781C66.9195 63.5781 65.7628 64.0572 64.91 64.91L54.5005 75.3286Z" fill="#DA3E28"/>
</svg>
