<svg width="620" height="472" viewBox="0 0 620 472" fill="none" xmlns="http://www.w3.org/2000/svg">
<g clip-path="url(#clip0_3949_36165)">
<path d="M248.094 98.1746H245.832V36.3072C245.832 31.6049 244.904 26.9487 243.102 22.6044C241.3 18.2601 238.658 14.3127 235.328 10.9877C231.998 7.66269 228.045 5.02515 223.694 3.22567C219.343 1.42619 214.68 0.500004 209.971 0.5H78.6974C69.1864 0.499982 60.0649 4.27249 53.3396 10.9876C46.6142 17.7027 42.836 26.8104 42.8359 36.3071V375.716C42.8359 380.419 43.7635 385.075 45.5657 389.419C47.3679 393.764 50.0094 397.711 53.3395 401.036C56.6695 404.361 60.6229 406.998 64.9738 408.798C69.3247 410.597 73.9879 411.524 78.6973 411.524H209.97C219.481 411.524 228.603 407.751 235.328 401.036C242.054 394.321 245.832 385.213 245.832 375.717V142.213H248.094V98.1746Z" fill="#3F3D56"/>
<path d="M211.417 9.81641H194.281C195.069 11.7454 195.37 13.8384 195.157 15.9108C194.944 17.9833 194.224 19.9717 193.06 21.7008C191.896 23.4299 190.325 24.8468 188.483 25.8264C186.642 26.8061 184.587 27.3186 182.501 27.3188H107.296C105.21 27.3186 103.155 26.8061 101.314 25.8265C99.4725 24.8468 97.9007 23.43 96.7369 21.7008C95.573 19.9717 94.853 17.9833 94.64 15.9109C94.4271 13.8384 94.728 11.7454 95.516 9.81641H79.5114C75.9945 9.8164 72.512 10.5081 69.2628 11.8519C66.0136 13.1957 63.0613 15.1654 60.5744 17.6485C58.0876 20.1315 56.1149 23.0794 54.7691 26.3237C53.4232 29.568 52.7305 33.0452 52.7305 36.5568V375.468C52.7305 378.98 53.4232 382.457 54.7691 385.701C56.1149 388.945 58.0876 391.893 60.5744 394.376C63.0612 396.859 66.0136 398.829 69.2628 400.173C72.512 401.517 75.9944 402.208 79.5114 402.208H211.417C214.934 402.208 218.416 401.517 221.665 400.173C224.914 398.829 227.867 396.859 230.354 394.376C232.84 391.893 234.813 388.945 236.159 385.701C237.505 382.457 238.198 378.98 238.198 375.468V36.5568C238.198 33.0452 237.505 29.568 236.159 26.3237C234.813 23.0794 232.84 20.1315 230.354 17.6485C227.867 15.1654 224.914 13.1957 221.665 11.8519C218.416 10.5081 214.934 9.8164 211.417 9.81641Z" fill="white"/>
<path d="M290.169 411.581H0.759604C0.558144 411.581 0.364935 411.501 0.222482 411.359C0.0800288 411.217 0 411.024 0 410.823C0 410.622 0.0800288 410.429 0.222482 410.287C0.364935 410.144 0.558144 410.064 0.759604 410.064H290.169C290.37 410.064 290.563 410.144 290.706 410.287C290.848 410.429 290.928 410.622 290.928 410.823C290.928 411.024 290.848 411.217 290.706 411.359C290.563 411.501 290.37 411.581 290.169 411.581Z" fill="#CBCBCB"/>
<path d="M145.464 262.683C180.891 262.683 209.61 234.008 209.61 198.635C209.61 163.261 180.891 134.586 145.464 134.586C110.037 134.586 81.3184 163.261 81.3184 198.635C81.3184 234.008 110.037 262.683 145.464 262.683Z" fill="#FF7833"/>
<path d="M139.108 223.066C137.665 223.068 136.26 222.602 135.106 221.737L135.034 221.684L119.959 210.169C119.261 209.635 118.675 208.968 118.235 208.208C117.795 207.447 117.509 206.607 117.394 205.737C117.278 204.866 117.336 203.981 117.563 203.132C117.791 202.284 118.183 201.488 118.719 200.791C119.254 200.094 119.921 199.509 120.683 199.069C121.445 198.63 122.286 198.344 123.158 198.229C124.03 198.114 124.916 198.172 125.766 198.399C126.616 198.626 127.413 199.018 128.111 199.552L137.876 207.029L160.949 176.972C161.484 176.275 162.152 175.69 162.913 175.251C163.675 174.811 164.515 174.526 165.387 174.411C166.259 174.296 167.145 174.354 167.994 174.581C168.844 174.808 169.64 175.199 170.338 175.734L170.34 175.735L170.197 175.934L170.344 175.735C171.752 176.815 172.673 178.409 172.905 180.167C173.138 181.925 172.662 183.703 171.583 185.111L144.443 220.449C143.815 221.263 143.008 221.922 142.083 222.374C141.159 222.827 140.143 223.061 139.114 223.058L139.108 223.066Z" fill="white"/>
<path d="M527.352 417.878C528.132 416.618 529.051 415.449 530.091 414.393C530.519 413.949 530.972 413.53 531.438 413.123C534.274 410.603 537.732 408.882 541.455 408.138C545.178 407.394 549.032 407.653 552.622 408.889C556.211 410.126 559.406 412.294 561.878 415.172C564.349 418.05 566.009 421.533 566.685 425.264C569.818 413.696 561.663 402.301 553.464 393.549C545.26 384.799 535.884 375.201 535.931 363.212C535.954 356.541 539.223 350.589 544.157 346.177C544.309 346.043 544.462 345.91 544.617 345.781C550.581 340.676 558.255 338.006 566.105 338.304C580.688 339.084 593.422 348.87 602.265 360.479C616.499 379.158 622.737 405.377 612.772 426.64C604.007 445.341 585.313 456.446 566.234 465.373C563.57 466.62 560.912 467.829 558.258 469.001C558.241 469.006 558.222 469.018 558.204 469.023C558.076 469.079 557.948 469.135 557.829 469.193C557.281 469.434 556.733 469.675 556.19 469.914L556.442 470.078L557.226 470.585C556.954 470.42 556.685 470.261 556.413 470.096C556.332 470.047 556.247 470 556.166 469.95C546.796 464.336 537.295 458.397 530.822 449.633C524.108 440.533 521.409 427.498 527.352 417.878Z" fill="#F1F1F1"/>
<path d="M589.868 396.743C591.943 401.456 593.319 406.446 593.952 411.556C594.449 416.112 594.262 420.717 593.396 425.217C591.536 434.466 587.478 443.134 581.564 450.491C577.102 456.076 571.951 461.076 566.234 465.372C563.57 466.619 560.911 467.828 558.257 469C558.24 469.004 558.221 469.017 558.203 469.022C558.075 469.077 557.947 469.134 557.828 469.191C557.28 469.433 556.732 469.674 556.189 469.912L556.441 470.076L557.225 470.583C556.953 470.419 556.684 470.259 556.412 470.095C556.332 470.045 556.246 469.998 556.165 469.948C558.227 462.746 558.531 455.155 557.049 447.812C555.568 440.469 552.346 433.587 547.652 427.743C542.933 421.973 536.916 417.398 530.09 414.392C530.519 413.947 530.971 413.529 531.437 413.122C534.066 414.327 536.584 415.763 538.96 417.411C547.458 423.276 553.839 431.716 557.159 441.484C560.123 450.345 560.493 459.867 558.226 468.931C558.696 468.624 559.168 468.309 559.628 467.996C568.357 462.118 576.402 455.059 582.462 446.402C587.689 439.086 591.033 430.599 592.201 421.688C593.363 411.954 590.923 402.382 586.571 393.697C581.765 384.405 575.709 375.813 568.571 368.16C561.402 360.295 553.296 353.336 544.434 347.437C544.235 347.303 544.094 347.097 544.043 346.862C543.991 346.627 544.031 346.381 544.156 346.175C544.251 345.988 544.416 345.846 544.616 345.779C544.717 345.754 544.823 345.751 544.926 345.772C545.028 345.792 545.125 345.836 545.208 345.899C546.302 346.628 547.387 347.363 548.458 348.121C557.383 354.43 565.488 361.823 572.587 370.128C579.447 378.133 585.69 387.027 589.868 396.743Z" fill="white"/>
<path d="M398.824 30.2395C406.348 30.2395 412.447 24.1496 412.447 16.6373C412.447 9.12505 406.348 3.03516 398.824 3.03516C391.3 3.03516 385.201 9.12505 385.201 16.6373C385.201 24.1496 391.3 30.2395 398.824 30.2395Z" fill="#F1F1F1"/>
<path d="M568.216 212.268C572.803 212.268 576.521 208.555 576.521 203.975C576.521 199.395 572.803 195.682 568.216 195.682C563.629 195.682 559.91 199.395 559.91 203.975C559.91 208.555 563.629 212.268 568.216 212.268Z" fill="#F1F1F1"/>
<path d="M325.141 235.021C329.729 235.021 333.447 231.309 333.447 226.729C333.447 222.148 329.729 218.436 325.141 218.436C320.554 218.436 316.836 222.148 316.836 226.729C316.836 231.309 320.554 235.021 325.141 235.021Z" fill="#F1F1F1"/>
<path d="M329.832 471.499H619.241C619.442 471.499 619.635 471.419 619.778 471.277C619.92 471.135 620 470.942 620 470.741C620 470.54 619.92 470.347 619.778 470.205C619.635 470.062 619.442 469.982 619.241 469.982H329.832C329.63 469.982 329.437 470.062 329.295 470.205C329.152 470.347 329.072 470.54 329.072 470.741C329.072 470.942 329.152 471.135 329.295 471.277C329.437 471.419 329.63 471.499 329.832 471.499Z" fill="#CBCBCB"/>
<path d="M587.303 73.7937C587.683 71.0998 587.06 68.3602 585.552 66.0942C584.044 63.8282 581.756 62.1931 579.122 61.4988C576.487 60.8046 573.69 61.0993 571.258 62.3272C568.827 63.5552 566.931 65.631 565.93 68.1613L542.445 95.0442L549.336 114.261L572.954 82.8494C574.496 83.3423 576.126 83.4919 577.732 83.2875C579.337 83.0831 580.878 82.5297 582.246 81.6663C583.614 80.8029 584.776 79.6506 585.649 78.2904C586.523 76.9302 587.087 75.3953 587.303 73.7937Z" fill="#FFB7B7"/>
<path d="M489.953 178.394L567.911 95.321L557.396 78.6289L459.617 161.197L489.953 178.394Z" fill="#3F3D56"/>
<path d="M472.555 127.921C487.657 127.921 499.9 115.697 499.9 100.617C499.9 85.5371 487.657 73.3125 472.555 73.3125C457.452 73.3125 445.209 85.5371 445.209 100.617C445.209 115.697 457.452 127.921 472.555 127.921Z" fill="#2F2E41"/>
<path d="M474.754 85.1915C480.638 79.2334 487.759 74.6357 495.615 71.722C500.658 69.8566 506.147 68.7041 511.419 69.7635C516.691 70.8228 521.676 74.4644 523.147 79.6293C524.35 83.8526 523.108 88.3999 521.241 92.3755C519.375 96.3511 516.883 100.038 515.374 104.162C513.834 108.37 513.371 112.895 514.026 117.327C514.682 121.759 516.436 125.957 519.129 129.541C521.822 133.124 525.369 135.979 529.447 137.847C533.526 139.715 538.007 140.536 542.483 140.236C537.303 140.929 532.528 143.36 527.465 144.653C522.402 145.947 516.426 145.859 512.664 142.238C508.683 138.406 508.603 132.175 508.795 126.657C509.081 118.454 509.368 110.252 509.654 102.049C509.8 97.8659 509.924 93.5486 508.413 89.6442C506.902 85.7397 503.312 82.3208 499.12 82.3563C495.943 82.3832 493.131 84.305 490.583 86.2002C488.035 88.0954 485.338 90.1174 482.174 90.3993C479.009 90.6812 475.396 88.3428 475.633 85.1792L474.754 85.1915Z" fill="#2F2E41"/>
<path d="M368.695 283.952C366.07 284.68 363.268 284.421 360.821 283.225C358.374 282.028 356.451 279.977 355.418 277.46C354.384 274.943 354.311 272.134 355.213 269.567C356.114 267 357.928 264.852 360.309 263.53L383.933 236.77L403.915 241.08L375.811 268.565C376.502 270.026 376.864 271.621 376.871 273.237C376.877 274.853 376.529 276.45 375.851 277.917C375.172 279.384 374.18 280.685 372.944 281.728C371.707 282.77 370.257 283.529 368.695 283.952H368.695Z" fill="#FFB7B7"/>
<path d="M446.418 188.146L387.538 261.943L369.59 253.716L438.797 146.133L446.418 188.146Z" fill="#3F3D56"/>
<path d="M399.435 410.984L385.402 410.764L387.09 458.521H399.433L399.435 410.984Z" fill="#FFB7B7"/>
<path d="M402.582 454.497L378.273 454.496H378.272C374.164 454.496 370.224 456.126 367.319 459.027C364.414 461.927 362.782 465.861 362.781 469.963V470.466L402.581 470.468L402.582 454.497Z" fill="#2F2E41"/>
<path d="M492.349 398.318L477.02 408.145L507.683 444.979L518.07 438.321L492.349 398.318Z" fill="#FFB7B7"/>
<path d="M518.542 433.234L498.087 446.347L498.086 446.348C494.629 448.564 492.195 452.061 491.32 456.069C490.445 460.077 491.201 464.268 493.42 467.72L493.692 468.143L527.183 446.674L518.542 433.234Z" fill="#2F2E41"/>
<path d="M497.809 252.49C497.809 252.49 463.749 139.535 452.803 138.009C441.857 136.482 424.221 166.991 424.221 166.991C401.354 196.122 377.775 290.484 377.775 290.484C377.775 290.484 417.082 292.939 445.816 308.204C474.549 323.468 508.458 307.431 508.458 307.431L497.809 252.49Z" fill="#3F3D56"/>
<path opacity="0.1" d="M497.809 252.489C497.809 252.489 463.749 139.534 452.803 138.008C441.857 136.482 428.7 167.3 428.7 167.3C417.306 214.325 377.775 290.483 377.775 290.483C377.775 290.483 417.082 292.939 445.816 308.203C474.549 323.467 508.458 307.43 508.458 307.43L497.809 252.489Z" fill="black"/>
<path d="M469.866 218.693V275.452L476.556 357.671L509.978 419.864L494.027 431.241L448.45 372.082L430.424 313.34L402.115 443.376L380.846 441.859L395.617 261.567L423.647 210.818L469.866 218.693Z" fill="#2F2E41"/>
<path d="M435.525 163.795C424.89 174.414 434.765 185.79 434.765 185.79L422.611 213.095L470.466 225.988L487.19 151.373L475.796 139.238C453.008 138.479 452.995 138.008 452.995 138.008C449.003 141.909 435.525 163.795 435.525 163.795Z" fill="#FBB040"/>
<path d="M489.116 143.643C486.943 142.042 484.473 140.886 481.849 140.244C479.225 139.602 476.5 139.486 473.831 139.903C471.162 140.321 468.602 141.262 466.3 142.674C463.998 144.086 462 145.94 460.42 148.128C448.39 164.854 437.266 191.862 452.593 225.545C477.203 279.63 498.62 307.317 507.326 307.314C507.706 307.318 508.085 307.258 508.445 307.139C513.805 305.323 521.553 296.269 522.956 288.289C523.458 285.433 523.339 281.455 519.918 278.723C510.092 270.876 492.452 246.443 486.949 214.282C483.908 196.512 489.806 180.325 495.288 169.875C497.604 165.551 498.282 160.539 497.197 155.757C496.112 150.974 493.337 146.743 489.381 143.838L489.116 143.643Z" fill="#3F3D56"/>
<path d="M473.962 125.239C483.717 119.914 487.302 107.702 481.969 97.962C476.637 88.2219 464.406 84.6422 454.651 89.9667C444.896 95.2911 441.311 107.503 446.644 117.243C451.976 126.984 464.207 130.563 473.962 125.239Z" fill="#FFB7B7"/>
<path d="M435.996 106.081H465.063L465.361 101.915L466.851 106.081H471.327L471.917 97.8229L474.871 106.081H483.531V105.672C483.525 99.9227 481.235 94.4106 477.163 90.3451C473.091 86.2797 467.571 83.9928 461.813 83.9863H457.715C451.957 83.9928 446.436 86.2796 442.365 90.3451C438.293 94.4106 436.003 99.9227 435.996 105.672V106.081Z" fill="#2F2E41"/>
<path d="M479.141 121.059L491.545 117.04V86.9629H468.115L468.695 87.5412C476.766 95.5891 485.742 124.142 479.141 121.059Z" fill="#2F2E41"/>
</g>
<defs>
<clipPath id="clip0_3949_36165">
<rect width="620" height="471" fill="white" transform="translate(0 0.5)"/>
</clipPath>
</defs>
</svg>
