<svg width="428" height="481" viewBox="0 0 428 481" fill="none" xmlns="http://www.w3.org/2000/svg">
<path d="M242.638 370.619C345.011 370.619 428.001 287.653 428.001 185.309C428.001 82.9658 345.011 0 242.638 0C140.265 0 57.2754 82.9658 57.2754 185.309C57.2754 287.653 140.265 370.619 242.638 370.619Z" fill="#F2F2F2"/>
<path d="M363.77 82.8704H24.2105C23.8657 82.8631 23.5375 82.721 23.2963 82.4746C23.055 82.2282 22.9199 81.8972 22.9199 81.5524C22.9199 81.2076 23.055 80.8766 23.2963 80.6302C23.5375 80.3838 23.8657 80.2417 24.2105 80.2344H363.77C364.114 80.2417 364.443 80.3838 364.684 80.6302C364.925 80.8766 365.06 81.2076 365.06 81.5524C365.06 81.8972 364.925 82.2282 364.684 82.4746C364.443 82.721 364.114 82.8631 363.77 82.8704Z" fill="#CACACA"/>
<path d="M46.7773 73.5037C51.0445 73.5037 54.5038 69.9684 54.5038 65.6073C54.5038 61.2463 51.0445 57.7109 46.7773 57.7109C42.5101 57.7109 39.0508 61.2463 39.0508 65.6073C39.0508 69.9684 42.5101 73.5037 46.7773 73.5037Z" fill="#3F3D56"/>
<path d="M73.4687 73.5037C77.7359 73.5037 81.1952 69.9684 81.1952 65.6073C81.1952 61.2463 77.7359 57.7109 73.4687 57.7109C69.2015 57.7109 65.7422 61.2463 65.7422 65.6073C65.7422 69.9684 69.2015 73.5037 73.4687 73.5037Z" fill="#3F3D56"/>
<path d="M100.16 73.5037C104.427 73.5037 107.887 69.9684 107.887 65.6073C107.887 61.2463 104.427 57.7109 100.16 57.7109C95.8929 57.7109 92.4336 61.2463 92.4336 65.6073C92.4336 69.9684 95.8929 73.5037 100.16 73.5037Z" fill="#3F3D56"/>
<path d="M347.698 59.668H328.738C328.362 59.6754 328.004 59.8299 327.741 60.0982C327.478 60.3666 327.33 60.7274 327.33 61.1032C327.33 61.479 327.478 61.8398 327.741 62.1082C328.004 62.3765 328.362 62.531 328.738 62.5384H347.698C348.074 62.531 348.432 62.3765 348.695 62.1082C348.958 61.8398 349.105 61.479 349.105 61.1032C349.105 60.7274 348.958 60.3666 348.695 60.0982C348.432 59.8299 348.074 59.6754 347.698 59.668Z" fill="#3F3D56"/>
<path d="M347.698 65.0566H328.738C328.362 65.0641 328.004 65.2185 327.741 65.4869C327.478 65.7552 327.33 66.1161 327.33 66.4919C327.33 66.8677 327.478 67.2285 327.741 67.4968C328.004 67.7652 328.362 67.9196 328.738 67.9271H347.698C348.074 67.9196 348.432 67.7652 348.695 67.4968C348.958 67.2285 349.105 66.8677 349.105 66.4919C349.105 66.1161 348.958 65.7552 348.695 65.4869C348.432 65.2185 348.074 65.0641 347.698 65.0566Z" fill="#3F3D56"/>
<path d="M347.698 70.4355H328.738C328.362 70.443 328.004 70.5975 327.741 70.8658C327.478 71.1341 327.33 71.495 327.33 71.8708C327.33 72.2466 327.478 72.6074 327.741 72.8757C328.004 73.1441 328.362 73.2985 328.738 73.306H347.698C348.074 73.2985 348.432 73.1441 348.695 72.8757C348.958 72.6074 349.105 72.2466 349.105 71.8708C349.105 71.495 348.958 71.1341 348.695 70.8658C348.432 70.5975 348.074 70.443 347.698 70.4355Z" fill="#3F3D56"/>
<path d="M248.047 127.289H154.18C147.13 127.289 141.414 133.003 141.414 140.051V140.051C141.414 147.1 147.13 152.814 154.18 152.814H248.047C255.098 152.814 260.814 147.1 260.814 140.051C260.814 133.003 255.098 127.289 248.047 127.289Z" fill="white"/>
<path d="M308.687 178.338H93.5415C86.491 178.338 80.7754 184.052 80.7754 191.1V191.1C80.7754 198.149 86.491 203.863 93.5415 203.863H308.687C315.737 203.863 321.453 198.149 321.453 191.1C321.453 184.052 315.737 178.338 308.687 178.338Z" fill="white"/>
<path d="M308.687 229.389H93.5415C86.491 229.389 80.7754 235.103 80.7754 242.151V242.151C80.7754 249.2 86.491 254.913 93.5415 254.913H308.687C315.737 254.913 321.453 249.2 321.453 242.151C321.453 235.103 315.737 229.389 308.687 229.389Z" fill="white"/>
<path d="M66.8799 479.877L66.3735 479.827C57.8857 478.952 49.6904 476.239 42.3572 471.878C35.0239 467.516 28.7287 461.61 23.9091 454.571C21.2371 450.601 19.0758 446.311 17.4761 441.801L17.3224 441.37L17.7776 441.334C23.2122 440.896 28.7952 439.975 31.2754 439.536L15.2826 434.119L15.1837 433.644C14.7202 431.468 14.9194 429.202 15.7556 427.14C16.5917 425.077 18.0265 423.312 19.875 422.072C21.7286 420.773 23.9289 420.057 26.1926 420.019C28.4563 419.981 30.6796 420.621 32.5761 421.857C34.3173 422.969 36.1385 424.07 37.8997 425.136C43.9519 428.795 50.2101 432.58 54.9022 437.758C58.4153 441.712 61.0004 446.402 62.4688 451.483C63.9372 456.564 64.2517 461.909 63.3895 467.127L66.8799 479.877Z" fill="#F2F2F2"/>
<path d="M125.014 471.927L132.895 471.926L136.646 441.531L125.012 441.532L125.014 471.927Z" fill="#FFB7B7"/>
<path d="M124.735 480.146L148.974 480.145V479.838C148.974 477.337 147.98 474.938 146.21 473.169C144.441 471.401 142.041 470.407 139.539 470.407H139.539L135.111 467.049L126.85 470.407L124.734 470.407L124.735 480.146Z" fill="#2F2E41"/>
<path d="M61.8457 450.101L68.1502 454.829L89.3962 432.766L80.0901 425.787L61.8457 450.101Z" fill="#FFB7B7"/>
<path d="M56.6875 456.511L76.0769 471.052L76.2608 470.807C77.7623 468.806 78.4072 466.291 78.0537 463.815C77.7003 461.338 76.3774 459.104 74.376 457.603L74.3755 457.602L72.8497 452.26L64.2257 449.99L62.5332 448.721L56.6875 456.511Z" fill="#2F2E41"/>
<path d="M88.0455 329.29C88.0455 329.29 88.4807 341.156 89.0295 350.672C89.1195 352.233 85.4622 353.928 85.5569 355.626C85.6197 356.752 86.3072 357.847 86.371 359.022C86.4384 360.261 85.4893 361.358 85.5569 362.64C85.623 363.893 86.7057 365.329 86.7711 366.611C87.474 380.407 90.0219 396.922 87.4705 401.538C86.2131 403.814 70.1855 435.335 70.1855 435.335C70.1855 435.335 79.1155 448.726 81.667 444.263C85.0368 438.367 111.008 410.785 111.008 405.518C111.008 400.257 117.017 360.829 117.017 360.829L121.207 384.162L123.128 388.785L122.524 391.499L123.766 395.162L123.833 398.786L125.041 405.517C125.041 405.517 121.406 457.96 123.453 459.42C125.507 460.887 135.451 463.52 136.625 460.887C137.792 458.253 145.39 406.155 145.39 406.155C145.39 406.155 146.614 382.281 147.941 360.09C148.018 358.802 148.924 357.246 148.994 355.977C149.077 354.504 148.503 352.591 148.579 351.162C148.662 349.523 149.389 348.369 149.459 346.801C150.002 334.678 146.958 319.917 145.989 318.463C143.061 314.076 140.426 310.568 140.426 310.568C140.426 310.568 100.993 297.616 90.4552 310.777L88.0455 329.29Z" fill="#2F2E41"/>
<path d="M127.376 207.272L111.743 204.146L104.448 214.044C90.8357 227.425 90.6307 239.234 93.0607 258.164V284.731L91.3019 302.541C91.3019 302.541 85.0758 315.56 91.4974 318.592C97.9191 321.623 140.099 321.364 144.127 320.154C148.154 318.944 144.663 317.459 143.606 311.82C141.619 301.227 142.948 306.336 143.085 302.964C145.045 254.584 140.479 234.722 140.015 229.501L132.065 215.086L127.376 207.272Z" fill="#3F3D56"/>
<path d="M209.768 246.28C209.337 247.097 208.732 247.809 207.995 248.367C207.259 248.925 206.409 249.314 205.506 249.508C204.602 249.702 203.667 249.696 202.767 249.489C201.866 249.283 201.022 248.882 200.293 248.314L166.533 269.743L166.631 258.076L199.425 239.05C200.461 237.889 201.886 237.149 203.431 236.969C204.977 236.788 206.534 237.181 207.809 238.072C209.084 238.963 209.987 240.291 210.349 241.804C210.71 243.317 210.503 244.909 209.768 246.28Z" fill="#FFB7B7"/>
<path d="M115.034 220.784L111.19 220.377C109.444 220.195 107.681 220.469 106.073 221.171C104.464 221.873 103.064 222.98 102.01 224.383C101.189 225.465 100.599 226.704 100.277 228.024L100.275 228.035C99.8032 229.978 99.9157 232.017 100.598 233.896C101.281 235.776 102.503 237.412 104.112 238.6L117.387 248.384C126.703 260.968 144.211 269.317 164.748 276.1L196.67 256.28L185.379 242.609L163.484 254.34L130.937 229.153L130.918 229.138L118.531 221.16L115.034 220.784Z" fill="#3F3D56"/>
<path d="M122.095 199.597C132.163 199.597 140.324 191.438 140.324 181.373C140.324 171.308 132.163 163.148 122.095 163.148C112.027 163.148 103.865 171.308 103.865 181.373C103.865 191.438 112.027 199.597 122.095 199.597Z" fill="#FFB7B7"/>
<path d="M122.516 199.602C122.369 199.606 122.222 199.61 122.075 199.614C122.012 199.777 121.944 199.939 121.865 200.098L122.516 199.602Z" fill="#2F2E41"/>
<path d="M127.518 181.879C127.546 182.058 127.59 182.235 127.648 182.408C127.624 182.227 127.58 182.05 127.518 181.879Z" fill="#2F2E41"/>
<path d="M140.555 163.929C139.805 166.258 139.135 163.303 136.667 163.835C133.698 164.474 130.242 164.254 127.811 162.435C126.025 161.125 123.95 160.267 121.761 159.934C119.573 159.6 117.336 159.801 115.241 160.52C111.081 161.991 104.11 163.029 103.026 167.306C102.649 168.793 102.499 170.406 101.586 171.638C100.787 172.715 99.5265 173.33 98.4724 174.159C94.9131 176.959 97.6335 184.912 99.318 189.115C101.003 193.318 104.867 196.38 109.115 197.948C113.226 199.465 117.688 199.733 122.073 199.614C122.836 197.636 122.506 195.352 121.877 193.302C121.195 191.083 120.187 188.941 119.902 186.637C119.617 184.333 120.242 181.716 122.175 180.428C123.951 179.245 126.841 179.966 127.517 181.879C127.123 179.487 129.546 177.172 132.046 176.765C134.729 176.328 137.412 177.297 140.087 177.779C142.762 178.261 141.813 167.001 140.555 163.929Z" fill="#2F2E41"/>
<path d="M205.332 245.739C225.935 245.739 242.638 229.041 242.638 208.444C242.638 187.846 225.935 171.148 205.332 171.148C184.728 171.148 168.025 187.846 168.025 208.444C168.025 229.041 184.728 245.739 205.332 245.739Z" fill="#FF7833"/>
<path d="M215.131 192.904L205.332 202.7L195.532 192.904C194.77 192.143 193.737 191.716 192.66 191.717C191.584 191.717 190.551 192.145 189.79 192.906C189.029 193.667 188.601 194.699 188.6 195.776C188.6 196.852 189.027 197.885 189.787 198.647L199.587 208.443L189.787 218.24C189.026 219.002 188.598 220.035 188.598 221.112C188.598 222.189 189.026 223.222 189.787 223.983C190.549 224.745 191.582 225.173 192.66 225.173C193.737 225.173 194.77 224.745 195.532 223.983L205.332 214.186L215.131 223.983C215.893 224.744 216.926 225.17 218.003 225.17C219.08 225.17 220.112 224.742 220.873 223.981C221.635 223.219 222.063 222.187 222.063 221.111C222.064 220.035 221.637 219.002 220.876 218.24L211.076 208.443L220.876 198.647C221.637 197.885 222.064 196.852 222.063 195.776C222.063 194.7 221.635 193.667 220.873 192.906C220.112 192.145 219.08 191.717 218.003 191.717C216.926 191.716 215.893 192.143 215.131 192.904Z" fill="white"/>
<path d="M190.631 177.097C190.922 177.974 191.017 178.904 190.91 179.821C190.803 180.739 190.496 181.621 190.01 182.407C189.525 183.193 188.873 183.863 188.101 184.37C187.328 184.877 186.454 185.208 185.539 185.341L177.636 224.531L169.281 216.383L178.252 179.553C178.131 178.003 178.584 176.462 179.523 175.222C180.463 173.983 181.825 173.131 183.35 172.829C184.876 172.526 186.46 172.793 187.802 173.58C189.144 174.367 190.151 175.618 190.631 177.097Z" fill="#FFB7B7"/>
<path d="M106.641 227.788L103.687 230.278C102.347 231.412 101.324 232.874 100.717 234.52C100.11 236.167 99.9399 237.942 100.223 239.674C100.435 241.016 100.922 242.3 101.651 243.446L101.658 243.455C102.734 245.14 104.283 246.47 106.112 247.279C107.941 248.088 109.969 248.339 111.94 248.001L128.193 245.198C143.725 247.19 161.873 240.339 180.987 230.22L188.78 193.47L171.096 192.15L164.405 216.067L123.692 222.109L123.668 222.112L109.333 225.525L106.641 227.788Z" fill="#3F3D56"/>
<path d="M199.185 480.776L0.868924 481.001C0.638469 481.001 0.417469 480.909 0.254513 480.746C0.0915562 480.583 0 480.362 0 480.132C0 479.902 0.0915562 479.681 0.254513 479.518C0.417469 479.355 0.638469 479.263 0.868924 479.263L199.185 479.039C199.416 479.039 199.637 479.131 199.8 479.293C199.963 479.456 200.054 479.677 200.054 479.908C200.054 480.138 199.963 480.359 199.8 480.522C199.637 480.685 199.416 480.776 199.185 480.776Z" fill="#CACACA"/>
</svg>
