<svg width="20" height="20" viewBox="0 0 20 20" fill="none" xmlns="http://www.w3.org/2000/svg">
<path d="M9.58464 11.0423C8.63694 11.0423 7.71052 10.7613 6.92253 10.2348C6.13454 9.70826 5.52038 8.95991 5.15771 8.08434C4.79504 7.20878 4.70015 6.24534 4.88504 5.31585C5.06993 4.38635 5.52629 3.53256 6.19642 2.86243C6.86654 2.19231 7.72034 1.73594 8.64983 1.55106C9.57932 1.36617 10.5428 1.46106 11.4183 1.82373C12.2939 2.1864 13.0422 2.80056 13.5688 3.58855C14.0953 4.37653 14.3763 5.30295 14.3763 6.25065C14.3741 7.52081 13.8686 8.73831 12.9704 9.63644C12.0723 10.5346 10.8548 11.0401 9.58464 11.0423V11.0423ZM9.58464 2.70899C8.88416 2.70899 8.19942 2.9167 7.61699 3.30587C7.03457 3.69503 6.58062 4.24816 6.31256 4.89532C6.0445 5.54247 5.97437 6.25458 6.11102 6.9416C6.24768 7.62861 6.58499 8.25968 7.0803 8.75499C7.57561 9.2503 8.20668 9.58761 8.89369 9.72427C9.58071 9.86092 10.2928 9.79079 10.94 9.52273C11.5871 9.25467 12.1403 8.80072 12.5294 8.2183C12.9186 7.63587 13.1263 6.95113 13.1263 6.25065C13.1241 5.31202 12.7503 4.41246 12.0865 3.74875C11.4228 3.08503 10.5233 2.71119 9.58464 2.70899V2.70899Z" fill="#9FA2B4"/>
<path d="M2.08398 17.7096C1.9189 17.7075 1.76117 17.6409 1.64443 17.5242C1.52768 17.4074 1.46114 17.2497 1.45898 17.0846C1.46339 15.1521 2.23303 13.3 3.59953 11.9335C4.96603 10.567 6.81813 9.79737 8.75065 9.79297H10.4173C10.5831 9.79297 10.742 9.85882 10.8593 9.97603C10.9765 10.0932 11.0423 10.2522 11.0423 10.418C11.0423 10.5837 10.9765 10.7427 10.8593 10.8599C10.742 10.9771 10.5831 11.043 10.4173 11.043H8.75065C7.14898 11.0452 5.61354 11.6824 4.48098 12.815C3.34843 13.9475 2.71119 15.483 2.70898 17.0846C2.70683 17.2497 2.64029 17.4074 2.52354 17.5242C2.40679 17.6409 2.24907 17.7075 2.08398 17.7096V17.7096Z" fill="#9FA2B4"/>
<path d="M12.0845 18.5423C11.9239 18.5291 11.7746 18.4545 11.6678 18.3339L8.33446 15.0006C8.27876 14.884 8.26058 14.753 8.28244 14.6256C8.30429 14.4982 8.3651 14.3807 8.4565 14.2893C8.54789 14.1979 8.66536 14.1371 8.79275 14.1153C8.92013 14.0934 9.05116 14.1116 9.16779 14.1673L12.0261 17.0256L17.4511 10.8339C17.5058 10.7727 17.5721 10.7228 17.6461 10.6871C17.7201 10.6514 17.8004 10.6306 17.8824 10.626C17.9645 10.6214 18.0466 10.6329 18.1242 10.66C18.2017 10.6871 18.2732 10.7292 18.3345 10.7839C18.3957 10.8387 18.4456 10.9049 18.4813 10.9789C18.517 11.0529 18.5378 11.1332 18.5424 11.2153C18.547 11.2973 18.5355 11.3794 18.5084 11.457C18.4813 11.5345 18.4392 11.606 18.3845 11.6673L12.5511 18.3339C12.4966 18.3988 12.4292 18.4516 12.3532 18.4889C12.2771 18.5262 12.1941 18.5472 12.1095 18.5506L12.0845 18.5423Z" fill="#9FA2B4"/>
</svg>
