<svg width="16" height="16" viewBox="0 0 16 16" fill="none" xmlns="http://www.w3.org/2000/svg">
<path opacity="0.4" d="M15.2311 9.86546L13.8999 9.09671C14.0343 8.37171 14.0343 7.62796 13.8999 6.90296L15.2311 6.13421C15.3843 6.04671 15.453 5.86546 15.403 5.69671C15.0561 4.58421 14.4655 3.57796 13.6936 2.74046C13.5749 2.61233 13.3811 2.58108 13.2311 2.66858L11.8999 3.43733C11.3405 2.95608 10.6968 2.58421 9.99989 2.34046V0.806084C9.99989 0.631084 9.87802 0.477959 9.70614 0.440459C8.55927 0.184209 7.38427 0.196709 6.29365 0.440459C6.12177 0.477959 5.9999 0.631084 5.9999 0.806084V2.34358C5.30615 2.59046 4.6624 2.96233 4.0999 3.44046L2.77177 2.67171C2.61865 2.58421 2.42802 2.61233 2.30927 2.74358C1.5374 3.57796 0.946773 4.58421 0.599898 5.69983C0.546773 5.86858 0.618648 6.04983 0.771773 6.13733L2.10302 6.90608C1.96865 7.63108 1.96865 8.37483 2.10302 9.09983L0.771773 9.86858C0.618648 9.95608 0.549898 10.1373 0.599898 10.3061C0.946773 11.4186 1.5374 12.4248 2.30927 13.2623C2.42802 13.3905 2.62177 13.4217 2.77177 13.3342L4.10302 12.5655C4.6624 13.0467 5.30615 13.4186 6.00302 13.6623V15.1998C6.00302 15.3748 6.1249 15.528 6.29677 15.5655C7.44365 15.8217 8.61864 15.8092 9.70927 15.5655C9.88114 15.528 10.003 15.3748 10.003 15.1998V13.6623C10.6968 13.4155 11.3405 13.0436 11.903 12.5655L13.2343 13.3342C13.3874 13.4217 13.578 13.3936 13.6968 13.2623C14.4686 12.428 15.0593 11.4217 15.4061 10.3061C15.453 10.1342 15.3843 9.95296 15.2311 9.86546ZM7.99989 10.4998C6.62177 10.4998 5.4999 9.37796 5.4999 7.99983C5.4999 6.62171 6.62177 5.49983 7.99989 5.49983C9.37802 5.49983 10.4999 6.62171 10.4999 7.99983C10.4999 9.37796 9.37802 10.4998 7.99989 10.4998Z" fill="#9FA2B4"/>
</svg>
