<svg width="40" height="40" viewBox="0 0 40 40" fill="none" xmlns="http://www.w3.org/2000/svg">
<path d="M20 0C8.96 0 0 8.96 0 20C0 31.04 8.96 40 20 40C31.04 40 40 31.04 40 20C40 8.96 31.04 0 20 0ZM21.76 31.52V34H18.26V31.42C16.78 31.06 13.48 29.88 12.22 25.5L15.52 24.16C15.64 24.6 16.68 28.34 20.32 28.34C22.18 28.34 24.28 27.38 24.28 25.12C24.28 23.2 22.88 22.2 19.72 21.06C17.52 20.28 13.02 19 13.02 14.44C13.02 14.24 13.04 9.64 18.26 8.52V6H21.76V8.48C25.44 9.12 26.78 12.06 27.08 12.94L23.92 14.28C23.7 13.58 22.74 11.6 20.12 11.6C18.72 11.6 16.5 12.34 16.5 14.38C16.5 16.28 18.22 17 21.78 18.18C26.58 19.84 27.8 22.28 27.8 25.08C27.8 30.34 22.8 31.34 21.76 31.52Z" fill="#730037"/>
</svg>
